M48
; DRILL file {KiCad (6.0.5)} date Sat Jun  4 00:44:44 2022
; FORMAT={-:-/ absolute / metric / decimal}
; #@! TF.CreationDate,2022-06-04T00:44:44+02:00
; #@! TF.GenerationSoftware,Kicad,Pcbnew,(6.0.5)
; #@! TF.FileFunction,NonPlated,1,2,NPTH
FMAT,2
METRIC
; #@! TA.AperFunction,NonPlated,NPTH,ComponentDrill
T1C1.900
; #@! TA.AperFunction,NonPlated,NPTH,ComponentDrill
T2C3.000
; #@! TA.AperFunction,NonPlated,NPTH,ComponentDrill
T3C4.100
; #@! TA.AperFunction,NonPlated,NPTH,ComponentDrill
T4C4.300
%
G90
G05
T1
X95.99Y-40.442
X95.99Y-59.492
X95.99Y-78.542
X106.15Y-40.442
X106.15Y-59.492
X106.15Y-78.542
X115.04Y-40.442
X115.04Y-59.492
X115.04Y-78.542
X125.2Y-40.442
X125.2Y-59.492
X125.2Y-78.542
X134.09Y-40.442
X134.09Y-59.492
X134.09Y-78.542
X144.25Y-40.442
X144.25Y-59.492
X144.25Y-78.542
X153.14Y-40.442
X153.14Y-59.492
X153.14Y-78.542
X163.3Y-40.442
X163.3Y-59.492
X163.3Y-78.542
X172.19Y-40.442
X172.19Y-59.492
X172.19Y-78.542
X182.35Y-40.442
X182.35Y-59.492
X182.35Y-78.542
X191.24Y-40.442
X191.24Y-59.492
X191.24Y-78.542
X201.4Y-40.442
X201.4Y-59.492
X201.4Y-78.542
T2
X97.26Y-37.902
X97.26Y-56.953
X97.26Y-76.002
X103.61Y-35.362
X103.61Y-54.412
X103.61Y-73.462
X116.31Y-37.902
X116.31Y-56.953
X116.31Y-76.002
X122.66Y-35.362
X122.66Y-54.412
X122.66Y-73.462
X135.36Y-37.902
X135.36Y-56.953
X135.36Y-76.002
X141.71Y-35.362
X141.71Y-54.412
X141.71Y-73.462
X154.41Y-37.902
X154.41Y-56.953
X154.41Y-76.002
X160.76Y-35.362
X160.76Y-54.412
X160.76Y-73.462
X173.46Y-37.902
X173.46Y-56.953
X173.46Y-76.002
X179.81Y-35.362
X179.81Y-54.412
X179.81Y-73.462
X192.51Y-37.902
X192.51Y-56.953
X192.51Y-76.002
X198.86Y-35.362
X198.86Y-54.412
X198.86Y-73.462
T3
X101.07Y-40.442
X101.07Y-59.492
X101.07Y-78.542
X120.12Y-40.442
X120.12Y-59.492
X120.12Y-78.542
X139.17Y-40.442
X139.17Y-59.492
X139.17Y-78.542
X158.22Y-40.442
X158.22Y-59.492
X158.22Y-78.542
X177.27Y-40.442
X177.27Y-59.492
X177.27Y-78.542
X196.32Y-40.442
X196.32Y-59.492
X196.32Y-78.542
T4
X110.542Y-49.722
X110.604Y-68.918
X186.89Y-49.588
X186.89Y-68.832
T0
M30
