G04 #@! TF.GenerationSoftware,KiCad,Pcbnew,(6.0.5)*
G04 #@! TF.CreationDate,2022-06-04T00:44:28+02:00*
G04 #@! TF.ProjectId,cheap_deck,63686561-705f-4646-9563-6b2e6b696361,3.0.1*
G04 #@! TF.SameCoordinates,Original*
G04 #@! TF.FileFunction,Soldermask,Bot*
G04 #@! TF.FilePolarity,Negative*
%FSLAX46Y46*%
G04 Gerber Fmt 4.6, Leading zero omitted, Abs format (unit mm)*
G04 Created by KiCad (PCBNEW (6.0.5)) date 2022-06-04 00:44:28*
%MOMM*%
%LPD*%
G01*
G04 APERTURE LIST*
G04 Aperture macros list*
%AMRoundRect*
0 Rectangle with rounded corners*
0 $1 Rounding radius*
0 $2 $3 $4 $5 $6 $7 $8 $9 X,Y pos of 4 corners*
0 Add a 4 corners polygon primitive as box body*
4,1,4,$2,$3,$4,$5,$6,$7,$8,$9,$2,$3,0*
0 Add four circle primitives for the rounded corners*
1,1,$1+$1,$2,$3*
1,1,$1+$1,$4,$5*
1,1,$1+$1,$6,$7*
1,1,$1+$1,$8,$9*
0 Add four rect primitives between the rounded corners*
20,1,$1+$1,$2,$3,$4,$5,0*
20,1,$1+$1,$4,$5,$6,$7,0*
20,1,$1+$1,$6,$7,$8,$9,0*
20,1,$1+$1,$8,$9,$2,$3,0*%
G04 Aperture macros list end*
%ADD10C,3.400000*%
%ADD11C,2.300000*%
%ADD12C,4.500000*%
%ADD13RoundRect,0.200000X1.275000X1.250000X-1.275000X1.250000X-1.275000X-1.250000X1.275000X-1.250000X0*%
%ADD14C,1.924000*%
%ADD15C,4.700000*%
%ADD16C,1.797000*%
%ADD17C,2.400000*%
%ADD18C,3.600000*%
%ADD19RoundRect,0.200000X-1.000000X-1.000000X1.000000X-1.000000X1.000000X1.000000X-1.000000X1.000000X0*%
%ADD20RoundRect,0.200000X0.500000X-0.700000X0.500000X0.700000X-0.500000X0.700000X-0.500000X-0.700000X0*%
%ADD21RoundRect,0.200000X-0.850000X-0.500000X0.850000X-0.500000X0.850000X0.500000X-0.850000X0.500000X0*%
G04 APERTURE END LIST*
D10*
X103610000Y-35362500D03*
D11*
X106150000Y-40442500D03*
X95990000Y-40442500D03*
D10*
X97260000Y-37902500D03*
D12*
X101070000Y-40442500D03*
D13*
X93985000Y-37902500D03*
X106912000Y-35362500D03*
D12*
X120120000Y-40442500D03*
D10*
X116310000Y-37902500D03*
X122660000Y-35362500D03*
D11*
X115040000Y-40442500D03*
X125200000Y-40442500D03*
D13*
X113035000Y-37902500D03*
X125962000Y-35362500D03*
D11*
X134090000Y-40442500D03*
X144250000Y-40442500D03*
D10*
X141710000Y-35362500D03*
D12*
X139170000Y-40442500D03*
D10*
X135360000Y-37902500D03*
D13*
X132085000Y-37902500D03*
X145012000Y-35362500D03*
D10*
X154410000Y-37902500D03*
D11*
X163300000Y-40442500D03*
D12*
X158220000Y-40442500D03*
D10*
X160760000Y-35362500D03*
D11*
X153140000Y-40442500D03*
D13*
X151135000Y-37902500D03*
X164062000Y-35362500D03*
D11*
X172190000Y-40442500D03*
D10*
X173460000Y-37902500D03*
X179810000Y-35362500D03*
D12*
X177270000Y-40442500D03*
D11*
X182350000Y-40442500D03*
D13*
X170185000Y-37902500D03*
X183112000Y-35362500D03*
D11*
X95990000Y-59492500D03*
D10*
X103610000Y-54412500D03*
D11*
X106150000Y-59492500D03*
D10*
X97260000Y-56952500D03*
D12*
X101070000Y-59492500D03*
D13*
X93985000Y-56952500D03*
X106912000Y-54412500D03*
D12*
X139170000Y-59492500D03*
D11*
X134090000Y-59492500D03*
D10*
X141710000Y-54412500D03*
D11*
X144250000Y-59492500D03*
D10*
X135360000Y-56952500D03*
D13*
X132085000Y-56952500D03*
X145012000Y-54412500D03*
D11*
X163300000Y-59492500D03*
D12*
X158220000Y-59492500D03*
D10*
X160760000Y-54412500D03*
X154410000Y-56952500D03*
D11*
X153140000Y-59492500D03*
D13*
X151135000Y-56952500D03*
X164062000Y-54412500D03*
D12*
X177270000Y-59492500D03*
D11*
X172190000Y-59492500D03*
D10*
X179810000Y-54412500D03*
D11*
X182350000Y-59492500D03*
D10*
X173460000Y-56952500D03*
D13*
X170185000Y-56952500D03*
X183112000Y-54412500D03*
D12*
X196320000Y-59492500D03*
D10*
X198860000Y-54412500D03*
X192510000Y-56952500D03*
D11*
X201400000Y-59492500D03*
X191240000Y-59492500D03*
D13*
X189235000Y-56952500D03*
X202162000Y-54412500D03*
D10*
X97260000Y-76002500D03*
X103610000Y-73462500D03*
D12*
X101070000Y-78542500D03*
D11*
X95990000Y-78542500D03*
X106150000Y-78542500D03*
D13*
X93985000Y-76002500D03*
X106912000Y-73462500D03*
D12*
X120120000Y-78542500D03*
D10*
X116310000Y-76002500D03*
X122660000Y-73462500D03*
D11*
X115040000Y-78542500D03*
X125200000Y-78542500D03*
D13*
X113035000Y-76002500D03*
X125962000Y-73462500D03*
D11*
X134090000Y-78542500D03*
D10*
X135360000Y-76002500D03*
X141710000Y-73462500D03*
D12*
X139170000Y-78542500D03*
D11*
X144250000Y-78542500D03*
D13*
X132085000Y-76002500D03*
X145012000Y-73462500D03*
D11*
X153140000Y-78542500D03*
D10*
X154410000Y-76002500D03*
D12*
X158220000Y-78542500D03*
D10*
X160760000Y-73462500D03*
D11*
X163300000Y-78542500D03*
D13*
X151135000Y-76002500D03*
X164062000Y-73462500D03*
D10*
X179810000Y-73462500D03*
D11*
X182350000Y-78542500D03*
D10*
X173460000Y-76002500D03*
D12*
X177270000Y-78542500D03*
D11*
X172190000Y-78542500D03*
D13*
X170185000Y-76002500D03*
X183112000Y-73462500D03*
D14*
X88695000Y-35223800D03*
X88695000Y-37763800D03*
X88695000Y-40303800D03*
X88695000Y-42843800D03*
X88695000Y-45383800D03*
X88695000Y-47923800D03*
X88695000Y-50463800D03*
X88695000Y-53003800D03*
X88695000Y-55543800D03*
X88695000Y-58083800D03*
X88695000Y-60623800D03*
X88695000Y-63163800D03*
X73475000Y-63163800D03*
X73475000Y-60623800D03*
X73475000Y-58083800D03*
X73475000Y-55543800D03*
X73475000Y-53003800D03*
X73475000Y-50463800D03*
X73475000Y-47923800D03*
X73475000Y-45383800D03*
X73475000Y-42843800D03*
X73475000Y-40303800D03*
X73475000Y-37763800D03*
X73475000Y-35223800D03*
D11*
X115040000Y-59492500D03*
X125200000Y-59492500D03*
D10*
X122660000Y-54412500D03*
D12*
X120120000Y-59492500D03*
D10*
X116310000Y-56952500D03*
D13*
X113035000Y-56952500D03*
X125962000Y-54412500D03*
D10*
X198860000Y-73462500D03*
X192510000Y-76002500D03*
D11*
X191240000Y-78542500D03*
X201400000Y-78542500D03*
D12*
X196320000Y-78542500D03*
D13*
X189235000Y-76002500D03*
X202162000Y-73462500D03*
D11*
X191240000Y-40442500D03*
D10*
X192510000Y-37902500D03*
X198860000Y-35362500D03*
D11*
X201400000Y-40442500D03*
D12*
X196320000Y-40442500D03*
D13*
X189235000Y-37902500D03*
X202162000Y-35362500D03*
D15*
X186890000Y-68832200D03*
X110541700Y-49722400D03*
X110604200Y-68918500D03*
D16*
X77257500Y-68700000D03*
X79797500Y-68700000D03*
X82337500Y-68700000D03*
X84877500Y-68700000D03*
D15*
X186890000Y-49588100D03*
D17*
X88317500Y-76182400D03*
X88317500Y-81182400D03*
D18*
X81317500Y-84282400D03*
X81317500Y-73082400D03*
D17*
X73817500Y-78682400D03*
X73817500Y-81182400D03*
D19*
X73817500Y-76182400D03*
D20*
X109007500Y-43198700D03*
X109007500Y-39648700D03*
X128057500Y-42405000D03*
X128057500Y-38855000D03*
X147107500Y-42405000D03*
X147107500Y-38855000D03*
X166157500Y-43011200D03*
X166157500Y-39461200D03*
X185207500Y-42405000D03*
X185207500Y-38855000D03*
X204257500Y-42405000D03*
X204257500Y-38855000D03*
X109007500Y-62248700D03*
X109007500Y-58698700D03*
X128057500Y-62248700D03*
X128057500Y-58698700D03*
X147107500Y-62248700D03*
X147107500Y-58698700D03*
X166157500Y-62248700D03*
X166157500Y-58698700D03*
X185207500Y-62248700D03*
X185207500Y-58698700D03*
X204257500Y-62248700D03*
X204257500Y-58698700D03*
X109007500Y-81298700D03*
X109007500Y-77748700D03*
X128057500Y-81111200D03*
X128057500Y-77561200D03*
X147107500Y-81298700D03*
X147107500Y-77748700D03*
X166157500Y-81111200D03*
X166157500Y-77561200D03*
X185207500Y-81298700D03*
X185207500Y-77748700D03*
X204257500Y-81298700D03*
X204257500Y-77748700D03*
D21*
X161052100Y-83965400D03*
X161052100Y-82565400D03*
X155552100Y-82565400D03*
X155552100Y-83965400D03*
X142230700Y-83965400D03*
X142230700Y-82565400D03*
X136730700Y-82565400D03*
X136730700Y-83965400D03*
X142433900Y-64813800D03*
X142433900Y-63413800D03*
X136933900Y-63413800D03*
X136933900Y-64813800D03*
X161376400Y-64955000D03*
X161376400Y-63555000D03*
X155876400Y-63555000D03*
X155876400Y-64955000D03*
X161356900Y-45967000D03*
X161356900Y-44567000D03*
X155856900Y-44567000D03*
X155856900Y-45967000D03*
X142230700Y-45852700D03*
X142230700Y-44452700D03*
X136730700Y-44452700D03*
X136730700Y-45852700D03*
X180470400Y-84054300D03*
X180470400Y-82654300D03*
X174970400Y-82654300D03*
X174970400Y-84054300D03*
X123378000Y-84005000D03*
X123378000Y-82605000D03*
X117878000Y-82605000D03*
X117878000Y-84005000D03*
X123295000Y-64978900D03*
X123295000Y-63578900D03*
X117795000Y-63578900D03*
X117795000Y-64978900D03*
X180521200Y-64902700D03*
X180521200Y-63502700D03*
X175021200Y-63502700D03*
X175021200Y-64902700D03*
X180508500Y-45852700D03*
X180508500Y-44452700D03*
X175008500Y-44452700D03*
X175008500Y-45852700D03*
X123320400Y-45814600D03*
X123320400Y-44414600D03*
X117820400Y-44414600D03*
X117820400Y-45814600D03*
X199406100Y-84016200D03*
X199406100Y-82616200D03*
X193906100Y-82616200D03*
X193906100Y-84016200D03*
X104156100Y-84079700D03*
X104156100Y-82679700D03*
X98656100Y-82679700D03*
X98656100Y-84079700D03*
X104181500Y-65007300D03*
X104181500Y-63607300D03*
X98681500Y-63607300D03*
X98681500Y-65007300D03*
X199456900Y-64931100D03*
X199456900Y-63531100D03*
X193956900Y-63531100D03*
X193956900Y-64931100D03*
X199565300Y-45765300D03*
X199565300Y-44365300D03*
X194065300Y-44365300D03*
X194065300Y-45765300D03*
X104270400Y-45967000D03*
X104270400Y-44567000D03*
X98770400Y-44567000D03*
X98770400Y-45967000D03*
M02*
