G04 #@! TF.GenerationSoftware,KiCad,Pcbnew,(6.0.5)*
G04 #@! TF.CreationDate,2022-06-04T00:44:28+02:00*
G04 #@! TF.ProjectId,cheap_deck,63686561-705f-4646-9563-6b2e6b696361,3.0.1*
G04 #@! TF.SameCoordinates,Original*
G04 #@! TF.FileFunction,Profile,NP*
%FSLAX46Y46*%
G04 Gerber Fmt 4.6, Leading zero omitted, Abs format (unit mm)*
G04 Created by KiCad (PCBNEW (6.0.5)) date 2022-06-04 00:44:28*
%MOMM*%
%LPD*%
G01*
G04 APERTURE LIST*
G04 #@! TA.AperFunction,Profile*
%ADD10C,0.200000*%
G04 #@! TD*
G04 #@! TA.AperFunction,Profile*
%ADD11C,0.120000*%
G04 #@! TD*
G04 APERTURE END LIST*
D10*
X73288750Y-30123700D02*
G75*
G03*
X70907500Y-32505000I50J-2381300D01*
G01*
X73288750Y-30123750D02*
X204257500Y-30123750D01*
X206638750Y-32505000D02*
G75*
G03*
X204257500Y-30123750I-2381250J0D01*
G01*
X206638750Y-32505000D02*
X206638750Y-86480000D01*
X204257500Y-88861250D02*
G75*
G03*
X206638750Y-86480000I0J2381250D01*
G01*
X204257500Y-88861250D02*
X73288750Y-88861250D01*
X70907550Y-86480000D02*
G75*
G03*
X73288750Y-88861250I2381250J0D01*
G01*
X70907500Y-86480000D02*
X70907500Y-32505000D01*
D11*
X160102100Y-84815400D02*
X156502100Y-84815400D01*
X160102100Y-81715400D02*
X160102100Y-84815400D01*
X156502100Y-84815400D02*
X156502100Y-81715400D01*
X156502100Y-81715400D02*
X160102100Y-81715400D01*
X137680700Y-84815400D02*
X137680700Y-81715400D01*
X137680700Y-81715400D02*
X141280700Y-81715400D01*
X141280700Y-81715400D02*
X141280700Y-84815400D01*
X141280700Y-84815400D02*
X137680700Y-84815400D01*
X137883900Y-62563800D02*
X141483900Y-62563800D01*
X137883900Y-65663800D02*
X137883900Y-62563800D01*
X141483900Y-62563800D02*
X141483900Y-65663800D01*
X141483900Y-65663800D02*
X137883900Y-65663800D01*
X156826400Y-62705000D02*
X160426400Y-62705000D01*
X156826400Y-65805000D02*
X156826400Y-62705000D01*
X160426400Y-62705000D02*
X160426400Y-65805000D01*
X160426400Y-65805000D02*
X156826400Y-65805000D01*
X160406900Y-43717000D02*
X160406900Y-46817000D01*
X156806900Y-43717000D02*
X160406900Y-43717000D01*
X156806900Y-46817000D02*
X156806900Y-43717000D01*
X160406900Y-46817000D02*
X156806900Y-46817000D01*
X141280700Y-46702700D02*
X137680700Y-46702700D01*
X137680700Y-46702700D02*
X137680700Y-43602700D01*
X137680700Y-43602700D02*
X141280700Y-43602700D01*
X141280700Y-43602700D02*
X141280700Y-46702700D01*
X175920400Y-84904300D02*
X175920400Y-81804300D01*
X179520400Y-81804300D02*
X179520400Y-84904300D01*
X175920400Y-81804300D02*
X179520400Y-81804300D01*
X179520400Y-84904300D02*
X175920400Y-84904300D01*
X122428000Y-81755000D02*
X122428000Y-84855000D01*
X122428000Y-84855000D02*
X118828000Y-84855000D01*
X118828000Y-84855000D02*
X118828000Y-81755000D01*
X118828000Y-81755000D02*
X122428000Y-81755000D01*
X122345000Y-65828900D02*
X118745000Y-65828900D01*
X118745000Y-62728900D02*
X122345000Y-62728900D01*
X118745000Y-65828900D02*
X118745000Y-62728900D01*
X122345000Y-62728900D02*
X122345000Y-65828900D01*
X175971200Y-62652700D02*
X179571200Y-62652700D01*
X175971200Y-65752700D02*
X175971200Y-62652700D01*
X179571200Y-65752700D02*
X175971200Y-65752700D01*
X179571200Y-62652700D02*
X179571200Y-65752700D01*
X179558500Y-46702700D02*
X175958500Y-46702700D01*
X175958500Y-46702700D02*
X175958500Y-43602700D01*
X175958500Y-43602700D02*
X179558500Y-43602700D01*
X179558500Y-43602700D02*
X179558500Y-46702700D01*
X122370400Y-46664600D02*
X118770400Y-46664600D01*
X122370400Y-43564600D02*
X122370400Y-46664600D01*
X118770400Y-46664600D02*
X118770400Y-43564600D01*
X118770400Y-43564600D02*
X122370400Y-43564600D01*
X194856100Y-84866200D02*
X194856100Y-81766200D01*
X198456100Y-81766200D02*
X198456100Y-84866200D01*
X194856100Y-81766200D02*
X198456100Y-81766200D01*
X198456100Y-84866200D02*
X194856100Y-84866200D01*
X103206100Y-84929700D02*
X99606100Y-84929700D01*
X99606100Y-81829700D02*
X103206100Y-81829700D01*
X99606100Y-84929700D02*
X99606100Y-81829700D01*
X103206100Y-81829700D02*
X103206100Y-84929700D01*
X103231500Y-65857300D02*
X99631500Y-65857300D01*
X99631500Y-62757300D02*
X103231500Y-62757300D01*
X99631500Y-65857300D02*
X99631500Y-62757300D01*
X103231500Y-62757300D02*
X103231500Y-65857300D01*
X198506900Y-65781100D02*
X194906900Y-65781100D01*
X198506900Y-62681100D02*
X198506900Y-65781100D01*
X194906900Y-62681100D02*
X198506900Y-62681100D01*
X194906900Y-65781100D02*
X194906900Y-62681100D01*
X195015300Y-46615300D02*
X195015300Y-43515300D01*
X198615300Y-43515300D02*
X198615300Y-46615300D01*
X198615300Y-46615300D02*
X195015300Y-46615300D01*
X195015300Y-43515300D02*
X198615300Y-43515300D01*
X99720400Y-46817000D02*
X99720400Y-43717000D01*
X103320400Y-43717000D02*
X103320400Y-46817000D01*
X99720400Y-43717000D02*
X103320400Y-43717000D01*
X103320400Y-46817000D02*
X99720400Y-46817000D01*
M02*
