G04 #@! TF.GenerationSoftware,KiCad,Pcbnew,(6.0.5)*
G04 #@! TF.CreationDate,2022-06-04T00:44:28+02:00*
G04 #@! TF.ProjectId,cheap_deck,63686561-705f-4646-9563-6b2e6b696361,3.0.1*
G04 #@! TF.SameCoordinates,Original*
G04 #@! TF.FileFunction,Legend,Top*
G04 #@! TF.FilePolarity,Positive*
%FSLAX46Y46*%
G04 Gerber Fmt 4.6, Leading zero omitted, Abs format (unit mm)*
G04 Created by KiCad (PCBNEW (6.0.5)) date 2022-06-04 00:44:28*
%MOMM*%
%LPD*%
G01*
G04 APERTURE LIST*
%ADD10C,0.150000*%
%ADD11C,0.125000*%
%ADD12C,0.120000*%
%ADD13C,0.010000*%
%ADD14C,1.397000*%
G04 APERTURE END LIST*
D10*
X83510218Y-86583594D02*
X83462599Y-86631213D01*
X83319742Y-86678832D01*
X83224504Y-86678832D01*
X83081647Y-86631213D01*
X82986408Y-86535975D01*
X82938789Y-86440737D01*
X82891170Y-86250261D01*
X82891170Y-86107404D01*
X82938789Y-85916928D01*
X82986408Y-85821690D01*
X83081647Y-85726452D01*
X83224504Y-85678832D01*
X83319742Y-85678832D01*
X83462599Y-85726452D01*
X83510218Y-85774071D01*
X83938789Y-86678832D02*
X83938789Y-85678832D01*
X84367361Y-86678832D02*
X84367361Y-86155023D01*
X84319742Y-86059785D01*
X84224504Y-86012166D01*
X84081647Y-86012166D01*
X83986408Y-86059785D01*
X83938789Y-86107404D01*
X85224504Y-86631213D02*
X85129266Y-86678832D01*
X84938789Y-86678832D01*
X84843551Y-86631213D01*
X84795932Y-86535975D01*
X84795932Y-86155023D01*
X84843551Y-86059785D01*
X84938789Y-86012166D01*
X85129266Y-86012166D01*
X85224504Y-86059785D01*
X85272123Y-86155023D01*
X85272123Y-86250261D01*
X84795932Y-86345499D01*
X86129266Y-86678832D02*
X86129266Y-86155023D01*
X86081647Y-86059785D01*
X85986408Y-86012166D01*
X85795932Y-86012166D01*
X85700694Y-86059785D01*
X86129266Y-86631213D02*
X86034027Y-86678832D01*
X85795932Y-86678832D01*
X85700694Y-86631213D01*
X85653075Y-86535975D01*
X85653075Y-86440737D01*
X85700694Y-86345499D01*
X85795932Y-86297880D01*
X86034027Y-86297880D01*
X86129266Y-86250261D01*
X86605456Y-86012166D02*
X86605456Y-87012166D01*
X86605456Y-86059785D02*
X86700694Y-86012166D01*
X86891170Y-86012166D01*
X86986408Y-86059785D01*
X87034027Y-86107404D01*
X87081647Y-86202642D01*
X87081647Y-86488356D01*
X87034027Y-86583594D01*
X86986408Y-86631213D01*
X86891170Y-86678832D01*
X86700694Y-86678832D01*
X86605456Y-86631213D01*
X87510218Y-86678832D02*
X87510218Y-85678832D01*
X87748313Y-85678832D01*
X87891170Y-85726452D01*
X87986408Y-85821690D01*
X88034027Y-85916928D01*
X88081647Y-86107404D01*
X88081647Y-86250261D01*
X88034027Y-86440737D01*
X87986408Y-86535975D01*
X87891170Y-86631213D01*
X87748313Y-86678832D01*
X87510218Y-86678832D01*
X88891170Y-86631213D02*
X88795932Y-86678832D01*
X88605456Y-86678832D01*
X88510218Y-86631213D01*
X88462599Y-86535975D01*
X88462599Y-86155023D01*
X88510218Y-86059785D01*
X88605456Y-86012166D01*
X88795932Y-86012166D01*
X88891170Y-86059785D01*
X88938789Y-86155023D01*
X88938789Y-86250261D01*
X88462599Y-86345499D01*
X89795932Y-86631213D02*
X89700694Y-86678832D01*
X89510218Y-86678832D01*
X89414980Y-86631213D01*
X89367361Y-86583594D01*
X89319742Y-86488356D01*
X89319742Y-86202642D01*
X89367361Y-86107404D01*
X89414980Y-86059785D01*
X89510218Y-86012166D01*
X89700694Y-86012166D01*
X89795932Y-86059785D01*
X90224504Y-86678832D02*
X90224504Y-85678832D01*
X90319742Y-86297880D02*
X90605456Y-86678832D01*
X90605456Y-86012166D02*
X90224504Y-86393118D01*
X91700694Y-86012166D02*
X91938789Y-86678832D01*
X92176885Y-86012166D01*
X92510218Y-85774071D02*
X92557837Y-85726452D01*
X92653075Y-85678832D01*
X92891170Y-85678832D01*
X92986408Y-85726452D01*
X93034027Y-85774071D01*
X93081646Y-85869309D01*
X93081646Y-85964547D01*
X93034027Y-86107404D01*
X92462599Y-86678832D01*
X93081646Y-86678832D01*
X93510218Y-86583594D02*
X93557837Y-86631213D01*
X93510218Y-86678832D01*
X93462599Y-86631213D01*
X93510218Y-86583594D01*
X93510218Y-86678832D01*
X94176885Y-85678832D02*
X94272123Y-85678832D01*
X94367361Y-85726452D01*
X94414980Y-85774071D01*
X94462599Y-85869309D01*
X94510218Y-86059785D01*
X94510218Y-86297880D01*
X94462599Y-86488356D01*
X94414980Y-86583594D01*
X94367361Y-86631213D01*
X94272123Y-86678832D01*
X94176885Y-86678832D01*
X94081646Y-86631213D01*
X94034027Y-86583594D01*
X93986408Y-86488356D01*
X93938789Y-86297880D01*
X93938789Y-86059785D01*
X93986408Y-85869309D01*
X94034027Y-85774071D01*
X94081646Y-85726452D01*
X94176885Y-85678832D01*
X95700694Y-86678832D02*
X95700694Y-85678832D01*
X96081646Y-85678832D01*
X96176885Y-85726452D01*
X96224504Y-85774071D01*
X96272123Y-85869309D01*
X96272123Y-86012166D01*
X96224504Y-86107404D01*
X96176885Y-86155023D01*
X96081646Y-86202642D01*
X95700694Y-86202642D01*
X97272123Y-86583594D02*
X97224504Y-86631213D01*
X97081646Y-86678832D01*
X96986408Y-86678832D01*
X96843551Y-86631213D01*
X96748313Y-86535975D01*
X96700694Y-86440737D01*
X96653075Y-86250261D01*
X96653075Y-86107404D01*
X96700694Y-85916928D01*
X96748313Y-85821690D01*
X96843551Y-85726452D01*
X96986408Y-85678832D01*
X97081646Y-85678832D01*
X97224504Y-85726452D01*
X97272123Y-85774071D01*
X98034027Y-86155023D02*
X98176885Y-86202642D01*
X98224504Y-86250261D01*
X98272123Y-86345499D01*
X98272123Y-86488356D01*
X98224504Y-86583594D01*
X98176885Y-86631213D01*
X98081646Y-86678832D01*
X97700694Y-86678832D01*
X97700694Y-85678832D01*
X98034027Y-85678832D01*
X98129266Y-85726452D01*
X98176885Y-85774071D01*
X98224504Y-85869309D01*
X98224504Y-85964547D01*
X98176885Y-86059785D01*
X98129266Y-86107404D01*
X98034027Y-86155023D01*
X97700694Y-86155023D01*
X83367361Y-88288832D02*
X83367361Y-87288832D01*
X83605456Y-87288832D01*
X83748313Y-87336452D01*
X83843551Y-87431690D01*
X83891170Y-87526928D01*
X83938789Y-87717404D01*
X83938789Y-87860261D01*
X83891170Y-88050737D01*
X83843551Y-88145975D01*
X83748313Y-88241213D01*
X83605456Y-88288832D01*
X83367361Y-88288832D01*
X84748313Y-88241213D02*
X84653075Y-88288832D01*
X84462599Y-88288832D01*
X84367361Y-88241213D01*
X84319742Y-88145975D01*
X84319742Y-87765023D01*
X84367361Y-87669785D01*
X84462599Y-87622166D01*
X84653075Y-87622166D01*
X84748313Y-87669785D01*
X84795932Y-87765023D01*
X84795932Y-87860261D01*
X84319742Y-87955499D01*
X85176885Y-88241213D02*
X85272123Y-88288832D01*
X85462599Y-88288832D01*
X85557837Y-88241213D01*
X85605456Y-88145975D01*
X85605456Y-88098356D01*
X85557837Y-88003118D01*
X85462599Y-87955499D01*
X85319742Y-87955499D01*
X85224504Y-87907880D01*
X85176885Y-87812642D01*
X85176885Y-87765023D01*
X85224504Y-87669785D01*
X85319742Y-87622166D01*
X85462599Y-87622166D01*
X85557837Y-87669785D01*
X86034027Y-88288832D02*
X86034027Y-87622166D01*
X86034027Y-87288832D02*
X85986408Y-87336452D01*
X86034027Y-87384071D01*
X86081647Y-87336452D01*
X86034027Y-87288832D01*
X86034027Y-87384071D01*
X86938789Y-87622166D02*
X86938789Y-88431690D01*
X86891170Y-88526928D01*
X86843551Y-88574547D01*
X86748313Y-88622166D01*
X86605456Y-88622166D01*
X86510218Y-88574547D01*
X86938789Y-88241213D02*
X86843551Y-88288832D01*
X86653075Y-88288832D01*
X86557837Y-88241213D01*
X86510218Y-88193594D01*
X86462599Y-88098356D01*
X86462599Y-87812642D01*
X86510218Y-87717404D01*
X86557837Y-87669785D01*
X86653075Y-87622166D01*
X86843551Y-87622166D01*
X86938789Y-87669785D01*
X87414980Y-87622166D02*
X87414980Y-88288832D01*
X87414980Y-87717404D02*
X87462599Y-87669785D01*
X87557837Y-87622166D01*
X87700694Y-87622166D01*
X87795932Y-87669785D01*
X87843551Y-87765023D01*
X87843551Y-88288832D01*
X88700694Y-88241213D02*
X88605456Y-88288832D01*
X88414980Y-88288832D01*
X88319742Y-88241213D01*
X88272123Y-88145975D01*
X88272123Y-87765023D01*
X88319742Y-87669785D01*
X88414980Y-87622166D01*
X88605456Y-87622166D01*
X88700694Y-87669785D01*
X88748313Y-87765023D01*
X88748313Y-87860261D01*
X88272123Y-87955499D01*
X89605456Y-88288832D02*
X89605456Y-87288832D01*
X89605456Y-88241213D02*
X89510218Y-88288832D01*
X89319742Y-88288832D01*
X89224504Y-88241213D01*
X89176885Y-88193594D01*
X89129266Y-88098356D01*
X89129266Y-87812642D01*
X89176885Y-87717404D01*
X89224504Y-87669785D01*
X89319742Y-87622166D01*
X89510218Y-87622166D01*
X89605456Y-87669785D01*
X90843551Y-88288832D02*
X90843551Y-87288832D01*
X90843551Y-87669785D02*
X90938789Y-87622166D01*
X91129266Y-87622166D01*
X91224504Y-87669785D01*
X91272123Y-87717404D01*
X91319742Y-87812642D01*
X91319742Y-88098356D01*
X91272123Y-88193594D01*
X91224504Y-88241213D01*
X91129266Y-88288832D01*
X90938789Y-88288832D01*
X90843551Y-88241213D01*
X91653075Y-87622166D02*
X91891170Y-88288832D01*
X92129266Y-87622166D02*
X91891170Y-88288832D01*
X91795932Y-88526928D01*
X91748313Y-88574547D01*
X91653075Y-88622166D01*
X93272123Y-88288832D02*
X93272123Y-87288832D01*
X93510218Y-87288832D01*
X93653075Y-87336452D01*
X93748313Y-87431690D01*
X93795932Y-87526928D01*
X93843551Y-87717404D01*
X93843551Y-87860261D01*
X93795932Y-88050737D01*
X93748313Y-88145975D01*
X93653075Y-88241213D01*
X93510218Y-88288832D01*
X93272123Y-88288832D01*
X94700694Y-88288832D02*
X94700694Y-87765023D01*
X94653075Y-87669785D01*
X94557837Y-87622166D01*
X94367361Y-87622166D01*
X94272123Y-87669785D01*
X94700694Y-88241213D02*
X94605456Y-88288832D01*
X94367361Y-88288832D01*
X94272123Y-88241213D01*
X94224504Y-88145975D01*
X94224504Y-88050737D01*
X94272123Y-87955499D01*
X94367361Y-87907880D01*
X94605456Y-87907880D01*
X94700694Y-87860261D01*
X95176885Y-87622166D02*
X95176885Y-88288832D01*
X95176885Y-87717404D02*
X95224504Y-87669785D01*
X95319742Y-87622166D01*
X95462599Y-87622166D01*
X95557837Y-87669785D01*
X95605456Y-87765023D01*
X95605456Y-88288832D01*
X95986408Y-87622166D02*
X96224504Y-88288832D01*
X96462599Y-87622166D02*
X96224504Y-88288832D01*
X96129266Y-88526928D01*
X96081647Y-88574547D01*
X95986408Y-88622166D01*
X97272123Y-88288832D02*
X97272123Y-87765023D01*
X97224504Y-87669785D01*
X97129266Y-87622166D01*
X96938789Y-87622166D01*
X96843551Y-87669785D01*
X97272123Y-88241213D02*
X97176885Y-88288832D01*
X96938789Y-88288832D01*
X96843551Y-88241213D01*
X96795932Y-88145975D01*
X96795932Y-88050737D01*
X96843551Y-87955499D01*
X96938789Y-87907880D01*
X97176885Y-87907880D01*
X97272123Y-87860261D01*
X97891170Y-88288832D02*
X97795932Y-88241213D01*
X97748313Y-88145975D01*
X97748313Y-87288832D01*
D11*
X75195266Y-42341085D02*
X75418600Y-43091085D01*
X75641933Y-42341085D01*
X76248123Y-43019657D02*
X76216219Y-43055371D01*
X76120504Y-43091085D01*
X76056695Y-43091085D01*
X75960980Y-43055371D01*
X75897171Y-42983942D01*
X75865266Y-42912514D01*
X75833361Y-42769657D01*
X75833361Y-42662514D01*
X75865266Y-42519657D01*
X75897171Y-42448228D01*
X75960980Y-42376800D01*
X76056695Y-42341085D01*
X76120504Y-42341085D01*
X76216219Y-42376800D01*
X76248123Y-42412514D01*
X76918123Y-43019657D02*
X76886219Y-43055371D01*
X76790504Y-43091085D01*
X76726695Y-43091085D01*
X76630980Y-43055371D01*
X76567171Y-42983942D01*
X76535266Y-42912514D01*
X76503361Y-42769657D01*
X76503361Y-42662514D01*
X76535266Y-42519657D01*
X76567171Y-42448228D01*
X76630980Y-42376800D01*
X76726695Y-42341085D01*
X76790504Y-42341085D01*
X76886219Y-42376800D01*
X76918123Y-42412514D01*
X82065980Y-48105371D02*
X82161695Y-48141085D01*
X82321219Y-48141085D01*
X82385028Y-48105371D01*
X82416933Y-48069657D01*
X82448838Y-47998228D01*
X82448838Y-47926800D01*
X82416933Y-47855371D01*
X82385028Y-47819657D01*
X82321219Y-47783942D01*
X82193600Y-47748228D01*
X82129790Y-47712514D01*
X82097885Y-47676800D01*
X82065980Y-47605371D01*
X82065980Y-47533942D01*
X82097885Y-47462514D01*
X82129790Y-47426800D01*
X82193600Y-47391085D01*
X82353123Y-47391085D01*
X82448838Y-47426800D01*
X83118838Y-48069657D02*
X83086933Y-48105371D01*
X82991219Y-48141085D01*
X82927409Y-48141085D01*
X82831695Y-48105371D01*
X82767885Y-48033942D01*
X82735980Y-47962514D01*
X82704076Y-47819657D01*
X82704076Y-47712514D01*
X82735980Y-47569657D01*
X82767885Y-47498228D01*
X82831695Y-47426800D01*
X82927409Y-47391085D01*
X82991219Y-47391085D01*
X83086933Y-47426800D01*
X83118838Y-47462514D01*
X83725028Y-48141085D02*
X83405980Y-48141085D01*
X83405980Y-47391085D01*
X84426933Y-47355371D02*
X83852647Y-48319657D01*
X84650266Y-48141085D02*
X84650266Y-47391085D01*
X84809790Y-47391085D01*
X84905504Y-47426800D01*
X84969314Y-47498228D01*
X85001219Y-47569657D01*
X85033123Y-47712514D01*
X85033123Y-47819657D01*
X85001219Y-47962514D01*
X84969314Y-48033942D01*
X84905504Y-48105371D01*
X84809790Y-48141085D01*
X84650266Y-48141085D01*
X85447885Y-47391085D02*
X85511695Y-47391085D01*
X85575504Y-47426800D01*
X85607409Y-47462514D01*
X85639314Y-47533942D01*
X85671219Y-47676800D01*
X85671219Y-47855371D01*
X85639314Y-47998228D01*
X85607409Y-48069657D01*
X85575504Y-48105371D01*
X85511695Y-48141085D01*
X85447885Y-48141085D01*
X85384076Y-48105371D01*
X85352171Y-48069657D01*
X85320266Y-47998228D01*
X85288361Y-47855371D01*
X85288361Y-47676800D01*
X85320266Y-47533942D01*
X85352171Y-47462514D01*
X85384076Y-47426800D01*
X85447885Y-47391085D01*
X86436933Y-47355371D02*
X85862647Y-48319657D01*
X86596457Y-47391085D02*
X87011219Y-47391085D01*
X86787885Y-47676800D01*
X86883600Y-47676800D01*
X86947409Y-47712514D01*
X86979314Y-47748228D01*
X87011219Y-47819657D01*
X87011219Y-47998228D01*
X86979314Y-48069657D01*
X86947409Y-48105371D01*
X86883600Y-48141085D01*
X86692171Y-48141085D01*
X86628361Y-48105371D01*
X86596457Y-48069657D01*
X75252885Y-48076800D02*
X75571933Y-48076800D01*
X75189076Y-48291085D02*
X75412409Y-47541085D01*
X75635742Y-48291085D01*
X75827171Y-47612514D02*
X75859076Y-47576800D01*
X75922885Y-47541085D01*
X76082409Y-47541085D01*
X76146219Y-47576800D01*
X76178123Y-47612514D01*
X76210028Y-47683942D01*
X76210028Y-47755371D01*
X76178123Y-47862514D01*
X75795266Y-48291085D01*
X76210028Y-48291085D01*
X76975742Y-47505371D02*
X76401457Y-48469657D01*
X77422409Y-47898228D02*
X77199076Y-47898228D01*
X77199076Y-48291085D02*
X77199076Y-47541085D01*
X77518123Y-47541085D01*
X78092409Y-47541085D02*
X77773361Y-47541085D01*
X77741457Y-47898228D01*
X77773361Y-47862514D01*
X77837171Y-47826800D01*
X77996695Y-47826800D01*
X78060504Y-47862514D01*
X78092409Y-47898228D01*
X78124314Y-47969657D01*
X78124314Y-48148228D01*
X78092409Y-48219657D01*
X78060504Y-48255371D01*
X77996695Y-48291085D01*
X77837171Y-48291085D01*
X77773361Y-48255371D01*
X77741457Y-48219657D01*
D12*
X78587171Y-31091085D02*
X78587171Y-30341085D01*
X78837171Y-30876800D01*
X79087171Y-30341085D01*
X79087171Y-31091085D01*
X79444314Y-31091085D02*
X79444314Y-30591085D01*
X79444314Y-30341085D02*
X79408600Y-30376800D01*
X79444314Y-30412514D01*
X79480028Y-30376800D01*
X79444314Y-30341085D01*
X79444314Y-30412514D01*
X80122885Y-31055371D02*
X80051457Y-31091085D01*
X79908600Y-31091085D01*
X79837171Y-31055371D01*
X79801457Y-31019657D01*
X79765742Y-30948228D01*
X79765742Y-30733942D01*
X79801457Y-30662514D01*
X79837171Y-30626800D01*
X79908600Y-30591085D01*
X80051457Y-30591085D01*
X80122885Y-30626800D01*
X80444314Y-31091085D02*
X80444314Y-30591085D01*
X80444314Y-30733942D02*
X80480028Y-30662514D01*
X80515742Y-30626800D01*
X80587171Y-30591085D01*
X80658600Y-30591085D01*
X81015742Y-31091085D02*
X80944314Y-31055371D01*
X80908600Y-31019657D01*
X80872885Y-30948228D01*
X80872885Y-30733942D01*
X80908600Y-30662514D01*
X80944314Y-30626800D01*
X81015742Y-30591085D01*
X81122885Y-30591085D01*
X81194314Y-30626800D01*
X81230028Y-30662514D01*
X81265742Y-30733942D01*
X81265742Y-30948228D01*
X81230028Y-31019657D01*
X81194314Y-31055371D01*
X81122885Y-31091085D01*
X81015742Y-31091085D01*
X81587171Y-30341085D02*
X81587171Y-30948228D01*
X81622885Y-31019657D01*
X81658600Y-31055371D01*
X81730028Y-31091085D01*
X81872885Y-31091085D01*
X81944314Y-31055371D01*
X81980028Y-31019657D01*
X82015742Y-30948228D01*
X82015742Y-30341085D01*
X82337171Y-31055371D02*
X82444314Y-31091085D01*
X82622885Y-31091085D01*
X82694314Y-31055371D01*
X82730028Y-31019657D01*
X82765742Y-30948228D01*
X82765742Y-30876800D01*
X82730028Y-30805371D01*
X82694314Y-30769657D01*
X82622885Y-30733942D01*
X82480028Y-30698228D01*
X82408600Y-30662514D01*
X82372885Y-30626800D01*
X82337171Y-30555371D01*
X82337171Y-30483942D01*
X82372885Y-30412514D01*
X82408600Y-30376800D01*
X82480028Y-30341085D01*
X82658600Y-30341085D01*
X82765742Y-30376800D01*
X83337171Y-30698228D02*
X83444314Y-30733942D01*
X83480028Y-30769657D01*
X83515742Y-30841085D01*
X83515742Y-30948228D01*
X83480028Y-31019657D01*
X83444314Y-31055371D01*
X83372885Y-31091085D01*
X83087171Y-31091085D01*
X83087171Y-30341085D01*
X83337171Y-30341085D01*
X83408600Y-30376800D01*
X83444314Y-30412514D01*
X83480028Y-30483942D01*
X83480028Y-30555371D01*
X83444314Y-30626800D01*
X83408600Y-30662514D01*
X83337171Y-30698228D01*
X83087171Y-30698228D01*
D11*
X75555980Y-63491085D02*
X75173123Y-63491085D01*
X75364552Y-63491085D02*
X75364552Y-62741085D01*
X75300742Y-62848228D01*
X75236933Y-62919657D01*
X75173123Y-62955371D01*
X75970742Y-62741085D02*
X76034552Y-62741085D01*
X76098361Y-62776800D01*
X76130266Y-62812514D01*
X76162171Y-62883942D01*
X76194076Y-63026800D01*
X76194076Y-63205371D01*
X76162171Y-63348228D01*
X76130266Y-63419657D01*
X76098361Y-63455371D01*
X76034552Y-63491085D01*
X75970742Y-63491085D01*
X75906933Y-63455371D01*
X75875028Y-63419657D01*
X75843123Y-63348228D01*
X75811219Y-63205371D01*
X75811219Y-63026800D01*
X75843123Y-62883942D01*
X75875028Y-62812514D01*
X75906933Y-62776800D01*
X75970742Y-62741085D01*
X76959790Y-62705371D02*
X76385504Y-63669657D01*
X77406457Y-63098228D02*
X77502171Y-63133942D01*
X77534076Y-63169657D01*
X77565980Y-63241085D01*
X77565980Y-63348228D01*
X77534076Y-63419657D01*
X77502171Y-63455371D01*
X77438361Y-63491085D01*
X77183123Y-63491085D01*
X77183123Y-62741085D01*
X77406457Y-62741085D01*
X77470266Y-62776800D01*
X77502171Y-62812514D01*
X77534076Y-62883942D01*
X77534076Y-62955371D01*
X77502171Y-63026800D01*
X77470266Y-63062514D01*
X77406457Y-63098228D01*
X77183123Y-63098228D01*
X78140266Y-62741085D02*
X78012647Y-62741085D01*
X77948838Y-62776800D01*
X77916933Y-62812514D01*
X77853123Y-62919657D01*
X77821219Y-63062514D01*
X77821219Y-63348228D01*
X77853123Y-63419657D01*
X77885028Y-63455371D01*
X77948838Y-63491085D01*
X78076457Y-63491085D01*
X78140266Y-63455371D01*
X78172171Y-63419657D01*
X78204076Y-63348228D01*
X78204076Y-63169657D01*
X78172171Y-63098228D01*
X78140266Y-63062514D01*
X78076457Y-63026800D01*
X77948838Y-63026800D01*
X77885028Y-63062514D01*
X77853123Y-63098228D01*
X77821219Y-63169657D01*
X83499790Y-35591085D02*
X83499790Y-34841085D01*
X83659314Y-34841085D01*
X83755028Y-34876800D01*
X83818838Y-34948228D01*
X83850742Y-35019657D01*
X83882647Y-35162514D01*
X83882647Y-35269657D01*
X83850742Y-35412514D01*
X83818838Y-35483942D01*
X83755028Y-35555371D01*
X83659314Y-35591085D01*
X83499790Y-35591085D01*
X84105980Y-34841085D02*
X84520742Y-34841085D01*
X84297409Y-35126800D01*
X84393123Y-35126800D01*
X84456933Y-35162514D01*
X84488838Y-35198228D01*
X84520742Y-35269657D01*
X84520742Y-35448228D01*
X84488838Y-35519657D01*
X84456933Y-35555371D01*
X84393123Y-35591085D01*
X84201695Y-35591085D01*
X84137885Y-35555371D01*
X84105980Y-35519657D01*
X85286457Y-34805371D02*
X84712171Y-35769657D01*
X85414076Y-34841085D02*
X85796933Y-34841085D01*
X85605504Y-35591085D02*
X85605504Y-34841085D01*
X85956457Y-34841085D02*
X86403123Y-35591085D01*
X86403123Y-34841085D02*
X85956457Y-35591085D01*
X86785980Y-34841085D02*
X86849790Y-34841085D01*
X86913600Y-34876800D01*
X86945504Y-34912514D01*
X86977409Y-34983942D01*
X87009314Y-35126800D01*
X87009314Y-35305371D01*
X86977409Y-35448228D01*
X86945504Y-35519657D01*
X86913600Y-35555371D01*
X86849790Y-35591085D01*
X86785980Y-35591085D01*
X86722171Y-35555371D01*
X86690266Y-35519657D01*
X86658361Y-35448228D01*
X86626457Y-35305371D01*
X86626457Y-35126800D01*
X86658361Y-34983942D01*
X86690266Y-34912514D01*
X86722171Y-34876800D01*
X86785980Y-34841085D01*
X75252885Y-50576800D02*
X75571933Y-50576800D01*
X75189076Y-50791085D02*
X75412409Y-50041085D01*
X75635742Y-50791085D01*
X76210028Y-50791085D02*
X75827171Y-50791085D01*
X76018600Y-50791085D02*
X76018600Y-50041085D01*
X75954790Y-50148228D01*
X75890980Y-50219657D01*
X75827171Y-50255371D01*
X76975742Y-50005371D02*
X76401457Y-50969657D01*
X77422409Y-50398228D02*
X77199076Y-50398228D01*
X77199076Y-50791085D02*
X77199076Y-50041085D01*
X77518123Y-50041085D01*
X78060504Y-50041085D02*
X77932885Y-50041085D01*
X77869076Y-50076800D01*
X77837171Y-50112514D01*
X77773361Y-50219657D01*
X77741457Y-50362514D01*
X77741457Y-50648228D01*
X77773361Y-50719657D01*
X77805266Y-50755371D01*
X77869076Y-50791085D01*
X77996695Y-50791085D01*
X78060504Y-50755371D01*
X78092409Y-50719657D01*
X78124314Y-50648228D01*
X78124314Y-50469657D01*
X78092409Y-50398228D01*
X78060504Y-50362514D01*
X77996695Y-50326800D01*
X77869076Y-50326800D01*
X77805266Y-50362514D01*
X77773361Y-50398228D01*
X77741457Y-50469657D01*
X75555980Y-58441085D02*
X75173123Y-58441085D01*
X75364552Y-58441085D02*
X75364552Y-57691085D01*
X75300742Y-57798228D01*
X75236933Y-57869657D01*
X75173123Y-57905371D01*
X76130266Y-57941085D02*
X76130266Y-58441085D01*
X75970742Y-57655371D02*
X75811219Y-58191085D01*
X76225980Y-58191085D01*
X76959790Y-57655371D02*
X76385504Y-58619657D01*
X77406457Y-58048228D02*
X77502171Y-58083942D01*
X77534076Y-58119657D01*
X77565980Y-58191085D01*
X77565980Y-58298228D01*
X77534076Y-58369657D01*
X77502171Y-58405371D01*
X77438361Y-58441085D01*
X77183123Y-58441085D01*
X77183123Y-57691085D01*
X77406457Y-57691085D01*
X77470266Y-57726800D01*
X77502171Y-57762514D01*
X77534076Y-57833942D01*
X77534076Y-57905371D01*
X77502171Y-57976800D01*
X77470266Y-58012514D01*
X77406457Y-58048228D01*
X77183123Y-58048228D01*
X77789314Y-57691085D02*
X78204076Y-57691085D01*
X77980742Y-57976800D01*
X78076457Y-57976800D01*
X78140266Y-58012514D01*
X78172171Y-58048228D01*
X78204076Y-58119657D01*
X78204076Y-58298228D01*
X78172171Y-58369657D01*
X78140266Y-58405371D01*
X78076457Y-58441085D01*
X77885028Y-58441085D01*
X77821219Y-58405371D01*
X77789314Y-58369657D01*
X84624076Y-55741085D02*
X84624076Y-54991085D01*
X84783600Y-54991085D01*
X84879314Y-55026800D01*
X84943123Y-55098228D01*
X84975028Y-55169657D01*
X85006933Y-55312514D01*
X85006933Y-55419657D01*
X84975028Y-55562514D01*
X84943123Y-55633942D01*
X84879314Y-55705371D01*
X84783600Y-55741085D01*
X84624076Y-55741085D01*
X85230266Y-54991085D02*
X85676933Y-54991085D01*
X85389790Y-55741085D01*
X86410742Y-54955371D02*
X85836457Y-55919657D01*
X86921219Y-54991085D02*
X86793600Y-54991085D01*
X86729790Y-55026800D01*
X86697885Y-55062514D01*
X86634076Y-55169657D01*
X86602171Y-55312514D01*
X86602171Y-55598228D01*
X86634076Y-55669657D01*
X86665980Y-55705371D01*
X86729790Y-55741085D01*
X86857409Y-55741085D01*
X86921219Y-55705371D01*
X86953123Y-55669657D01*
X86985028Y-55598228D01*
X86985028Y-55419657D01*
X86953123Y-55348228D01*
X86921219Y-55312514D01*
X86857409Y-55276800D01*
X86729790Y-55276800D01*
X86665980Y-55312514D01*
X86634076Y-55348228D01*
X86602171Y-55419657D01*
X75252885Y-45576800D02*
X75571933Y-45576800D01*
X75189076Y-45791085D02*
X75412409Y-45041085D01*
X75635742Y-45791085D01*
X75795266Y-45041085D02*
X76210028Y-45041085D01*
X75986695Y-45326800D01*
X76082409Y-45326800D01*
X76146219Y-45362514D01*
X76178123Y-45398228D01*
X76210028Y-45469657D01*
X76210028Y-45648228D01*
X76178123Y-45719657D01*
X76146219Y-45755371D01*
X76082409Y-45791085D01*
X75890980Y-45791085D01*
X75827171Y-45755371D01*
X75795266Y-45719657D01*
X76975742Y-45005371D02*
X76401457Y-45969657D01*
X77422409Y-45398228D02*
X77199076Y-45398228D01*
X77199076Y-45791085D02*
X77199076Y-45041085D01*
X77518123Y-45041085D01*
X78060504Y-45291085D02*
X78060504Y-45791085D01*
X77900980Y-45005371D02*
X77741457Y-45541085D01*
X78156219Y-45541085D01*
D12*
X78587171Y-31091085D02*
X78587171Y-30341085D01*
X78837171Y-30876800D01*
X79087171Y-30341085D01*
X79087171Y-31091085D01*
X79444314Y-31091085D02*
X79444314Y-30591085D01*
X79444314Y-30341085D02*
X79408600Y-30376800D01*
X79444314Y-30412514D01*
X79480028Y-30376800D01*
X79444314Y-30341085D01*
X79444314Y-30412514D01*
X80122885Y-31055371D02*
X80051457Y-31091085D01*
X79908600Y-31091085D01*
X79837171Y-31055371D01*
X79801457Y-31019657D01*
X79765742Y-30948228D01*
X79765742Y-30733942D01*
X79801457Y-30662514D01*
X79837171Y-30626800D01*
X79908600Y-30591085D01*
X80051457Y-30591085D01*
X80122885Y-30626800D01*
X80444314Y-31091085D02*
X80444314Y-30591085D01*
X80444314Y-30733942D02*
X80480028Y-30662514D01*
X80515742Y-30626800D01*
X80587171Y-30591085D01*
X80658600Y-30591085D01*
X81015742Y-31091085D02*
X80944314Y-31055371D01*
X80908600Y-31019657D01*
X80872885Y-30948228D01*
X80872885Y-30733942D01*
X80908600Y-30662514D01*
X80944314Y-30626800D01*
X81015742Y-30591085D01*
X81122885Y-30591085D01*
X81194314Y-30626800D01*
X81230028Y-30662514D01*
X81265742Y-30733942D01*
X81265742Y-30948228D01*
X81230028Y-31019657D01*
X81194314Y-31055371D01*
X81122885Y-31091085D01*
X81015742Y-31091085D01*
X81587171Y-30341085D02*
X81587171Y-30948228D01*
X81622885Y-31019657D01*
X81658600Y-31055371D01*
X81730028Y-31091085D01*
X81872885Y-31091085D01*
X81944314Y-31055371D01*
X81980028Y-31019657D01*
X82015742Y-30948228D01*
X82015742Y-30341085D01*
X82337171Y-31055371D02*
X82444314Y-31091085D01*
X82622885Y-31091085D01*
X82694314Y-31055371D01*
X82730028Y-31019657D01*
X82765742Y-30948228D01*
X82765742Y-30876800D01*
X82730028Y-30805371D01*
X82694314Y-30769657D01*
X82622885Y-30733942D01*
X82480028Y-30698228D01*
X82408600Y-30662514D01*
X82372885Y-30626800D01*
X82337171Y-30555371D01*
X82337171Y-30483942D01*
X82372885Y-30412514D01*
X82408600Y-30376800D01*
X82480028Y-30341085D01*
X82658600Y-30341085D01*
X82765742Y-30376800D01*
X83337171Y-30698228D02*
X83444314Y-30733942D01*
X83480028Y-30769657D01*
X83515742Y-30841085D01*
X83515742Y-30948228D01*
X83480028Y-31019657D01*
X83444314Y-31055371D01*
X83372885Y-31091085D01*
X83087171Y-31091085D01*
X83087171Y-30341085D01*
X83337171Y-30341085D01*
X83408600Y-30376800D01*
X83444314Y-30412514D01*
X83480028Y-30483942D01*
X83480028Y-30555371D01*
X83444314Y-30626800D01*
X83408600Y-30662514D01*
X83337171Y-30698228D01*
X83087171Y-30698228D01*
D11*
X75721695Y-40641085D02*
X75498361Y-40283942D01*
X75338838Y-40641085D02*
X75338838Y-39891085D01*
X75594076Y-39891085D01*
X75657885Y-39926800D01*
X75689790Y-39962514D01*
X75721695Y-40033942D01*
X75721695Y-40141085D01*
X75689790Y-40212514D01*
X75657885Y-40248228D01*
X75594076Y-40283942D01*
X75338838Y-40283942D01*
X75976933Y-40605371D02*
X76072647Y-40641085D01*
X76232171Y-40641085D01*
X76295980Y-40605371D01*
X76327885Y-40569657D01*
X76359790Y-40498228D01*
X76359790Y-40426800D01*
X76327885Y-40355371D01*
X76295980Y-40319657D01*
X76232171Y-40283942D01*
X76104552Y-40248228D01*
X76040742Y-40212514D01*
X76008838Y-40176800D01*
X75976933Y-40105371D01*
X75976933Y-40033942D01*
X76008838Y-39962514D01*
X76040742Y-39926800D01*
X76104552Y-39891085D01*
X76264076Y-39891085D01*
X76359790Y-39926800D01*
X76551219Y-39891085D02*
X76934076Y-39891085D01*
X76742647Y-40641085D02*
X76742647Y-39891085D01*
X84655980Y-57898228D02*
X84879314Y-57898228D01*
X84975028Y-58291085D02*
X84655980Y-58291085D01*
X84655980Y-57541085D01*
X84975028Y-57541085D01*
X85549314Y-57541085D02*
X85421695Y-57541085D01*
X85357885Y-57576800D01*
X85325980Y-57612514D01*
X85262171Y-57719657D01*
X85230266Y-57862514D01*
X85230266Y-58148228D01*
X85262171Y-58219657D01*
X85294076Y-58255371D01*
X85357885Y-58291085D01*
X85485504Y-58291085D01*
X85549314Y-58255371D01*
X85581219Y-58219657D01*
X85613123Y-58148228D01*
X85613123Y-57969657D01*
X85581219Y-57898228D01*
X85549314Y-57862514D01*
X85485504Y-57826800D01*
X85357885Y-57826800D01*
X85294076Y-57862514D01*
X85262171Y-57898228D01*
X85230266Y-57969657D01*
X86378838Y-57505371D02*
X85804552Y-58469657D01*
X86538361Y-57541085D02*
X86985028Y-57541085D01*
X86697885Y-58291085D01*
X85006933Y-53119657D02*
X84975028Y-53155371D01*
X84879314Y-53191085D01*
X84815504Y-53191085D01*
X84719790Y-53155371D01*
X84655980Y-53083942D01*
X84624076Y-53012514D01*
X84592171Y-52869657D01*
X84592171Y-52762514D01*
X84624076Y-52619657D01*
X84655980Y-52548228D01*
X84719790Y-52476800D01*
X84815504Y-52441085D01*
X84879314Y-52441085D01*
X84975028Y-52476800D01*
X85006933Y-52512514D01*
X85581219Y-52441085D02*
X85453600Y-52441085D01*
X85389790Y-52476800D01*
X85357885Y-52512514D01*
X85294076Y-52619657D01*
X85262171Y-52762514D01*
X85262171Y-53048228D01*
X85294076Y-53119657D01*
X85325980Y-53155371D01*
X85389790Y-53191085D01*
X85517409Y-53191085D01*
X85581219Y-53155371D01*
X85613123Y-53119657D01*
X85645028Y-53048228D01*
X85645028Y-52869657D01*
X85613123Y-52798228D01*
X85581219Y-52762514D01*
X85517409Y-52726800D01*
X85389790Y-52726800D01*
X85325980Y-52762514D01*
X85294076Y-52798228D01*
X85262171Y-52869657D01*
X86410742Y-52405371D02*
X85836457Y-53369657D01*
X86953123Y-52441085D02*
X86634076Y-52441085D01*
X86602171Y-52798228D01*
X86634076Y-52762514D01*
X86697885Y-52726800D01*
X86857409Y-52726800D01*
X86921219Y-52762514D01*
X86953123Y-52798228D01*
X86985028Y-52869657D01*
X86985028Y-53048228D01*
X86953123Y-53119657D01*
X86921219Y-53155371D01*
X86857409Y-53191085D01*
X86697885Y-53191085D01*
X86634076Y-53155371D01*
X86602171Y-53119657D01*
X75555980Y-55891085D02*
X75173123Y-55891085D01*
X75364552Y-55891085D02*
X75364552Y-55141085D01*
X75300742Y-55248228D01*
X75236933Y-55319657D01*
X75173123Y-55355371D01*
X76162171Y-55141085D02*
X75843123Y-55141085D01*
X75811219Y-55498228D01*
X75843123Y-55462514D01*
X75906933Y-55426800D01*
X76066457Y-55426800D01*
X76130266Y-55462514D01*
X76162171Y-55498228D01*
X76194076Y-55569657D01*
X76194076Y-55748228D01*
X76162171Y-55819657D01*
X76130266Y-55855371D01*
X76066457Y-55891085D01*
X75906933Y-55891085D01*
X75843123Y-55855371D01*
X75811219Y-55819657D01*
X76959790Y-55105371D02*
X76385504Y-56069657D01*
X77406457Y-55498228D02*
X77502171Y-55533942D01*
X77534076Y-55569657D01*
X77565980Y-55641085D01*
X77565980Y-55748228D01*
X77534076Y-55819657D01*
X77502171Y-55855371D01*
X77438361Y-55891085D01*
X77183123Y-55891085D01*
X77183123Y-55141085D01*
X77406457Y-55141085D01*
X77470266Y-55176800D01*
X77502171Y-55212514D01*
X77534076Y-55283942D01*
X77534076Y-55355371D01*
X77502171Y-55426800D01*
X77470266Y-55462514D01*
X77406457Y-55498228D01*
X77183123Y-55498228D01*
X78204076Y-55891085D02*
X77821219Y-55891085D01*
X78012647Y-55891085D02*
X78012647Y-55141085D01*
X77948838Y-55248228D01*
X77885028Y-55319657D01*
X77821219Y-55355371D01*
X75555980Y-60991085D02*
X75173123Y-60991085D01*
X75364552Y-60991085D02*
X75364552Y-60241085D01*
X75300742Y-60348228D01*
X75236933Y-60419657D01*
X75173123Y-60455371D01*
X76130266Y-60241085D02*
X76002647Y-60241085D01*
X75938838Y-60276800D01*
X75906933Y-60312514D01*
X75843123Y-60419657D01*
X75811219Y-60562514D01*
X75811219Y-60848228D01*
X75843123Y-60919657D01*
X75875028Y-60955371D01*
X75938838Y-60991085D01*
X76066457Y-60991085D01*
X76130266Y-60955371D01*
X76162171Y-60919657D01*
X76194076Y-60848228D01*
X76194076Y-60669657D01*
X76162171Y-60598228D01*
X76130266Y-60562514D01*
X76066457Y-60526800D01*
X75938838Y-60526800D01*
X75875028Y-60562514D01*
X75843123Y-60598228D01*
X75811219Y-60669657D01*
X76959790Y-60205371D02*
X76385504Y-61169657D01*
X77406457Y-60598228D02*
X77502171Y-60633942D01*
X77534076Y-60669657D01*
X77565980Y-60741085D01*
X77565980Y-60848228D01*
X77534076Y-60919657D01*
X77502171Y-60955371D01*
X77438361Y-60991085D01*
X77183123Y-60991085D01*
X77183123Y-60241085D01*
X77406457Y-60241085D01*
X77470266Y-60276800D01*
X77502171Y-60312514D01*
X77534076Y-60383942D01*
X77534076Y-60455371D01*
X77502171Y-60526800D01*
X77470266Y-60562514D01*
X77406457Y-60598228D01*
X77183123Y-60598228D01*
X77821219Y-60312514D02*
X77853123Y-60276800D01*
X77916933Y-60241085D01*
X78076457Y-60241085D01*
X78140266Y-60276800D01*
X78172171Y-60312514D01*
X78204076Y-60383942D01*
X78204076Y-60455371D01*
X78172171Y-60562514D01*
X77789314Y-60991085D01*
X78204076Y-60991085D01*
X84847409Y-60448228D02*
X84943123Y-60483942D01*
X84975028Y-60519657D01*
X85006933Y-60591085D01*
X85006933Y-60698228D01*
X84975028Y-60769657D01*
X84943123Y-60805371D01*
X84879314Y-60841085D01*
X84624076Y-60841085D01*
X84624076Y-60091085D01*
X84847409Y-60091085D01*
X84911219Y-60126800D01*
X84943123Y-60162514D01*
X84975028Y-60233942D01*
X84975028Y-60305371D01*
X84943123Y-60376800D01*
X84911219Y-60412514D01*
X84847409Y-60448228D01*
X84624076Y-60448228D01*
X85581219Y-60341085D02*
X85581219Y-60841085D01*
X85421695Y-60055371D02*
X85262171Y-60591085D01*
X85676933Y-60591085D01*
X86410742Y-60055371D02*
X85836457Y-61019657D01*
X86729790Y-60412514D02*
X86665980Y-60376800D01*
X86634076Y-60341085D01*
X86602171Y-60269657D01*
X86602171Y-60233942D01*
X86634076Y-60162514D01*
X86665980Y-60126800D01*
X86729790Y-60091085D01*
X86857409Y-60091085D01*
X86921219Y-60126800D01*
X86953123Y-60162514D01*
X86985028Y-60233942D01*
X86985028Y-60269657D01*
X86953123Y-60341085D01*
X86921219Y-60376800D01*
X86857409Y-60412514D01*
X86729790Y-60412514D01*
X86665980Y-60448228D01*
X86634076Y-60483942D01*
X86602171Y-60555371D01*
X86602171Y-60698228D01*
X86634076Y-60769657D01*
X86665980Y-60805371D01*
X86729790Y-60841085D01*
X86857409Y-60841085D01*
X86921219Y-60805371D01*
X86953123Y-60769657D01*
X86985028Y-60698228D01*
X86985028Y-60555371D01*
X86953123Y-60483942D01*
X86921219Y-60448228D01*
X86857409Y-60412514D01*
X82050028Y-45605371D02*
X82145742Y-45641085D01*
X82305266Y-45641085D01*
X82369076Y-45605371D01*
X82400980Y-45569657D01*
X82432885Y-45498228D01*
X82432885Y-45426800D01*
X82400980Y-45355371D01*
X82369076Y-45319657D01*
X82305266Y-45283942D01*
X82177647Y-45248228D01*
X82113838Y-45212514D01*
X82081933Y-45176800D01*
X82050028Y-45105371D01*
X82050028Y-45033942D01*
X82081933Y-44962514D01*
X82113838Y-44926800D01*
X82177647Y-44891085D01*
X82337171Y-44891085D01*
X82432885Y-44926800D01*
X82720028Y-45641085D02*
X82720028Y-44891085D01*
X82879552Y-44891085D01*
X82975266Y-44926800D01*
X83039076Y-44998228D01*
X83070980Y-45069657D01*
X83102885Y-45212514D01*
X83102885Y-45319657D01*
X83070980Y-45462514D01*
X83039076Y-45533942D01*
X82975266Y-45605371D01*
X82879552Y-45641085D01*
X82720028Y-45641085D01*
X83358123Y-45426800D02*
X83677171Y-45426800D01*
X83294314Y-45641085D02*
X83517647Y-44891085D01*
X83740980Y-45641085D01*
X84442885Y-44855371D02*
X83868600Y-45819657D01*
X84666219Y-45641085D02*
X84666219Y-44891085D01*
X84825742Y-44891085D01*
X84921457Y-44926800D01*
X84985266Y-44998228D01*
X85017171Y-45069657D01*
X85049076Y-45212514D01*
X85049076Y-45319657D01*
X85017171Y-45462514D01*
X84985266Y-45533942D01*
X84921457Y-45605371D01*
X84825742Y-45641085D01*
X84666219Y-45641085D01*
X85687171Y-45641085D02*
X85304314Y-45641085D01*
X85495742Y-45641085D02*
X85495742Y-44891085D01*
X85431933Y-44998228D01*
X85368123Y-45069657D01*
X85304314Y-45105371D01*
X86452885Y-44855371D02*
X85878600Y-45819657D01*
X86644314Y-44962514D02*
X86676219Y-44926800D01*
X86740028Y-44891085D01*
X86899552Y-44891085D01*
X86963361Y-44926800D01*
X86995266Y-44962514D01*
X87027171Y-45033942D01*
X87027171Y-45105371D01*
X86995266Y-45212514D01*
X86612409Y-45641085D01*
X87027171Y-45641085D01*
X75252885Y-53126800D02*
X75571933Y-53126800D01*
X75189076Y-53341085D02*
X75412409Y-52591085D01*
X75635742Y-53341085D01*
X75986695Y-52591085D02*
X76050504Y-52591085D01*
X76114314Y-52626800D01*
X76146219Y-52662514D01*
X76178123Y-52733942D01*
X76210028Y-52876800D01*
X76210028Y-53055371D01*
X76178123Y-53198228D01*
X76146219Y-53269657D01*
X76114314Y-53305371D01*
X76050504Y-53341085D01*
X75986695Y-53341085D01*
X75922885Y-53305371D01*
X75890980Y-53269657D01*
X75859076Y-53198228D01*
X75827171Y-53055371D01*
X75827171Y-52876800D01*
X75859076Y-52733942D01*
X75890980Y-52662514D01*
X75922885Y-52626800D01*
X75986695Y-52591085D01*
X76975742Y-52555371D02*
X76401457Y-53519657D01*
X77422409Y-52948228D02*
X77199076Y-52948228D01*
X77199076Y-53341085D02*
X77199076Y-52591085D01*
X77518123Y-52591085D01*
X77709552Y-52591085D02*
X78156219Y-52591085D01*
X77869076Y-53341085D01*
X85528123Y-39976800D02*
X85464314Y-39941085D01*
X85368600Y-39941085D01*
X85272885Y-39976800D01*
X85209076Y-40048228D01*
X85177171Y-40119657D01*
X85145266Y-40262514D01*
X85145266Y-40369657D01*
X85177171Y-40512514D01*
X85209076Y-40583942D01*
X85272885Y-40655371D01*
X85368600Y-40691085D01*
X85432409Y-40691085D01*
X85528123Y-40655371D01*
X85560028Y-40619657D01*
X85560028Y-40369657D01*
X85432409Y-40369657D01*
X85847171Y-40691085D02*
X85847171Y-39941085D01*
X86230028Y-40691085D01*
X86230028Y-39941085D01*
X86549076Y-40691085D02*
X86549076Y-39941085D01*
X86708600Y-39941085D01*
X86804314Y-39976800D01*
X86868123Y-40048228D01*
X86900028Y-40119657D01*
X86931933Y-40262514D01*
X86931933Y-40369657D01*
X86900028Y-40512514D01*
X86868123Y-40583942D01*
X86804314Y-40655371D01*
X86708600Y-40691085D01*
X86549076Y-40691085D01*
X84847409Y-62948228D02*
X84943123Y-62983942D01*
X84975028Y-63019657D01*
X85006933Y-63091085D01*
X85006933Y-63198228D01*
X84975028Y-63269657D01*
X84943123Y-63305371D01*
X84879314Y-63341085D01*
X84624076Y-63341085D01*
X84624076Y-62591085D01*
X84847409Y-62591085D01*
X84911219Y-62626800D01*
X84943123Y-62662514D01*
X84975028Y-62733942D01*
X84975028Y-62805371D01*
X84943123Y-62876800D01*
X84911219Y-62912514D01*
X84847409Y-62948228D01*
X84624076Y-62948228D01*
X85613123Y-62591085D02*
X85294076Y-62591085D01*
X85262171Y-62948228D01*
X85294076Y-62912514D01*
X85357885Y-62876800D01*
X85517409Y-62876800D01*
X85581219Y-62912514D01*
X85613123Y-62948228D01*
X85645028Y-63019657D01*
X85645028Y-63198228D01*
X85613123Y-63269657D01*
X85581219Y-63305371D01*
X85517409Y-63341085D01*
X85357885Y-63341085D01*
X85294076Y-63305371D01*
X85262171Y-63269657D01*
X86410742Y-62555371D02*
X85836457Y-63519657D01*
X86665980Y-63341085D02*
X86793600Y-63341085D01*
X86857409Y-63305371D01*
X86889314Y-63269657D01*
X86953123Y-63162514D01*
X86985028Y-63019657D01*
X86985028Y-62733942D01*
X86953123Y-62662514D01*
X86921219Y-62626800D01*
X86857409Y-62591085D01*
X86729790Y-62591085D01*
X86665980Y-62626800D01*
X86634076Y-62662514D01*
X86602171Y-62733942D01*
X86602171Y-62912514D01*
X86634076Y-62983942D01*
X86665980Y-63019657D01*
X86729790Y-63055371D01*
X86857409Y-63055371D01*
X86921219Y-63019657D01*
X86953123Y-62983942D01*
X86985028Y-62912514D01*
X84624076Y-50641085D02*
X84624076Y-49891085D01*
X84783600Y-49891085D01*
X84879314Y-49926800D01*
X84943123Y-49998228D01*
X84975028Y-50069657D01*
X85006933Y-50212514D01*
X85006933Y-50319657D01*
X84975028Y-50462514D01*
X84943123Y-50533942D01*
X84879314Y-50605371D01*
X84783600Y-50641085D01*
X84624076Y-50641085D01*
X85581219Y-50141085D02*
X85581219Y-50641085D01*
X85421695Y-49855371D02*
X85262171Y-50391085D01*
X85676933Y-50391085D01*
X86410742Y-49855371D02*
X85836457Y-50819657D01*
X86921219Y-50141085D02*
X86921219Y-50641085D01*
X86761695Y-49855371D02*
X86602171Y-50391085D01*
X87016933Y-50391085D01*
X83420028Y-38141085D02*
X83420028Y-37391085D01*
X83579552Y-37391085D01*
X83675266Y-37426800D01*
X83739076Y-37498228D01*
X83770980Y-37569657D01*
X83802885Y-37712514D01*
X83802885Y-37819657D01*
X83770980Y-37962514D01*
X83739076Y-38033942D01*
X83675266Y-38105371D01*
X83579552Y-38141085D01*
X83420028Y-38141085D01*
X84058123Y-37462514D02*
X84090028Y-37426800D01*
X84153838Y-37391085D01*
X84313361Y-37391085D01*
X84377171Y-37426800D01*
X84409076Y-37462514D01*
X84440980Y-37533942D01*
X84440980Y-37605371D01*
X84409076Y-37712514D01*
X84026219Y-38141085D01*
X84440980Y-38141085D01*
X85206695Y-37355371D02*
X84632409Y-38319657D01*
X85812885Y-38141085D02*
X85589552Y-37783942D01*
X85430028Y-38141085D02*
X85430028Y-37391085D01*
X85685266Y-37391085D01*
X85749076Y-37426800D01*
X85780980Y-37462514D01*
X85812885Y-37533942D01*
X85812885Y-37641085D01*
X85780980Y-37712514D01*
X85749076Y-37748228D01*
X85685266Y-37783942D01*
X85430028Y-37783942D01*
X86036219Y-37391085D02*
X86482885Y-38141085D01*
X86482885Y-37391085D02*
X86036219Y-38141085D01*
X87089076Y-38141085D02*
X86706219Y-38141085D01*
X86897647Y-38141085D02*
X86897647Y-37391085D01*
X86833838Y-37498228D01*
X86770028Y-37569657D01*
X86706219Y-37605371D01*
X75625980Y-35541085D02*
X75402647Y-35183942D01*
X75243123Y-35541085D02*
X75243123Y-34791085D01*
X75498361Y-34791085D01*
X75562171Y-34826800D01*
X75594076Y-34862514D01*
X75625980Y-34933942D01*
X75625980Y-35041085D01*
X75594076Y-35112514D01*
X75562171Y-35148228D01*
X75498361Y-35183942D01*
X75243123Y-35183942D01*
X75881219Y-35326800D02*
X76200266Y-35326800D01*
X75817409Y-35541085D02*
X76040742Y-34791085D01*
X76264076Y-35541085D01*
X76423600Y-34791085D02*
X76583123Y-35541085D01*
X76710742Y-35005371D01*
X76838361Y-35541085D01*
X76997885Y-34791085D01*
X75578123Y-37376800D02*
X75514314Y-37341085D01*
X75418600Y-37341085D01*
X75322885Y-37376800D01*
X75259076Y-37448228D01*
X75227171Y-37519657D01*
X75195266Y-37662514D01*
X75195266Y-37769657D01*
X75227171Y-37912514D01*
X75259076Y-37983942D01*
X75322885Y-38055371D01*
X75418600Y-38091085D01*
X75482409Y-38091085D01*
X75578123Y-38055371D01*
X75610028Y-38019657D01*
X75610028Y-37769657D01*
X75482409Y-37769657D01*
X75897171Y-38091085D02*
X75897171Y-37341085D01*
X76280028Y-38091085D01*
X76280028Y-37341085D01*
X76599076Y-38091085D02*
X76599076Y-37341085D01*
X76758600Y-37341085D01*
X76854314Y-37376800D01*
X76918123Y-37448228D01*
X76950028Y-37519657D01*
X76981933Y-37662514D01*
X76981933Y-37769657D01*
X76950028Y-37912514D01*
X76918123Y-37983942D01*
X76854314Y-38055371D01*
X76758600Y-38091085D01*
X76599076Y-38091085D01*
X85528123Y-42426800D02*
X85464314Y-42391085D01*
X85368600Y-42391085D01*
X85272885Y-42426800D01*
X85209076Y-42498228D01*
X85177171Y-42569657D01*
X85145266Y-42712514D01*
X85145266Y-42819657D01*
X85177171Y-42962514D01*
X85209076Y-43033942D01*
X85272885Y-43105371D01*
X85368600Y-43141085D01*
X85432409Y-43141085D01*
X85528123Y-43105371D01*
X85560028Y-43069657D01*
X85560028Y-42819657D01*
X85432409Y-42819657D01*
X85847171Y-43141085D02*
X85847171Y-42391085D01*
X86230028Y-43141085D01*
X86230028Y-42391085D01*
X86549076Y-43141085D02*
X86549076Y-42391085D01*
X86708600Y-42391085D01*
X86804314Y-42426800D01*
X86868123Y-42498228D01*
X86900028Y-42569657D01*
X86931933Y-42712514D01*
X86931933Y-42819657D01*
X86900028Y-42962514D01*
X86868123Y-43033942D01*
X86804314Y-43105371D01*
X86708600Y-43141085D01*
X86549076Y-43141085D01*
D10*
X80933600Y-29301800D02*
X81233600Y-29301800D01*
X80733600Y-29001800D02*
X81433600Y-29001800D01*
X77333600Y-28501800D02*
X77333600Y-29801800D01*
X89833600Y-63451800D02*
X89833600Y-64301800D01*
X81583600Y-28851800D02*
X81083600Y-29501800D01*
X81083600Y-29501800D02*
X80583600Y-28851800D01*
X72333600Y-34101800D02*
X73183600Y-34101800D01*
X84833600Y-29801800D02*
X84833600Y-28501800D01*
X80583600Y-28851800D02*
X81583600Y-28851800D01*
X89833600Y-34101800D02*
X89033600Y-34101800D01*
X72333600Y-34101800D02*
X72333600Y-34951800D01*
X89833600Y-34101800D02*
X89833600Y-34951800D01*
X80833600Y-29151800D02*
X81333600Y-29151800D01*
X89833600Y-64301800D02*
X88973600Y-64301800D01*
X72333600Y-64301800D02*
X73183600Y-64301800D01*
X72333600Y-63401800D02*
X72333600Y-64301800D01*
X77333600Y-29801800D02*
X84833600Y-29801800D01*
X84833600Y-28501800D02*
X77333600Y-28501800D01*
G36*
X161643125Y-50389454D02*
G01*
X162154025Y-49700549D01*
X162846947Y-49094389D01*
X163716804Y-48574463D01*
X164758513Y-48144262D01*
X165055331Y-48048013D01*
X165410022Y-47943277D01*
X165717494Y-47868241D01*
X166023963Y-47817957D01*
X166375644Y-47787479D01*
X166818749Y-47771859D01*
X167399494Y-47766150D01*
X167694200Y-47765519D01*
X168368442Y-47768271D01*
X168885276Y-47780847D01*
X169290413Y-47807383D01*
X169629566Y-47852014D01*
X169948446Y-47918874D01*
X170234200Y-47995274D01*
X171267986Y-48354369D01*
X172170444Y-48800746D01*
X172924359Y-49322623D01*
X173512517Y-49908220D01*
X173896563Y-50501541D01*
X173980162Y-50677294D01*
X174044437Y-50839019D01*
X174092133Y-51015876D01*
X174125994Y-51237025D01*
X174148765Y-51531624D01*
X174163190Y-51928834D01*
X174172012Y-52457813D01*
X174177977Y-53147722D01*
X174180458Y-53518054D01*
X174196600Y-55987300D01*
X173912705Y-56565412D01*
X173488178Y-57212293D01*
X172886932Y-57804128D01*
X172131579Y-58325354D01*
X171244727Y-58760408D01*
X170248986Y-59093724D01*
X170234200Y-59097642D01*
X169514537Y-59239476D01*
X168670904Y-59328954D01*
X167773125Y-59364507D01*
X166891027Y-59344565D01*
X166094433Y-59267561D01*
X165713000Y-59199211D01*
X164536041Y-58868170D01*
X163524806Y-58429015D01*
X162682613Y-57883425D01*
X162157094Y-57398034D01*
X161925606Y-57140048D01*
X161743107Y-56906999D01*
X161603766Y-56670799D01*
X161501750Y-56403362D01*
X161431228Y-56076600D01*
X161386369Y-55662428D01*
X161361342Y-55132758D01*
X161360176Y-55061540D01*
X162868200Y-55061540D01*
X162937361Y-55614330D01*
X163159062Y-56087371D01*
X163554626Y-56519972D01*
X163741813Y-56671942D01*
X164211624Y-56966192D01*
X164813228Y-57249084D01*
X165476019Y-57491239D01*
X166119400Y-57661235D01*
X166391994Y-57694026D01*
X166814010Y-57717170D01*
X167331822Y-57728841D01*
X167891800Y-57727213D01*
X167999000Y-57725240D01*
X168610405Y-57707529D01*
X169074108Y-57678993D01*
X169445579Y-57632022D01*
X169780290Y-57559006D01*
X170133712Y-57452334D01*
X170234200Y-57418595D01*
X171056005Y-57084185D01*
X171719462Y-56697767D01*
X172205274Y-56271095D01*
X172293256Y-56164057D01*
X172465954Y-55880912D01*
X172562255Y-55551582D01*
X172603746Y-55169384D01*
X172644570Y-54528262D01*
X171845785Y-54925830D01*
X171170907Y-55236164D01*
X170538305Y-55464177D01*
X169895125Y-55620946D01*
X169188514Y-55717548D01*
X168365616Y-55765060D01*
X167795800Y-55774601D01*
X166856672Y-55759476D01*
X166062242Y-55694576D01*
X165357694Y-55568666D01*
X164688214Y-55370508D01*
X163998988Y-55088867D01*
X163655600Y-54925915D01*
X162868200Y-54539009D01*
X162868200Y-55061540D01*
X161360176Y-55061540D01*
X161351618Y-54539009D01*
X161350315Y-54459503D01*
X161347456Y-53614576D01*
X161347384Y-53498100D01*
X161346588Y-51883779D01*
X162888293Y-51883779D01*
X163037001Y-52324643D01*
X163350026Y-52755547D01*
X163808590Y-53159917D01*
X164393914Y-53521178D01*
X165087221Y-53822752D01*
X165865400Y-54047106D01*
X166526398Y-54146762D01*
X167305099Y-54189731D01*
X168136647Y-54178645D01*
X168956186Y-54116139D01*
X169698861Y-54004847D01*
X170234200Y-53869670D01*
X171043794Y-53547750D01*
X171687829Y-53171410D01*
X172161786Y-52753157D01*
X172461147Y-52305497D01*
X172581396Y-51840935D01*
X172518013Y-51371979D01*
X172266480Y-50911134D01*
X171822281Y-50470907D01*
X171535295Y-50268028D01*
X171195415Y-50080538D01*
X170750457Y-49874689D01*
X170289705Y-49691402D01*
X170234200Y-49671679D01*
X169917576Y-49565210D01*
X169643929Y-49489291D01*
X169368492Y-49438853D01*
X169046498Y-49408827D01*
X168633181Y-49394141D01*
X168083773Y-49389727D01*
X167745000Y-49389787D01*
X167105013Y-49393080D01*
X166622828Y-49404294D01*
X166253067Y-49428438D01*
X165950353Y-49470522D01*
X165669309Y-49535559D01*
X165364557Y-49628557D01*
X165255800Y-49664645D01*
X164460839Y-49988252D01*
X163806108Y-50373566D01*
X163310165Y-50806392D01*
X162991564Y-51272534D01*
X162922679Y-51449533D01*
X162888293Y-51883779D01*
X161346588Y-51883779D01*
X161346106Y-50907300D01*
X161643125Y-50389454D01*
G37*
D13*
X161643125Y-50389454D02*
X162154025Y-49700549D01*
X162846947Y-49094389D01*
X163716804Y-48574463D01*
X164758513Y-48144262D01*
X165055331Y-48048013D01*
X165410022Y-47943277D01*
X165717494Y-47868241D01*
X166023963Y-47817957D01*
X166375644Y-47787479D01*
X166818749Y-47771859D01*
X167399494Y-47766150D01*
X167694200Y-47765519D01*
X168368442Y-47768271D01*
X168885276Y-47780847D01*
X169290413Y-47807383D01*
X169629566Y-47852014D01*
X169948446Y-47918874D01*
X170234200Y-47995274D01*
X171267986Y-48354369D01*
X172170444Y-48800746D01*
X172924359Y-49322623D01*
X173512517Y-49908220D01*
X173896563Y-50501541D01*
X173980162Y-50677294D01*
X174044437Y-50839019D01*
X174092133Y-51015876D01*
X174125994Y-51237025D01*
X174148765Y-51531624D01*
X174163190Y-51928834D01*
X174172012Y-52457813D01*
X174177977Y-53147722D01*
X174180458Y-53518054D01*
X174196600Y-55987300D01*
X173912705Y-56565412D01*
X173488178Y-57212293D01*
X172886932Y-57804128D01*
X172131579Y-58325354D01*
X171244727Y-58760408D01*
X170248986Y-59093724D01*
X170234200Y-59097642D01*
X169514537Y-59239476D01*
X168670904Y-59328954D01*
X167773125Y-59364507D01*
X166891027Y-59344565D01*
X166094433Y-59267561D01*
X165713000Y-59199211D01*
X164536041Y-58868170D01*
X163524806Y-58429015D01*
X162682613Y-57883425D01*
X162157094Y-57398034D01*
X161925606Y-57140048D01*
X161743107Y-56906999D01*
X161603766Y-56670799D01*
X161501750Y-56403362D01*
X161431228Y-56076600D01*
X161386369Y-55662428D01*
X161361342Y-55132758D01*
X161360176Y-55061540D01*
X162868200Y-55061540D01*
X162937361Y-55614330D01*
X163159062Y-56087371D01*
X163554626Y-56519972D01*
X163741813Y-56671942D01*
X164211624Y-56966192D01*
X164813228Y-57249084D01*
X165476019Y-57491239D01*
X166119400Y-57661235D01*
X166391994Y-57694026D01*
X166814010Y-57717170D01*
X167331822Y-57728841D01*
X167891800Y-57727213D01*
X167999000Y-57725240D01*
X168610405Y-57707529D01*
X169074108Y-57678993D01*
X169445579Y-57632022D01*
X169780290Y-57559006D01*
X170133712Y-57452334D01*
X170234200Y-57418595D01*
X171056005Y-57084185D01*
X171719462Y-56697767D01*
X172205274Y-56271095D01*
X172293256Y-56164057D01*
X172465954Y-55880912D01*
X172562255Y-55551582D01*
X172603746Y-55169384D01*
X172644570Y-54528262D01*
X171845785Y-54925830D01*
X171170907Y-55236164D01*
X170538305Y-55464177D01*
X169895125Y-55620946D01*
X169188514Y-55717548D01*
X168365616Y-55765060D01*
X167795800Y-55774601D01*
X166856672Y-55759476D01*
X166062242Y-55694576D01*
X165357694Y-55568666D01*
X164688214Y-55370508D01*
X163998988Y-55088867D01*
X163655600Y-54925915D01*
X162868200Y-54539009D01*
X162868200Y-55061540D01*
X161360176Y-55061540D01*
X161351618Y-54539009D01*
X161350315Y-54459503D01*
X161347456Y-53614576D01*
X161347384Y-53498100D01*
X161346588Y-51883779D01*
X162888293Y-51883779D01*
X163037001Y-52324643D01*
X163350026Y-52755547D01*
X163808590Y-53159917D01*
X164393914Y-53521178D01*
X165087221Y-53822752D01*
X165865400Y-54047106D01*
X166526398Y-54146762D01*
X167305099Y-54189731D01*
X168136647Y-54178645D01*
X168956186Y-54116139D01*
X169698861Y-54004847D01*
X170234200Y-53869670D01*
X171043794Y-53547750D01*
X171687829Y-53171410D01*
X172161786Y-52753157D01*
X172461147Y-52305497D01*
X172581396Y-51840935D01*
X172518013Y-51371979D01*
X172266480Y-50911134D01*
X171822281Y-50470907D01*
X171535295Y-50268028D01*
X171195415Y-50080538D01*
X170750457Y-49874689D01*
X170289705Y-49691402D01*
X170234200Y-49671679D01*
X169917576Y-49565210D01*
X169643929Y-49489291D01*
X169368492Y-49438853D01*
X169046498Y-49408827D01*
X168633181Y-49394141D01*
X168083773Y-49389727D01*
X167745000Y-49389787D01*
X167105013Y-49393080D01*
X166622828Y-49404294D01*
X166253067Y-49428438D01*
X165950353Y-49470522D01*
X165669309Y-49535559D01*
X165364557Y-49628557D01*
X165255800Y-49664645D01*
X164460839Y-49988252D01*
X163806108Y-50373566D01*
X163310165Y-50806392D01*
X162991564Y-51272534D01*
X162922679Y-51449533D01*
X162888293Y-51883779D01*
X161346588Y-51883779D01*
X161346106Y-50907300D01*
X161643125Y-50389454D01*
G36*
X162917153Y-82840302D02*
G01*
X162040295Y-82333021D01*
X161045614Y-81757857D01*
X159952512Y-81126021D01*
X158780390Y-80448724D01*
X157548648Y-79737176D01*
X156276687Y-79002590D01*
X154983909Y-78256176D01*
X153689713Y-77509144D01*
X152708200Y-76942741D01*
X151131375Y-76032852D01*
X149720998Y-75218830D01*
X148467476Y-74495048D01*
X147361219Y-73855879D01*
X146392636Y-73295698D01*
X145552136Y-72808878D01*
X144830127Y-72389793D01*
X144217018Y-72032816D01*
X143703219Y-71732320D01*
X143279138Y-71482680D01*
X142935184Y-71278268D01*
X142661766Y-71113459D01*
X142449293Y-70982626D01*
X142288173Y-70880143D01*
X142168817Y-70800383D01*
X142081632Y-70737719D01*
X142017028Y-70686526D01*
X141965413Y-70641177D01*
X141964000Y-70639880D01*
X141735399Y-70429879D01*
X141735400Y-60000500D01*
X141735400Y-51271453D01*
X143361000Y-51271453D01*
X143364304Y-60487376D01*
X143367608Y-69703300D01*
X148306844Y-72548100D01*
X149259994Y-73097107D01*
X150359149Y-73730268D01*
X151574259Y-74430268D01*
X152875275Y-75179796D01*
X154232148Y-75961538D01*
X155614828Y-76758183D01*
X156993266Y-77552417D01*
X158337412Y-78326927D01*
X159617217Y-79064402D01*
X160063740Y-79321717D01*
X166881400Y-83250534D01*
X166907344Y-74093489D01*
X166911444Y-72457220D01*
X166913829Y-71013559D01*
X166914383Y-69751918D01*
X166912990Y-68661713D01*
X166909534Y-67732357D01*
X166903900Y-66953263D01*
X166895971Y-66313846D01*
X166885631Y-65803519D01*
X166872764Y-65411696D01*
X166857254Y-65127791D01*
X166838986Y-64941217D01*
X166817842Y-64841389D01*
X166805744Y-64820310D01*
X166677061Y-64732263D01*
X166404475Y-64564492D01*
X166021212Y-64336838D01*
X165560504Y-64069145D01*
X165255800Y-63894760D01*
X164939136Y-63713784D01*
X164463561Y-63440903D01*
X163846077Y-63085915D01*
X163103688Y-62658620D01*
X162253397Y-62168815D01*
X161312210Y-61626299D01*
X160297128Y-61040872D01*
X159225157Y-60422331D01*
X158113300Y-59780476D01*
X156978561Y-59125105D01*
X156823000Y-59035236D01*
X155626490Y-58344070D01*
X154406000Y-57639226D01*
X153184176Y-56933771D01*
X151983662Y-56240772D01*
X150827103Y-55573297D01*
X149737145Y-54944414D01*
X148736432Y-54367191D01*
X147847611Y-53854695D01*
X147093325Y-53419995D01*
X146586800Y-53128290D01*
X143361000Y-51271453D01*
X141735400Y-51271453D01*
X141735400Y-49857314D01*
X144276623Y-49857314D01*
X144361796Y-49919436D01*
X144607084Y-50073313D01*
X144996434Y-50309434D01*
X145513791Y-50618288D01*
X146143102Y-50990366D01*
X146868312Y-51416156D01*
X147673368Y-51886149D01*
X148542216Y-52390834D01*
X149025200Y-52670356D01*
X151427729Y-54058891D01*
X153656462Y-55346668D01*
X155713396Y-56534839D01*
X157600533Y-57624555D01*
X159319871Y-58616969D01*
X160873412Y-59513232D01*
X162263153Y-60314497D01*
X163491096Y-61021914D01*
X164559239Y-61636636D01*
X165469583Y-62159814D01*
X166224127Y-62592601D01*
X166824871Y-62936148D01*
X167273816Y-63191607D01*
X167572959Y-63360129D01*
X167724302Y-63442867D01*
X167745000Y-63452449D01*
X167837512Y-63402650D01*
X168095669Y-63257069D01*
X168509192Y-63021617D01*
X169067802Y-62702202D01*
X169761221Y-62304735D01*
X170579170Y-61835124D01*
X171511370Y-61299280D01*
X172547542Y-60703111D01*
X173677407Y-60052529D01*
X174890687Y-59353441D01*
X176177103Y-58611759D01*
X177526376Y-57833390D01*
X178928226Y-57024246D01*
X179476399Y-56707724D01*
X180895739Y-55887571D01*
X182266077Y-55094711D01*
X183577150Y-54335132D01*
X184818693Y-53614823D01*
X185980443Y-52939774D01*
X187052136Y-52315974D01*
X188023507Y-51749412D01*
X188884294Y-51246077D01*
X189624232Y-50811957D01*
X190233058Y-50453043D01*
X190700507Y-50175324D01*
X191016315Y-49984787D01*
X191170220Y-49887423D01*
X191184118Y-49876100D01*
X191109243Y-49800207D01*
X190884730Y-49643012D01*
X190538349Y-49422291D01*
X190097871Y-49155819D01*
X189663518Y-48902780D01*
X188115800Y-48015861D01*
X188004897Y-48445580D01*
X187772733Y-49095436D01*
X187416600Y-49671225D01*
X186900305Y-50230740D01*
X186868088Y-50260759D01*
X186239161Y-50750738D01*
X185480331Y-51195324D01*
X184664808Y-51555138D01*
X184153400Y-51720973D01*
X183651937Y-51820845D01*
X183004524Y-51894639D01*
X182266893Y-51941069D01*
X181494777Y-51958850D01*
X180743907Y-51946698D01*
X180070016Y-51903326D01*
X179529517Y-51827590D01*
X178488181Y-51547645D01*
X177546182Y-51156485D01*
X176724668Y-50668204D01*
X176044788Y-50096897D01*
X175527691Y-49456662D01*
X175283415Y-48997519D01*
X175239392Y-48801036D01*
X175205583Y-48436128D01*
X175181628Y-47894358D01*
X175173237Y-47472405D01*
X176685565Y-47472405D01*
X176690588Y-47753458D01*
X176720371Y-48060714D01*
X176771868Y-48336122D01*
X176829129Y-48499345D01*
X177171481Y-48958244D01*
X177686542Y-49382147D01*
X178344735Y-49755305D01*
X179116480Y-50061967D01*
X179972201Y-50286383D01*
X180292600Y-50343611D01*
X180836862Y-50394132D01*
X181498630Y-50403555D01*
X182202577Y-50375347D01*
X182873377Y-50312974D01*
X183435701Y-50219903D01*
X183543800Y-50193994D01*
X184304095Y-49947766D01*
X184996715Y-49629318D01*
X185586666Y-49260095D01*
X186038957Y-48861541D01*
X186292190Y-48509663D01*
X186361188Y-48300302D01*
X186410621Y-48011557D01*
X186437297Y-47701577D01*
X186438026Y-47428505D01*
X186409616Y-47250488D01*
X186363200Y-47215833D01*
X186242163Y-47273569D01*
X185986800Y-47397555D01*
X185645158Y-47564433D01*
X185525000Y-47623303D01*
X184440411Y-48051356D01*
X183250246Y-48332978D01*
X181996500Y-48461425D01*
X180721170Y-48429952D01*
X180584373Y-48416749D01*
X179805884Y-48316472D01*
X179119488Y-48178290D01*
X178465277Y-47983465D01*
X177783345Y-47713256D01*
X177013784Y-47348925D01*
X176762000Y-47221104D01*
X176708353Y-47275604D01*
X176685565Y-47472405D01*
X175173237Y-47472405D01*
X175167168Y-47167292D01*
X175161843Y-46246494D01*
X175161800Y-46143299D01*
X175162917Y-45289889D01*
X175171427Y-44610276D01*
X175180497Y-44404900D01*
X176685800Y-44404900D01*
X176783828Y-44852199D01*
X177063673Y-45288432D01*
X177503972Y-45699485D01*
X178083366Y-46071248D01*
X178780493Y-46389609D01*
X179573992Y-46640457D01*
X180292600Y-46787611D01*
X180836862Y-46838132D01*
X181498630Y-46847555D01*
X182202577Y-46819347D01*
X182873377Y-46756974D01*
X183435701Y-46663903D01*
X183543800Y-46637994D01*
X184337020Y-46382183D01*
X185034385Y-46058400D01*
X185614598Y-45683066D01*
X186056364Y-45272606D01*
X186338387Y-44843443D01*
X186439372Y-44411999D01*
X186439400Y-44404900D01*
X186341611Y-43965191D01*
X186062686Y-43529437D01*
X185624284Y-43114395D01*
X185048064Y-42736820D01*
X184355685Y-42413470D01*
X183568808Y-42161101D01*
X183524679Y-42149976D01*
X182957865Y-42051543D01*
X182259893Y-41994266D01*
X181498583Y-41978099D01*
X180741754Y-42002993D01*
X180057227Y-42068901D01*
X179600520Y-42152760D01*
X178814124Y-42396754D01*
X178118589Y-42713930D01*
X177535979Y-43087241D01*
X177088356Y-43499639D01*
X176797784Y-43934078D01*
X176686324Y-44373508D01*
X176685800Y-44404900D01*
X175180497Y-44404900D01*
X175195065Y-44075057D01*
X175241566Y-43654829D01*
X175318664Y-43320190D01*
X175434096Y-43041738D01*
X175595596Y-42790068D01*
X175810900Y-42535780D01*
X176087742Y-42249469D01*
X176221460Y-42115368D01*
X176490346Y-41837181D01*
X176686267Y-41617280D01*
X176778515Y-41490867D01*
X176780260Y-41474868D01*
X176661505Y-41397981D01*
X176408020Y-41246678D01*
X176062606Y-41045400D01*
X175668064Y-40818589D01*
X175267195Y-40590686D01*
X174902800Y-40386133D01*
X174617681Y-40229371D01*
X174454639Y-40144841D01*
X174440570Y-40138801D01*
X174359573Y-40136106D01*
X174302575Y-40223918D01*
X174260044Y-40436227D01*
X174222449Y-40807023D01*
X174210253Y-40960158D01*
X174113856Y-41691597D01*
X173934950Y-42285167D01*
X173650051Y-42797439D01*
X173252064Y-43268283D01*
X172481764Y-43925055D01*
X171590411Y-44439374D01*
X170570815Y-44813473D01*
X169415787Y-45049585D01*
X168118137Y-45149942D01*
X167211244Y-45144020D01*
X166596806Y-45117838D01*
X166126911Y-45082857D01*
X165742905Y-45029954D01*
X165386129Y-44950008D01*
X164997930Y-44833899D01*
X164804107Y-44769696D01*
X163868963Y-44401288D01*
X163094094Y-43973866D01*
X162439744Y-43464170D01*
X162237935Y-43268283D01*
X161828324Y-42780828D01*
X161547395Y-42266730D01*
X161371665Y-41669420D01*
X161279746Y-40960158D01*
X161270653Y-40858142D01*
X162868200Y-40858142D01*
X162920391Y-41396777D01*
X163098477Y-41828188D01*
X163434720Y-42223324D01*
X163527160Y-42307207D01*
X164203136Y-42778069D01*
X165023627Y-43146886D01*
X165954306Y-43408084D01*
X166960847Y-43556088D01*
X168008925Y-43585323D01*
X169064214Y-43490215D01*
X169843457Y-43332992D01*
X170615086Y-43085219D01*
X171298249Y-42764516D01*
X171862787Y-42390203D01*
X172278541Y-41981599D01*
X172484533Y-41641150D01*
X172552256Y-41403178D01*
X172599654Y-41097447D01*
X172622765Y-40786502D01*
X172617626Y-40532887D01*
X172580275Y-40399148D01*
X172563691Y-40391700D01*
X172449197Y-40438761D01*
X172223477Y-40558422D01*
X172081091Y-40639734D01*
X171794909Y-40783355D01*
X171384127Y-40960170D01*
X170917633Y-41141302D01*
X170691400Y-41222255D01*
X170355376Y-41337095D01*
X170078467Y-41422087D01*
X169821104Y-41481722D01*
X169543718Y-41520493D01*
X169206741Y-41542892D01*
X168770606Y-41553411D01*
X168195743Y-41556541D01*
X167745000Y-41556742D01*
X167062161Y-41555930D01*
X166542901Y-41550515D01*
X166147596Y-41536026D01*
X165836626Y-41507992D01*
X165570367Y-41461944D01*
X165309199Y-41393410D01*
X165013498Y-41297920D01*
X164798600Y-41224305D01*
X164319621Y-41045687D01*
X163853718Y-40848705D01*
X163474608Y-40665392D01*
X163350800Y-40595181D01*
X162868200Y-40298493D01*
X162868200Y-40858142D01*
X161270653Y-40858142D01*
X161241654Y-40532824D01*
X161201517Y-40274702D01*
X161149893Y-40151940D01*
X161077337Y-40130683D01*
X161050626Y-40138827D01*
X160904986Y-40211410D01*
X160623068Y-40365202D01*
X160243826Y-40578532D01*
X159806213Y-40829730D01*
X159750010Y-40862329D01*
X158610627Y-41523961D01*
X158984658Y-41846830D01*
X159521665Y-42360421D01*
X159921593Y-42867012D01*
X160099600Y-43160197D01*
X160169816Y-43295043D01*
X160223968Y-43432446D01*
X160264136Y-43599637D01*
X160292405Y-43823850D01*
X160310856Y-44132316D01*
X160321573Y-44552270D01*
X160326638Y-45110942D01*
X160328134Y-45835565D01*
X160328200Y-46149187D01*
X160326261Y-47023422D01*
X160315777Y-47722683D01*
X160289742Y-48275189D01*
X160241154Y-48709159D01*
X160163009Y-49052813D01*
X160048302Y-49334371D01*
X159890031Y-49582052D01*
X159681191Y-49824075D01*
X159414778Y-50088660D01*
X159330495Y-50169124D01*
X158776277Y-50647269D01*
X158204634Y-51027495D01*
X157550334Y-51347987D01*
X156885998Y-51600051D01*
X156528153Y-51717765D01*
X156212393Y-51802591D01*
X155889650Y-51861424D01*
X155510855Y-51901163D01*
X155026941Y-51928703D01*
X154389757Y-51950914D01*
X153485816Y-51964051D01*
X152734252Y-51939653D01*
X152086660Y-51871447D01*
X151494635Y-51753162D01*
X150909773Y-51578525D01*
X150574600Y-51456560D01*
X149604463Y-51003432D01*
X148800637Y-50452956D01*
X148168994Y-49810855D01*
X147715404Y-49082857D01*
X147484918Y-48443407D01*
X147373833Y-48011514D01*
X145825840Y-48900607D01*
X145324587Y-49192123D01*
X144890864Y-49451278D01*
X144553015Y-49660569D01*
X144339384Y-49802492D01*
X144276623Y-49857314D01*
X141735400Y-49857314D01*
X141735400Y-49571120D01*
X141964000Y-49361107D01*
X142107898Y-49258085D01*
X142402246Y-49069599D01*
X142821107Y-48811074D01*
X143338547Y-48497935D01*
X143928629Y-48145607D01*
X144565418Y-47769516D01*
X145075278Y-47471436D01*
X149051080Y-47471436D01*
X149058503Y-47752177D01*
X149092295Y-48059474D01*
X149149592Y-48335453D01*
X149187468Y-48446763D01*
X149478204Y-48898140D01*
X149945569Y-49317220D01*
X150563876Y-49690641D01*
X151307437Y-50005042D01*
X152150567Y-50247060D01*
X152911400Y-50383902D01*
X153310676Y-50409413D01*
X153844020Y-50405828D01*
X154445036Y-50377278D01*
X155047326Y-50327896D01*
X155584495Y-50261815D01*
X155941494Y-50195317D01*
X156697268Y-49960727D01*
X157388633Y-49641092D01*
X157978667Y-49259355D01*
X158430448Y-48838461D01*
X158658377Y-48506980D01*
X158726899Y-48298359D01*
X158775871Y-48010108D01*
X158802149Y-47700483D01*
X158802594Y-47427742D01*
X158774064Y-47250143D01*
X158728000Y-47215833D01*
X158606963Y-47273569D01*
X158351600Y-47397555D01*
X158009958Y-47564433D01*
X157889800Y-47623303D01*
X157362404Y-47869280D01*
X156888661Y-48054894D01*
X156424779Y-48188330D01*
X155926969Y-48277773D01*
X155351437Y-48331407D01*
X154654394Y-48357419D01*
X153927400Y-48363933D01*
X153075405Y-48356410D01*
X152375335Y-48323173D01*
X151776370Y-48252124D01*
X151227691Y-48131167D01*
X150678479Y-47948202D01*
X150077914Y-47691132D01*
X149375177Y-47347858D01*
X149126800Y-47221104D01*
X149072891Y-47275121D01*
X149051080Y-47471436D01*
X145075278Y-47471436D01*
X145222979Y-47385086D01*
X145875376Y-47007742D01*
X146496673Y-46652910D01*
X146891496Y-46430485D01*
X147424793Y-46132100D01*
X147425485Y-45370100D01*
X147460260Y-44564805D01*
X147482159Y-44404900D01*
X149050600Y-44404900D01*
X149148355Y-44841298D01*
X149426578Y-45271070D01*
X149862707Y-45679321D01*
X150434176Y-46051158D01*
X151118424Y-46371689D01*
X151892886Y-46626020D01*
X152661029Y-46788005D01*
X153195615Y-46837129D01*
X153854168Y-46845987D01*
X154562193Y-46817928D01*
X155245193Y-46756302D01*
X155828671Y-46664456D01*
X155935043Y-46640822D01*
X156664969Y-46415006D01*
X157328275Y-46109870D01*
X157899147Y-45745529D01*
X158351773Y-45342100D01*
X158660342Y-44919698D01*
X158799040Y-44498437D01*
X158804200Y-44404900D01*
X158706773Y-43972399D01*
X158429776Y-43540712D01*
X157996137Y-43127553D01*
X157428781Y-42750637D01*
X156750636Y-42427676D01*
X155984627Y-42176385D01*
X155888366Y-42152005D01*
X155328070Y-42055564D01*
X154637694Y-41998311D01*
X153884826Y-41980317D01*
X153137053Y-42001656D01*
X152461961Y-42062402D01*
X151984642Y-42147782D01*
X151177404Y-42397530D01*
X150470086Y-42718261D01*
X149883219Y-43094180D01*
X149437337Y-43509493D01*
X149152969Y-43948405D01*
X149050648Y-44395121D01*
X149050600Y-44404900D01*
X147482159Y-44404900D01*
X147558295Y-43848963D01*
X147712430Y-43267446D01*
X147791695Y-43075068D01*
X148127034Y-42564377D01*
X148632648Y-42057272D01*
X149276549Y-41576833D01*
X150026750Y-41146142D01*
X150851263Y-40788279D01*
X151065668Y-40712758D01*
X151349536Y-40621558D01*
X151605071Y-40554263D01*
X151870662Y-40507172D01*
X152184698Y-40476589D01*
X152585568Y-40458813D01*
X153111663Y-40450147D01*
X153801371Y-40446892D01*
X153825800Y-40446838D01*
X154679444Y-40451776D01*
X155347246Y-40471376D01*
X155846099Y-40506559D01*
X156192895Y-40558249D01*
X156283474Y-40580989D01*
X156759949Y-40719478D01*
X158975874Y-39451606D01*
X161191800Y-38183734D01*
X161239107Y-37762647D01*
X162905970Y-37762647D01*
X163086671Y-38211675D01*
X163319179Y-38528095D01*
X163846206Y-39000791D01*
X164530439Y-39391463D01*
X165340667Y-39694177D01*
X166245678Y-39902994D01*
X167214262Y-40011979D01*
X168215205Y-40015194D01*
X169217298Y-39906703D01*
X169859697Y-39772152D01*
X170634920Y-39522562D01*
X171304640Y-39201359D01*
X171852466Y-38824751D01*
X172262005Y-38408944D01*
X172516865Y-37970145D01*
X172600656Y-37524559D01*
X172520555Y-37141359D01*
X172315531Y-36818233D01*
X171976775Y-36461877D01*
X171557295Y-36119170D01*
X171110101Y-35836991D01*
X170963194Y-35764097D01*
X170342462Y-35510741D01*
X169734819Y-35335275D01*
X169082128Y-35226893D01*
X168326254Y-35174792D01*
X167745000Y-35165986D01*
X166600093Y-35217402D01*
X165613526Y-35375233D01*
X164767341Y-35644857D01*
X164043577Y-36031650D01*
X163547474Y-36422749D01*
X163134864Y-36882085D01*
X162921532Y-37324083D01*
X162905970Y-37762647D01*
X161239107Y-37762647D01*
X161268301Y-37502788D01*
X161447754Y-36691965D01*
X161796548Y-35969772D01*
X162319005Y-35332124D01*
X163019449Y-34774935D01*
X163902204Y-34294120D01*
X164971593Y-33885594D01*
X165157982Y-33827370D01*
X165519717Y-33722332D01*
X165834387Y-33647686D01*
X166149820Y-33598318D01*
X166513841Y-33569111D01*
X166974278Y-33554947D01*
X167578956Y-33550710D01*
X167745000Y-33550602D01*
X168389991Y-33553266D01*
X168879642Y-33564670D01*
X169261777Y-33589931D01*
X169584225Y-33634164D01*
X169894810Y-33702487D01*
X170241360Y-33800016D01*
X170332017Y-33827370D01*
X171344013Y-34197589D01*
X172227833Y-34649258D01*
X172965206Y-35169526D01*
X173537858Y-35745537D01*
X173922199Y-36352929D01*
X174057077Y-36725599D01*
X174170523Y-37183157D01*
X174222440Y-37505646D01*
X174298200Y-38175934D01*
X176488740Y-39434767D01*
X178679280Y-40693599D01*
X179435140Y-40533793D01*
X179984632Y-40453057D01*
X180663726Y-40407368D01*
X181420573Y-40395046D01*
X182203322Y-40414409D01*
X182960126Y-40463775D01*
X183639133Y-40541463D01*
X184188495Y-40645791D01*
X184356600Y-40693398D01*
X185239526Y-41026404D01*
X185981570Y-41419605D01*
X186643396Y-41907310D01*
X186885663Y-42123795D01*
X187299330Y-42535587D01*
X187597145Y-42908877D01*
X187799838Y-43293389D01*
X187928140Y-43738846D01*
X188002782Y-44294971D01*
X188039499Y-44891289D01*
X188093804Y-46132100D01*
X190641390Y-47605300D01*
X191308744Y-47993732D01*
X191930639Y-48360473D01*
X192481730Y-48690204D01*
X192936672Y-48967604D01*
X193270121Y-49177354D01*
X193456731Y-49304134D01*
X193471788Y-49316131D01*
X193754600Y-49553763D01*
X193754600Y-70429879D01*
X193526000Y-70637997D01*
X193494696Y-70666444D01*
X193461103Y-70695466D01*
X193418808Y-70728795D01*
X193361399Y-70770160D01*
X193282463Y-70823290D01*
X193175589Y-70891916D01*
X193034364Y-70979767D01*
X192852376Y-71090573D01*
X192623214Y-71228065D01*
X192340463Y-71395972D01*
X191997714Y-71598024D01*
X191588553Y-71837951D01*
X191106567Y-72119483D01*
X190545346Y-72446349D01*
X189898477Y-72822280D01*
X189159547Y-73251006D01*
X188322145Y-73736256D01*
X187379858Y-74281760D01*
X186326274Y-74891248D01*
X185154981Y-75568451D01*
X183859567Y-76317097D01*
X182433619Y-77140917D01*
X180870726Y-78043641D01*
X179164475Y-79028999D01*
X177308454Y-80100720D01*
X175296250Y-81262534D01*
X173121452Y-82518172D01*
X170777648Y-83871363D01*
X170566858Y-83993062D01*
X169896796Y-84375389D01*
X169274676Y-84721754D01*
X168724544Y-85019444D01*
X168270444Y-85255745D01*
X167936424Y-85417944D01*
X167746527Y-85493329D01*
X167722058Y-85497141D01*
X167583757Y-85446323D01*
X167291468Y-85303834D01*
X166866285Y-85081129D01*
X166329306Y-84789664D01*
X165701629Y-84440892D01*
X165004349Y-84046270D01*
X164258565Y-83617253D01*
X164239800Y-83606371D01*
X163684062Y-83284295D01*
X168556722Y-83284295D01*
X169090661Y-82974973D01*
X169244281Y-82886251D01*
X169562871Y-82702482D01*
X170035336Y-82430061D01*
X170650577Y-82075385D01*
X171397499Y-81644847D01*
X172265004Y-81144845D01*
X173241996Y-80581773D01*
X174317378Y-79962026D01*
X175480053Y-79292001D01*
X176718925Y-78578092D01*
X178022896Y-77826695D01*
X179380869Y-77044206D01*
X180781749Y-76237019D01*
X180872940Y-76184475D01*
X192121281Y-69703300D01*
X192125140Y-60474813D01*
X192129000Y-51246327D01*
X191798800Y-51447420D01*
X191682951Y-51516463D01*
X191474934Y-51638475D01*
X191167795Y-51817478D01*
X190754580Y-52057495D01*
X190228336Y-52362546D01*
X189582109Y-52736653D01*
X188808947Y-53183838D01*
X187901897Y-53708122D01*
X186854003Y-54313528D01*
X185658315Y-55004076D01*
X184307877Y-55783788D01*
X182795737Y-56656686D01*
X181114941Y-57626791D01*
X181003800Y-57690935D01*
X180166113Y-58174419D01*
X179191323Y-58737089D01*
X178118289Y-59356508D01*
X176985873Y-60010244D01*
X175832937Y-60675861D01*
X174698340Y-61330924D01*
X173620945Y-61953000D01*
X173079000Y-62265930D01*
X168608600Y-64847290D01*
X168582661Y-74065792D01*
X168556722Y-83284295D01*
X163684062Y-83284295D01*
X163656788Y-83268489D01*
X162917153Y-82840302D01*
G37*
X162917153Y-82840302D02*
X162040295Y-82333021D01*
X161045614Y-81757857D01*
X159952512Y-81126021D01*
X158780390Y-80448724D01*
X157548648Y-79737176D01*
X156276687Y-79002590D01*
X154983909Y-78256176D01*
X153689713Y-77509144D01*
X152708200Y-76942741D01*
X151131375Y-76032852D01*
X149720998Y-75218830D01*
X148467476Y-74495048D01*
X147361219Y-73855879D01*
X146392636Y-73295698D01*
X145552136Y-72808878D01*
X144830127Y-72389793D01*
X144217018Y-72032816D01*
X143703219Y-71732320D01*
X143279138Y-71482680D01*
X142935184Y-71278268D01*
X142661766Y-71113459D01*
X142449293Y-70982626D01*
X142288173Y-70880143D01*
X142168817Y-70800383D01*
X142081632Y-70737719D01*
X142017028Y-70686526D01*
X141965413Y-70641177D01*
X141964000Y-70639880D01*
X141735399Y-70429879D01*
X141735400Y-60000500D01*
X141735400Y-51271453D01*
X143361000Y-51271453D01*
X143364304Y-60487376D01*
X143367608Y-69703300D01*
X148306844Y-72548100D01*
X149259994Y-73097107D01*
X150359149Y-73730268D01*
X151574259Y-74430268D01*
X152875275Y-75179796D01*
X154232148Y-75961538D01*
X155614828Y-76758183D01*
X156993266Y-77552417D01*
X158337412Y-78326927D01*
X159617217Y-79064402D01*
X160063740Y-79321717D01*
X166881400Y-83250534D01*
X166907344Y-74093489D01*
X166911444Y-72457220D01*
X166913829Y-71013559D01*
X166914383Y-69751918D01*
X166912990Y-68661713D01*
X166909534Y-67732357D01*
X166903900Y-66953263D01*
X166895971Y-66313846D01*
X166885631Y-65803519D01*
X166872764Y-65411696D01*
X166857254Y-65127791D01*
X166838986Y-64941217D01*
X166817842Y-64841389D01*
X166805744Y-64820310D01*
X166677061Y-64732263D01*
X166404475Y-64564492D01*
X166021212Y-64336838D01*
X165560504Y-64069145D01*
X165255800Y-63894760D01*
X164939136Y-63713784D01*
X164463561Y-63440903D01*
X163846077Y-63085915D01*
X163103688Y-62658620D01*
X162253397Y-62168815D01*
X161312210Y-61626299D01*
X160297128Y-61040872D01*
X159225157Y-60422331D01*
X158113300Y-59780476D01*
X156978561Y-59125105D01*
X156823000Y-59035236D01*
X155626490Y-58344070D01*
X154406000Y-57639226D01*
X153184176Y-56933771D01*
X151983662Y-56240772D01*
X150827103Y-55573297D01*
X149737145Y-54944414D01*
X148736432Y-54367191D01*
X147847611Y-53854695D01*
X147093325Y-53419995D01*
X146586800Y-53128290D01*
X143361000Y-51271453D01*
X141735400Y-51271453D01*
X141735400Y-49857314D01*
X144276623Y-49857314D01*
X144361796Y-49919436D01*
X144607084Y-50073313D01*
X144996434Y-50309434D01*
X145513791Y-50618288D01*
X146143102Y-50990366D01*
X146868312Y-51416156D01*
X147673368Y-51886149D01*
X148542216Y-52390834D01*
X149025200Y-52670356D01*
X151427729Y-54058891D01*
X153656462Y-55346668D01*
X155713396Y-56534839D01*
X157600533Y-57624555D01*
X159319871Y-58616969D01*
X160873412Y-59513232D01*
X162263153Y-60314497D01*
X163491096Y-61021914D01*
X164559239Y-61636636D01*
X165469583Y-62159814D01*
X166224127Y-62592601D01*
X166824871Y-62936148D01*
X167273816Y-63191607D01*
X167572959Y-63360129D01*
X167724302Y-63442867D01*
X167745000Y-63452449D01*
X167837512Y-63402650D01*
X168095669Y-63257069D01*
X168509192Y-63021617D01*
X169067802Y-62702202D01*
X169761221Y-62304735D01*
X170579170Y-61835124D01*
X171511370Y-61299280D01*
X172547542Y-60703111D01*
X173677407Y-60052529D01*
X174890687Y-59353441D01*
X176177103Y-58611759D01*
X177526376Y-57833390D01*
X178928226Y-57024246D01*
X179476399Y-56707724D01*
X180895739Y-55887571D01*
X182266077Y-55094711D01*
X183577150Y-54335132D01*
X184818693Y-53614823D01*
X185980443Y-52939774D01*
X187052136Y-52315974D01*
X188023507Y-51749412D01*
X188884294Y-51246077D01*
X189624232Y-50811957D01*
X190233058Y-50453043D01*
X190700507Y-50175324D01*
X191016315Y-49984787D01*
X191170220Y-49887423D01*
X191184118Y-49876100D01*
X191109243Y-49800207D01*
X190884730Y-49643012D01*
X190538349Y-49422291D01*
X190097871Y-49155819D01*
X189663518Y-48902780D01*
X188115800Y-48015861D01*
X188004897Y-48445580D01*
X187772733Y-49095436D01*
X187416600Y-49671225D01*
X186900305Y-50230740D01*
X186868088Y-50260759D01*
X186239161Y-50750738D01*
X185480331Y-51195324D01*
X184664808Y-51555138D01*
X184153400Y-51720973D01*
X183651937Y-51820845D01*
X183004524Y-51894639D01*
X182266893Y-51941069D01*
X181494777Y-51958850D01*
X180743907Y-51946698D01*
X180070016Y-51903326D01*
X179529517Y-51827590D01*
X178488181Y-51547645D01*
X177546182Y-51156485D01*
X176724668Y-50668204D01*
X176044788Y-50096897D01*
X175527691Y-49456662D01*
X175283415Y-48997519D01*
X175239392Y-48801036D01*
X175205583Y-48436128D01*
X175181628Y-47894358D01*
X175173237Y-47472405D01*
X176685565Y-47472405D01*
X176690588Y-47753458D01*
X176720371Y-48060714D01*
X176771868Y-48336122D01*
X176829129Y-48499345D01*
X177171481Y-48958244D01*
X177686542Y-49382147D01*
X178344735Y-49755305D01*
X179116480Y-50061967D01*
X179972201Y-50286383D01*
X180292600Y-50343611D01*
X180836862Y-50394132D01*
X181498630Y-50403555D01*
X182202577Y-50375347D01*
X182873377Y-50312974D01*
X183435701Y-50219903D01*
X183543800Y-50193994D01*
X184304095Y-49947766D01*
X184996715Y-49629318D01*
X185586666Y-49260095D01*
X186038957Y-48861541D01*
X186292190Y-48509663D01*
X186361188Y-48300302D01*
X186410621Y-48011557D01*
X186437297Y-47701577D01*
X186438026Y-47428505D01*
X186409616Y-47250488D01*
X186363200Y-47215833D01*
X186242163Y-47273569D01*
X185986800Y-47397555D01*
X185645158Y-47564433D01*
X185525000Y-47623303D01*
X184440411Y-48051356D01*
X183250246Y-48332978D01*
X181996500Y-48461425D01*
X180721170Y-48429952D01*
X180584373Y-48416749D01*
X179805884Y-48316472D01*
X179119488Y-48178290D01*
X178465277Y-47983465D01*
X177783345Y-47713256D01*
X177013784Y-47348925D01*
X176762000Y-47221104D01*
X176708353Y-47275604D01*
X176685565Y-47472405D01*
X175173237Y-47472405D01*
X175167168Y-47167292D01*
X175161843Y-46246494D01*
X175161800Y-46143299D01*
X175162917Y-45289889D01*
X175171427Y-44610276D01*
X175180497Y-44404900D01*
X176685800Y-44404900D01*
X176783828Y-44852199D01*
X177063673Y-45288432D01*
X177503972Y-45699485D01*
X178083366Y-46071248D01*
X178780493Y-46389609D01*
X179573992Y-46640457D01*
X180292600Y-46787611D01*
X180836862Y-46838132D01*
X181498630Y-46847555D01*
X182202577Y-46819347D01*
X182873377Y-46756974D01*
X183435701Y-46663903D01*
X183543800Y-46637994D01*
X184337020Y-46382183D01*
X185034385Y-46058400D01*
X185614598Y-45683066D01*
X186056364Y-45272606D01*
X186338387Y-44843443D01*
X186439372Y-44411999D01*
X186439400Y-44404900D01*
X186341611Y-43965191D01*
X186062686Y-43529437D01*
X185624284Y-43114395D01*
X185048064Y-42736820D01*
X184355685Y-42413470D01*
X183568808Y-42161101D01*
X183524679Y-42149976D01*
X182957865Y-42051543D01*
X182259893Y-41994266D01*
X181498583Y-41978099D01*
X180741754Y-42002993D01*
X180057227Y-42068901D01*
X179600520Y-42152760D01*
X178814124Y-42396754D01*
X178118589Y-42713930D01*
X177535979Y-43087241D01*
X177088356Y-43499639D01*
X176797784Y-43934078D01*
X176686324Y-44373508D01*
X176685800Y-44404900D01*
X175180497Y-44404900D01*
X175195065Y-44075057D01*
X175241566Y-43654829D01*
X175318664Y-43320190D01*
X175434096Y-43041738D01*
X175595596Y-42790068D01*
X175810900Y-42535780D01*
X176087742Y-42249469D01*
X176221460Y-42115368D01*
X176490346Y-41837181D01*
X176686267Y-41617280D01*
X176778515Y-41490867D01*
X176780260Y-41474868D01*
X176661505Y-41397981D01*
X176408020Y-41246678D01*
X176062606Y-41045400D01*
X175668064Y-40818589D01*
X175267195Y-40590686D01*
X174902800Y-40386133D01*
X174617681Y-40229371D01*
X174454639Y-40144841D01*
X174440570Y-40138801D01*
X174359573Y-40136106D01*
X174302575Y-40223918D01*
X174260044Y-40436227D01*
X174222449Y-40807023D01*
X174210253Y-40960158D01*
X174113856Y-41691597D01*
X173934950Y-42285167D01*
X173650051Y-42797439D01*
X173252064Y-43268283D01*
X172481764Y-43925055D01*
X171590411Y-44439374D01*
X170570815Y-44813473D01*
X169415787Y-45049585D01*
X168118137Y-45149942D01*
X167211244Y-45144020D01*
X166596806Y-45117838D01*
X166126911Y-45082857D01*
X165742905Y-45029954D01*
X165386129Y-44950008D01*
X164997930Y-44833899D01*
X164804107Y-44769696D01*
X163868963Y-44401288D01*
X163094094Y-43973866D01*
X162439744Y-43464170D01*
X162237935Y-43268283D01*
X161828324Y-42780828D01*
X161547395Y-42266730D01*
X161371665Y-41669420D01*
X161279746Y-40960158D01*
X161270653Y-40858142D01*
X162868200Y-40858142D01*
X162920391Y-41396777D01*
X163098477Y-41828188D01*
X163434720Y-42223324D01*
X163527160Y-42307207D01*
X164203136Y-42778069D01*
X165023627Y-43146886D01*
X165954306Y-43408084D01*
X166960847Y-43556088D01*
X168008925Y-43585323D01*
X169064214Y-43490215D01*
X169843457Y-43332992D01*
X170615086Y-43085219D01*
X171298249Y-42764516D01*
X171862787Y-42390203D01*
X172278541Y-41981599D01*
X172484533Y-41641150D01*
X172552256Y-41403178D01*
X172599654Y-41097447D01*
X172622765Y-40786502D01*
X172617626Y-40532887D01*
X172580275Y-40399148D01*
X172563691Y-40391700D01*
X172449197Y-40438761D01*
X172223477Y-40558422D01*
X172081091Y-40639734D01*
X171794909Y-40783355D01*
X171384127Y-40960170D01*
X170917633Y-41141302D01*
X170691400Y-41222255D01*
X170355376Y-41337095D01*
X170078467Y-41422087D01*
X169821104Y-41481722D01*
X169543718Y-41520493D01*
X169206741Y-41542892D01*
X168770606Y-41553411D01*
X168195743Y-41556541D01*
X167745000Y-41556742D01*
X167062161Y-41555930D01*
X166542901Y-41550515D01*
X166147596Y-41536026D01*
X165836626Y-41507992D01*
X165570367Y-41461944D01*
X165309199Y-41393410D01*
X165013498Y-41297920D01*
X164798600Y-41224305D01*
X164319621Y-41045687D01*
X163853718Y-40848705D01*
X163474608Y-40665392D01*
X163350800Y-40595181D01*
X162868200Y-40298493D01*
X162868200Y-40858142D01*
X161270653Y-40858142D01*
X161241654Y-40532824D01*
X161201517Y-40274702D01*
X161149893Y-40151940D01*
X161077337Y-40130683D01*
X161050626Y-40138827D01*
X160904986Y-40211410D01*
X160623068Y-40365202D01*
X160243826Y-40578532D01*
X159806213Y-40829730D01*
X159750010Y-40862329D01*
X158610627Y-41523961D01*
X158984658Y-41846830D01*
X159521665Y-42360421D01*
X159921593Y-42867012D01*
X160099600Y-43160197D01*
X160169816Y-43295043D01*
X160223968Y-43432446D01*
X160264136Y-43599637D01*
X160292405Y-43823850D01*
X160310856Y-44132316D01*
X160321573Y-44552270D01*
X160326638Y-45110942D01*
X160328134Y-45835565D01*
X160328200Y-46149187D01*
X160326261Y-47023422D01*
X160315777Y-47722683D01*
X160289742Y-48275189D01*
X160241154Y-48709159D01*
X160163009Y-49052813D01*
X160048302Y-49334371D01*
X159890031Y-49582052D01*
X159681191Y-49824075D01*
X159414778Y-50088660D01*
X159330495Y-50169124D01*
X158776277Y-50647269D01*
X158204634Y-51027495D01*
X157550334Y-51347987D01*
X156885998Y-51600051D01*
X156528153Y-51717765D01*
X156212393Y-51802591D01*
X155889650Y-51861424D01*
X155510855Y-51901163D01*
X155026941Y-51928703D01*
X154389757Y-51950914D01*
X153485816Y-51964051D01*
X152734252Y-51939653D01*
X152086660Y-51871447D01*
X151494635Y-51753162D01*
X150909773Y-51578525D01*
X150574600Y-51456560D01*
X149604463Y-51003432D01*
X148800637Y-50452956D01*
X148168994Y-49810855D01*
X147715404Y-49082857D01*
X147484918Y-48443407D01*
X147373833Y-48011514D01*
X145825840Y-48900607D01*
X145324587Y-49192123D01*
X144890864Y-49451278D01*
X144553015Y-49660569D01*
X144339384Y-49802492D01*
X144276623Y-49857314D01*
X141735400Y-49857314D01*
X141735400Y-49571120D01*
X141964000Y-49361107D01*
X142107898Y-49258085D01*
X142402246Y-49069599D01*
X142821107Y-48811074D01*
X143338547Y-48497935D01*
X143928629Y-48145607D01*
X144565418Y-47769516D01*
X145075278Y-47471436D01*
X149051080Y-47471436D01*
X149058503Y-47752177D01*
X149092295Y-48059474D01*
X149149592Y-48335453D01*
X149187468Y-48446763D01*
X149478204Y-48898140D01*
X149945569Y-49317220D01*
X150563876Y-49690641D01*
X151307437Y-50005042D01*
X152150567Y-50247060D01*
X152911400Y-50383902D01*
X153310676Y-50409413D01*
X153844020Y-50405828D01*
X154445036Y-50377278D01*
X155047326Y-50327896D01*
X155584495Y-50261815D01*
X155941494Y-50195317D01*
X156697268Y-49960727D01*
X157388633Y-49641092D01*
X157978667Y-49259355D01*
X158430448Y-48838461D01*
X158658377Y-48506980D01*
X158726899Y-48298359D01*
X158775871Y-48010108D01*
X158802149Y-47700483D01*
X158802594Y-47427742D01*
X158774064Y-47250143D01*
X158728000Y-47215833D01*
X158606963Y-47273569D01*
X158351600Y-47397555D01*
X158009958Y-47564433D01*
X157889800Y-47623303D01*
X157362404Y-47869280D01*
X156888661Y-48054894D01*
X156424779Y-48188330D01*
X155926969Y-48277773D01*
X155351437Y-48331407D01*
X154654394Y-48357419D01*
X153927400Y-48363933D01*
X153075405Y-48356410D01*
X152375335Y-48323173D01*
X151776370Y-48252124D01*
X151227691Y-48131167D01*
X150678479Y-47948202D01*
X150077914Y-47691132D01*
X149375177Y-47347858D01*
X149126800Y-47221104D01*
X149072891Y-47275121D01*
X149051080Y-47471436D01*
X145075278Y-47471436D01*
X145222979Y-47385086D01*
X145875376Y-47007742D01*
X146496673Y-46652910D01*
X146891496Y-46430485D01*
X147424793Y-46132100D01*
X147425485Y-45370100D01*
X147460260Y-44564805D01*
X147482159Y-44404900D01*
X149050600Y-44404900D01*
X149148355Y-44841298D01*
X149426578Y-45271070D01*
X149862707Y-45679321D01*
X150434176Y-46051158D01*
X151118424Y-46371689D01*
X151892886Y-46626020D01*
X152661029Y-46788005D01*
X153195615Y-46837129D01*
X153854168Y-46845987D01*
X154562193Y-46817928D01*
X155245193Y-46756302D01*
X155828671Y-46664456D01*
X155935043Y-46640822D01*
X156664969Y-46415006D01*
X157328275Y-46109870D01*
X157899147Y-45745529D01*
X158351773Y-45342100D01*
X158660342Y-44919698D01*
X158799040Y-44498437D01*
X158804200Y-44404900D01*
X158706773Y-43972399D01*
X158429776Y-43540712D01*
X157996137Y-43127553D01*
X157428781Y-42750637D01*
X156750636Y-42427676D01*
X155984627Y-42176385D01*
X155888366Y-42152005D01*
X155328070Y-42055564D01*
X154637694Y-41998311D01*
X153884826Y-41980317D01*
X153137053Y-42001656D01*
X152461961Y-42062402D01*
X151984642Y-42147782D01*
X151177404Y-42397530D01*
X150470086Y-42718261D01*
X149883219Y-43094180D01*
X149437337Y-43509493D01*
X149152969Y-43948405D01*
X149050648Y-44395121D01*
X149050600Y-44404900D01*
X147482159Y-44404900D01*
X147558295Y-43848963D01*
X147712430Y-43267446D01*
X147791695Y-43075068D01*
X148127034Y-42564377D01*
X148632648Y-42057272D01*
X149276549Y-41576833D01*
X150026750Y-41146142D01*
X150851263Y-40788279D01*
X151065668Y-40712758D01*
X151349536Y-40621558D01*
X151605071Y-40554263D01*
X151870662Y-40507172D01*
X152184698Y-40476589D01*
X152585568Y-40458813D01*
X153111663Y-40450147D01*
X153801371Y-40446892D01*
X153825800Y-40446838D01*
X154679444Y-40451776D01*
X155347246Y-40471376D01*
X155846099Y-40506559D01*
X156192895Y-40558249D01*
X156283474Y-40580989D01*
X156759949Y-40719478D01*
X158975874Y-39451606D01*
X161191800Y-38183734D01*
X161239107Y-37762647D01*
X162905970Y-37762647D01*
X163086671Y-38211675D01*
X163319179Y-38528095D01*
X163846206Y-39000791D01*
X164530439Y-39391463D01*
X165340667Y-39694177D01*
X166245678Y-39902994D01*
X167214262Y-40011979D01*
X168215205Y-40015194D01*
X169217298Y-39906703D01*
X169859697Y-39772152D01*
X170634920Y-39522562D01*
X171304640Y-39201359D01*
X171852466Y-38824751D01*
X172262005Y-38408944D01*
X172516865Y-37970145D01*
X172600656Y-37524559D01*
X172520555Y-37141359D01*
X172315531Y-36818233D01*
X171976775Y-36461877D01*
X171557295Y-36119170D01*
X171110101Y-35836991D01*
X170963194Y-35764097D01*
X170342462Y-35510741D01*
X169734819Y-35335275D01*
X169082128Y-35226893D01*
X168326254Y-35174792D01*
X167745000Y-35165986D01*
X166600093Y-35217402D01*
X165613526Y-35375233D01*
X164767341Y-35644857D01*
X164043577Y-36031650D01*
X163547474Y-36422749D01*
X163134864Y-36882085D01*
X162921532Y-37324083D01*
X162905970Y-37762647D01*
X161239107Y-37762647D01*
X161268301Y-37502788D01*
X161447754Y-36691965D01*
X161796548Y-35969772D01*
X162319005Y-35332124D01*
X163019449Y-34774935D01*
X163902204Y-34294120D01*
X164971593Y-33885594D01*
X165157982Y-33827370D01*
X165519717Y-33722332D01*
X165834387Y-33647686D01*
X166149820Y-33598318D01*
X166513841Y-33569111D01*
X166974278Y-33554947D01*
X167578956Y-33550710D01*
X167745000Y-33550602D01*
X168389991Y-33553266D01*
X168879642Y-33564670D01*
X169261777Y-33589931D01*
X169584225Y-33634164D01*
X169894810Y-33702487D01*
X170241360Y-33800016D01*
X170332017Y-33827370D01*
X171344013Y-34197589D01*
X172227833Y-34649258D01*
X172965206Y-35169526D01*
X173537858Y-35745537D01*
X173922199Y-36352929D01*
X174057077Y-36725599D01*
X174170523Y-37183157D01*
X174222440Y-37505646D01*
X174298200Y-38175934D01*
X176488740Y-39434767D01*
X178679280Y-40693599D01*
X179435140Y-40533793D01*
X179984632Y-40453057D01*
X180663726Y-40407368D01*
X181420573Y-40395046D01*
X182203322Y-40414409D01*
X182960126Y-40463775D01*
X183639133Y-40541463D01*
X184188495Y-40645791D01*
X184356600Y-40693398D01*
X185239526Y-41026404D01*
X185981570Y-41419605D01*
X186643396Y-41907310D01*
X186885663Y-42123795D01*
X187299330Y-42535587D01*
X187597145Y-42908877D01*
X187799838Y-43293389D01*
X187928140Y-43738846D01*
X188002782Y-44294971D01*
X188039499Y-44891289D01*
X188093804Y-46132100D01*
X190641390Y-47605300D01*
X191308744Y-47993732D01*
X191930639Y-48360473D01*
X192481730Y-48690204D01*
X192936672Y-48967604D01*
X193270121Y-49177354D01*
X193456731Y-49304134D01*
X193471788Y-49316131D01*
X193754600Y-49553763D01*
X193754600Y-70429879D01*
X193526000Y-70637997D01*
X193494696Y-70666444D01*
X193461103Y-70695466D01*
X193418808Y-70728795D01*
X193361399Y-70770160D01*
X193282463Y-70823290D01*
X193175589Y-70891916D01*
X193034364Y-70979767D01*
X192852376Y-71090573D01*
X192623214Y-71228065D01*
X192340463Y-71395972D01*
X191997714Y-71598024D01*
X191588553Y-71837951D01*
X191106567Y-72119483D01*
X190545346Y-72446349D01*
X189898477Y-72822280D01*
X189159547Y-73251006D01*
X188322145Y-73736256D01*
X187379858Y-74281760D01*
X186326274Y-74891248D01*
X185154981Y-75568451D01*
X183859567Y-76317097D01*
X182433619Y-77140917D01*
X180870726Y-78043641D01*
X179164475Y-79028999D01*
X177308454Y-80100720D01*
X175296250Y-81262534D01*
X173121452Y-82518172D01*
X170777648Y-83871363D01*
X170566858Y-83993062D01*
X169896796Y-84375389D01*
X169274676Y-84721754D01*
X168724544Y-85019444D01*
X168270444Y-85255745D01*
X167936424Y-85417944D01*
X167746527Y-85493329D01*
X167722058Y-85497141D01*
X167583757Y-85446323D01*
X167291468Y-85303834D01*
X166866285Y-85081129D01*
X166329306Y-84789664D01*
X165701629Y-84440892D01*
X165004349Y-84046270D01*
X164258565Y-83617253D01*
X164239800Y-83606371D01*
X163684062Y-83284295D01*
X168556722Y-83284295D01*
X169090661Y-82974973D01*
X169244281Y-82886251D01*
X169562871Y-82702482D01*
X170035336Y-82430061D01*
X170650577Y-82075385D01*
X171397499Y-81644847D01*
X172265004Y-81144845D01*
X173241996Y-80581773D01*
X174317378Y-79962026D01*
X175480053Y-79292001D01*
X176718925Y-78578092D01*
X178022896Y-77826695D01*
X179380869Y-77044206D01*
X180781749Y-76237019D01*
X180872940Y-76184475D01*
X192121281Y-69703300D01*
X192125140Y-60474813D01*
X192129000Y-51246327D01*
X191798800Y-51447420D01*
X191682951Y-51516463D01*
X191474934Y-51638475D01*
X191167795Y-51817478D01*
X190754580Y-52057495D01*
X190228336Y-52362546D01*
X189582109Y-52736653D01*
X188808947Y-53183838D01*
X187901897Y-53708122D01*
X186854003Y-54313528D01*
X185658315Y-55004076D01*
X184307877Y-55783788D01*
X182795737Y-56656686D01*
X181114941Y-57626791D01*
X181003800Y-57690935D01*
X180166113Y-58174419D01*
X179191323Y-58737089D01*
X178118289Y-59356508D01*
X176985873Y-60010244D01*
X175832937Y-60675861D01*
X174698340Y-61330924D01*
X173620945Y-61953000D01*
X173079000Y-62265930D01*
X168608600Y-64847290D01*
X168582661Y-74065792D01*
X168556722Y-83284295D01*
X163684062Y-83284295D01*
X163656788Y-83268489D01*
X162917153Y-82840302D01*
D12*
X84317500Y-78682400D02*
G75*
G03*
X84317500Y-78682400I-3000000J0D01*
G01*
X81317500Y-78182400D02*
X81317500Y-79182400D01*
X73517500Y-74582400D02*
X74117500Y-74582400D01*
X74117500Y-74582400D02*
X73817500Y-74882400D01*
X87417500Y-84582400D02*
X83317500Y-84582400D01*
X75217500Y-72782400D02*
X75217500Y-84582400D01*
X87417500Y-77382400D02*
X87417500Y-79982400D01*
X83317500Y-72782400D02*
X87417500Y-72782400D01*
X79317500Y-72782400D02*
X75217500Y-72782400D01*
X87417500Y-72782400D02*
X87417500Y-75182400D01*
X80817500Y-78682400D02*
X81817500Y-78682400D01*
X73817500Y-74882400D02*
X73517500Y-74582400D01*
X87417500Y-82182400D02*
X87417500Y-84582400D01*
X79317500Y-84582400D02*
X75217500Y-84582400D01*
D14*
X77257500Y-68700000D03*
X79797500Y-68700000D03*
X82337500Y-68700000D03*
X84877500Y-68700000D03*
M02*
