G04 #@! TF.GenerationSoftware,KiCad,Pcbnew,(6.0.5)*
G04 #@! TF.CreationDate,2022-06-04T00:44:28+02:00*
G04 #@! TF.ProjectId,cheap_deck,63686561-705f-4646-9563-6b2e6b696361,3.0.1*
G04 #@! TF.SameCoordinates,Original*
G04 #@! TF.FileFunction,Copper,L1,Top*
G04 #@! TF.FilePolarity,Positive*
%FSLAX46Y46*%
G04 Gerber Fmt 4.6, Leading zero omitted, Abs format (unit mm)*
G04 Created by KiCad (PCBNEW (6.0.5)) date 2022-06-04 00:44:28*
%MOMM*%
%LPD*%
G01*
G04 APERTURE LIST*
G04 #@! TA.AperFunction,ComponentPad*
%ADD10C,1.524000*%
G04 #@! TD*
G04 #@! TA.AperFunction,ComponentPad*
%ADD11C,1.397000*%
G04 #@! TD*
G04 #@! TA.AperFunction,ComponentPad*
%ADD12C,2.000000*%
G04 #@! TD*
G04 #@! TA.AperFunction,ComponentPad*
%ADD13C,3.200000*%
G04 #@! TD*
G04 #@! TA.AperFunction,ComponentPad*
%ADD14R,2.000000X2.000000*%
G04 #@! TD*
G04 #@! TA.AperFunction,ViaPad*
%ADD15C,0.600000*%
G04 #@! TD*
G04 #@! TA.AperFunction,Conductor*
%ADD16C,0.250000*%
G04 #@! TD*
G04 APERTURE END LIST*
D10*
X88695000Y-35223800D03*
X88695000Y-37763800D03*
X88695000Y-40303800D03*
X88695000Y-42843800D03*
X88695000Y-45383800D03*
X88695000Y-47923800D03*
X88695000Y-50463800D03*
X88695000Y-53003800D03*
X88695000Y-55543800D03*
X88695000Y-58083800D03*
X88695000Y-60623800D03*
X88695000Y-63163800D03*
X73475000Y-63163800D03*
X73475000Y-60623800D03*
X73475000Y-58083800D03*
X73475000Y-55543800D03*
X73475000Y-53003800D03*
X73475000Y-50463800D03*
X73475000Y-47923800D03*
X73475000Y-45383800D03*
X73475000Y-42843800D03*
X73475000Y-40303800D03*
X73475000Y-37763800D03*
X73475000Y-35223800D03*
D11*
X77257500Y-68700000D03*
X79797500Y-68700000D03*
X82337500Y-68700000D03*
X84877500Y-68700000D03*
D12*
X88317500Y-76182400D03*
X88317500Y-81182400D03*
D13*
X81317500Y-84282400D03*
X81317500Y-73082400D03*
D12*
X73817500Y-78682400D03*
X73817500Y-81182400D03*
D14*
X73817500Y-76182400D03*
D15*
X169803400Y-72753200D03*
X169782900Y-58847300D03*
X169782900Y-40481600D03*
X151392600Y-40481600D03*
X150629900Y-58847300D03*
X130984200Y-42693600D03*
X130984200Y-52226700D03*
X114357700Y-48637300D03*
X110972700Y-43353900D03*
X129091000Y-81179300D03*
X167172400Y-81274600D03*
X110843200Y-81337600D03*
X148147300Y-61893700D03*
X129161000Y-61893700D03*
X110187800Y-61893700D03*
X202737100Y-62384600D03*
X186428500Y-62311300D03*
X163570800Y-61893700D03*
D16*
X72381800Y-43937000D02*
X73475000Y-42843800D01*
X72381800Y-58573400D02*
X72381800Y-43937000D01*
X73162200Y-59353800D02*
X72381800Y-58573400D01*
X73764800Y-59353800D02*
X73162200Y-59353800D01*
X82337500Y-67926500D02*
X73764800Y-59353800D01*
X82337500Y-68700000D02*
X82337500Y-67926500D01*
X89675500Y-64144300D02*
X88695000Y-63163800D01*
X89675500Y-79824400D02*
X89675500Y-64144300D01*
X88317500Y-81182400D02*
X89675500Y-79824400D01*
X110998400Y-66164200D02*
X164898300Y-66164200D01*
X104387900Y-59553700D02*
X110998400Y-66164200D01*
X104387900Y-59449600D02*
X104387900Y-59553700D01*
X102055400Y-57117100D02*
X104387900Y-59449600D01*
X100276300Y-57117100D02*
X102055400Y-57117100D01*
X97570100Y-54410900D02*
X100276300Y-57117100D01*
X74607900Y-54410900D02*
X97570100Y-54410900D01*
X73475000Y-55543800D02*
X74607900Y-54410900D01*
X164898300Y-67848100D02*
X169803400Y-72753200D01*
X164898300Y-66164200D02*
X164898300Y-67848100D01*
X164898300Y-63731900D02*
X169782900Y-58847300D01*
X164898300Y-66164200D02*
X164898300Y-63731900D01*
X169782900Y-58847300D02*
X169782900Y-40481600D01*
X147624500Y-55841900D02*
X150629900Y-58847300D01*
X147186200Y-56280200D02*
X147624500Y-55841900D01*
X139317100Y-56280200D02*
X147186200Y-56280200D01*
X138122200Y-55085300D02*
X139317100Y-56280200D01*
X133723800Y-55085300D02*
X138122200Y-55085300D01*
X132565400Y-56243700D02*
X133723800Y-55085300D01*
X121733000Y-56243700D02*
X132565400Y-56243700D01*
X120040300Y-54551000D02*
X121733000Y-56243700D01*
X106948700Y-54551000D02*
X120040300Y-54551000D01*
X104311000Y-51913300D02*
X106948700Y-54551000D01*
X74565500Y-51913300D02*
X104311000Y-51913300D01*
X73475000Y-53003800D02*
X74565500Y-51913300D01*
X151392600Y-52073800D02*
X151392600Y-40481600D01*
X147624500Y-55841900D02*
X151392600Y-52073800D01*
X108906800Y-52226700D02*
X130984200Y-52226700D01*
X106042700Y-49362600D02*
X108906800Y-52226700D01*
X74576200Y-49362600D02*
X106042700Y-49362600D01*
X73475000Y-50463800D02*
X74576200Y-49362600D01*
X130984200Y-52226700D02*
X130984200Y-42693600D01*
X107139600Y-47187000D02*
X110023500Y-44303100D01*
X89827000Y-47187000D02*
X107139600Y-47187000D01*
X89458400Y-46818400D02*
X89827000Y-47187000D01*
X74580400Y-46818400D02*
X89458400Y-46818400D01*
X73475000Y-47923800D02*
X74580400Y-46818400D01*
X110023500Y-44303100D02*
X114357700Y-48637300D01*
X110023500Y-44303100D02*
X110972700Y-43353900D01*
X86155000Y-37763800D02*
X73475000Y-37763800D01*
X88695000Y-40303800D02*
X86155000Y-37763800D01*
X71879400Y-64827500D02*
X78601300Y-71549300D01*
X71879400Y-39359400D02*
X71879400Y-64827500D01*
X73475000Y-37763800D02*
X71879400Y-39359400D01*
X75142900Y-77357000D02*
X73817500Y-78682400D01*
X75142900Y-75007700D02*
X75142900Y-77357000D01*
X78601300Y-71549300D02*
X75142900Y-75007700D01*
X84877500Y-70581000D02*
X84877500Y-68700000D01*
X88317500Y-74021000D02*
X84877500Y-70581000D01*
X88317500Y-76182400D02*
X88317500Y-74021000D01*
X79569600Y-70581000D02*
X78601300Y-71549300D01*
X84877500Y-70581000D02*
X79569600Y-70581000D01*
X167077100Y-81179300D02*
X129091000Y-81179300D01*
X167172400Y-81274600D02*
X167077100Y-81179300D01*
X111001500Y-77850300D02*
X88695000Y-55543800D01*
X111001500Y-81179300D02*
X111001500Y-77850300D01*
X129091000Y-81179300D02*
X111001500Y-81179300D01*
X111001500Y-81179300D02*
X110843200Y-81337600D01*
X148147300Y-61893700D02*
X129161000Y-61893700D01*
X129161000Y-61893700D02*
X110187800Y-61893700D01*
X96800000Y-53003800D02*
X88695000Y-53003800D01*
X100463000Y-56666800D02*
X96800000Y-53003800D01*
X105202400Y-56666800D02*
X100463000Y-56666800D01*
X110187800Y-61652200D02*
X105202400Y-56666800D01*
X110187800Y-61893700D02*
X110187800Y-61652200D01*
X202663800Y-62311300D02*
X186428500Y-62311300D01*
X202737100Y-62384600D02*
X202663800Y-62311300D01*
X163570800Y-61893700D02*
X148147300Y-61893700D01*
M02*
