G04 #@! TF.GenerationSoftware,KiCad,Pcbnew,(6.0.5)*
G04 #@! TF.CreationDate,2022-06-04T00:44:28+02:00*
G04 #@! TF.ProjectId,cheap_deck,63686561-705f-4646-9563-6b2e6b696361,3.0.1*
G04 #@! TF.SameCoordinates,Original*
G04 #@! TF.FileFunction,Soldermask,Top*
G04 #@! TF.FilePolarity,Negative*
%FSLAX46Y46*%
G04 Gerber Fmt 4.6, Leading zero omitted, Abs format (unit mm)*
G04 Created by KiCad (PCBNEW (6.0.5)) date 2022-06-04 00:44:28*
%MOMM*%
%LPD*%
G01*
G04 APERTURE LIST*
G04 Aperture macros list*
%AMRoundRect*
0 Rectangle with rounded corners*
0 $1 Rounding radius*
0 $2 $3 $4 $5 $6 $7 $8 $9 X,Y pos of 4 corners*
0 Add a 4 corners polygon primitive as box body*
4,1,4,$2,$3,$4,$5,$6,$7,$8,$9,$2,$3,0*
0 Add four circle primitives for the rounded corners*
1,1,$1+$1,$2,$3*
1,1,$1+$1,$4,$5*
1,1,$1+$1,$6,$7*
1,1,$1+$1,$8,$9*
0 Add four rect primitives between the rounded corners*
20,1,$1+$1,$2,$3,$4,$5,0*
20,1,$1+$1,$4,$5,$6,$7,0*
20,1,$1+$1,$6,$7,$8,$9,0*
20,1,$1+$1,$8,$9,$2,$3,0*%
G04 Aperture macros list end*
%ADD10C,3.400000*%
%ADD11C,2.300000*%
%ADD12C,4.500000*%
%ADD13C,4.700000*%
%ADD14C,2.400000*%
%ADD15C,3.600000*%
%ADD16RoundRect,0.200000X-1.000000X-1.000000X1.000000X-1.000000X1.000000X1.000000X-1.000000X1.000000X0*%
G04 APERTURE END LIST*
D10*
X103610000Y-35362500D03*
D11*
X106150000Y-40442500D03*
X95990000Y-40442500D03*
D10*
X97260000Y-37902500D03*
D12*
X101070000Y-40442500D03*
X120120000Y-40442500D03*
D10*
X116310000Y-37902500D03*
X122660000Y-35362500D03*
D11*
X115040000Y-40442500D03*
X125200000Y-40442500D03*
X134090000Y-40442500D03*
X144250000Y-40442500D03*
D10*
X141710000Y-35362500D03*
D12*
X139170000Y-40442500D03*
D10*
X135360000Y-37902500D03*
X154410000Y-37902500D03*
D11*
X163300000Y-40442500D03*
D12*
X158220000Y-40442500D03*
D10*
X160760000Y-35362500D03*
D11*
X153140000Y-40442500D03*
X172190000Y-40442500D03*
D10*
X173460000Y-37902500D03*
X179810000Y-35362500D03*
D12*
X177270000Y-40442500D03*
D11*
X182350000Y-40442500D03*
X95990000Y-59492500D03*
D10*
X103610000Y-54412500D03*
D11*
X106150000Y-59492500D03*
D10*
X97260000Y-56952500D03*
D12*
X101070000Y-59492500D03*
X139170000Y-59492500D03*
D11*
X134090000Y-59492500D03*
D10*
X141710000Y-54412500D03*
D11*
X144250000Y-59492500D03*
D10*
X135360000Y-56952500D03*
D11*
X163300000Y-59492500D03*
D12*
X158220000Y-59492500D03*
D10*
X160760000Y-54412500D03*
X154410000Y-56952500D03*
D11*
X153140000Y-59492500D03*
D12*
X177270000Y-59492500D03*
D11*
X172190000Y-59492500D03*
D10*
X179810000Y-54412500D03*
D11*
X182350000Y-59492500D03*
D10*
X173460000Y-56952500D03*
D12*
X196320000Y-59492500D03*
D10*
X198860000Y-54412500D03*
X192510000Y-56952500D03*
D11*
X201400000Y-59492500D03*
X191240000Y-59492500D03*
D10*
X97260000Y-76002500D03*
X103610000Y-73462500D03*
D12*
X101070000Y-78542500D03*
D11*
X95990000Y-78542500D03*
X106150000Y-78542500D03*
D12*
X120120000Y-78542500D03*
D10*
X116310000Y-76002500D03*
X122660000Y-73462500D03*
D11*
X115040000Y-78542500D03*
X125200000Y-78542500D03*
X134090000Y-78542500D03*
D10*
X135360000Y-76002500D03*
X141710000Y-73462500D03*
D12*
X139170000Y-78542500D03*
D11*
X144250000Y-78542500D03*
X153140000Y-78542500D03*
D10*
X154410000Y-76002500D03*
D12*
X158220000Y-78542500D03*
D10*
X160760000Y-73462500D03*
D11*
X163300000Y-78542500D03*
D10*
X179810000Y-73462500D03*
D11*
X182350000Y-78542500D03*
D10*
X173460000Y-76002500D03*
D12*
X177270000Y-78542500D03*
D11*
X172190000Y-78542500D03*
X115040000Y-59492500D03*
X125200000Y-59492500D03*
D10*
X122660000Y-54412500D03*
D12*
X120120000Y-59492500D03*
D10*
X116310000Y-56952500D03*
X198860000Y-73462500D03*
X192510000Y-76002500D03*
D11*
X191240000Y-78542500D03*
X201400000Y-78542500D03*
D12*
X196320000Y-78542500D03*
D11*
X191240000Y-40442500D03*
D10*
X192510000Y-37902500D03*
X198860000Y-35362500D03*
D11*
X201400000Y-40442500D03*
D12*
X196320000Y-40442500D03*
D13*
X186890000Y-68832200D03*
X110541700Y-49722400D03*
X110604200Y-68918500D03*
X186890000Y-49588100D03*
D14*
X88317500Y-76182400D03*
X88317500Y-81182400D03*
D15*
X81317500Y-84282400D03*
X81317500Y-73082400D03*
D14*
X73817500Y-78682400D03*
X73817500Y-81182400D03*
D16*
X73817500Y-76182400D03*
M02*
