M48
; DRILL file {KiCad (6.0.5)} date Sat Jun  4 00:44:44 2022
; FORMAT={-:-/ absolute / metric / decimal}
; #@! TF.CreationDate,2022-06-04T00:44:44+02:00
; #@! TF.GenerationSoftware,Kicad,Pcbnew,(6.0.5)
; #@! TF.FileFunction,Plated,1,2,PTH
FMAT,2
METRIC
; #@! TA.AperFunction,Plated,PTH,ViaDrill
T1C0.400
; #@! TA.AperFunction,Plated,PTH,ComponentDrill
T2C0.813
; #@! TA.AperFunction,Plated,PTH,ComponentDrill
T3C1.000
; #@! TA.AperFunction,Plated,PTH,ComponentDrill
T4C2.600
%
G90
G05
T1
X110.188Y-61.894
X110.843Y-81.338
X110.973Y-43.354
X114.358Y-48.637
X129.091Y-81.179
X129.161Y-61.894
X130.984Y-42.694
X130.984Y-52.227
X148.147Y-61.894
X150.63Y-58.847
X151.393Y-40.482
X163.571Y-61.894
X167.172Y-81.275
X169.783Y-40.482
X169.783Y-58.847
X169.803Y-72.753
X186.428Y-62.311
X202.737Y-62.385
T2
X73.475Y-35.224
X73.475Y-37.764
X73.475Y-40.304
X73.475Y-42.844
X73.475Y-45.384
X73.475Y-47.924
X73.475Y-50.464
X73.475Y-53.004
X73.475Y-55.544
X73.475Y-58.084
X73.475Y-60.624
X73.475Y-63.164
X77.257Y-68.7
X79.797Y-68.7
X82.337Y-68.7
X84.877Y-68.7
X88.695Y-35.224
X88.695Y-37.764
X88.695Y-40.304
X88.695Y-42.844
X88.695Y-45.384
X88.695Y-47.924
X88.695Y-50.464
X88.695Y-53.004
X88.695Y-55.544
X88.695Y-58.084
X88.695Y-60.624
X88.695Y-63.164
T3
X73.817Y-76.182
X73.817Y-78.682
X73.817Y-81.182
X88.317Y-76.182
X88.317Y-81.182
T4
X81.317Y-73.082
X81.317Y-84.282
T0
M30
