G04 #@! TF.GenerationSoftware,KiCad,Pcbnew,(6.0.5)*
G04 #@! TF.CreationDate,2022-06-04T00:44:28+02:00*
G04 #@! TF.ProjectId,cheap_deck,63686561-705f-4646-9563-6b2e6b696361,3.0.1*
G04 #@! TF.SameCoordinates,Original*
G04 #@! TF.FileFunction,Copper,L2,Bot*
G04 #@! TF.FilePolarity,Positive*
%FSLAX46Y46*%
G04 Gerber Fmt 4.6, Leading zero omitted, Abs format (unit mm)*
G04 Created by KiCad (PCBNEW (6.0.5)) date 2022-06-04 00:44:28*
%MOMM*%
%LPD*%
G01*
G04 APERTURE LIST*
G04 #@! TA.AperFunction,SMDPad,CuDef*
%ADD10R,2.550000X2.500000*%
G04 #@! TD*
G04 #@! TA.AperFunction,ComponentPad*
%ADD11C,1.524000*%
G04 #@! TD*
G04 #@! TA.AperFunction,ComponentPad*
%ADD12C,1.397000*%
G04 #@! TD*
G04 #@! TA.AperFunction,ComponentPad*
%ADD13C,2.000000*%
G04 #@! TD*
G04 #@! TA.AperFunction,ComponentPad*
%ADD14C,3.200000*%
G04 #@! TD*
G04 #@! TA.AperFunction,ComponentPad*
%ADD15R,2.000000X2.000000*%
G04 #@! TD*
G04 #@! TA.AperFunction,SMDPad,CuDef*
%ADD16R,1.000000X1.400000*%
G04 #@! TD*
G04 #@! TA.AperFunction,SMDPad,CuDef*
%ADD17R,1.700000X1.000000*%
G04 #@! TD*
G04 #@! TA.AperFunction,ViaPad*
%ADD18C,0.600000*%
G04 #@! TD*
G04 #@! TA.AperFunction,Conductor*
%ADD19C,0.250000*%
G04 #@! TD*
G04 APERTURE END LIST*
D10*
X93985000Y-37902500D03*
X106912000Y-35362500D03*
X113035000Y-37902500D03*
X125962000Y-35362500D03*
X132085000Y-37902500D03*
X145012000Y-35362500D03*
X151135000Y-37902500D03*
X164062000Y-35362500D03*
X170185000Y-37902500D03*
X183112000Y-35362500D03*
X93985000Y-56952500D03*
X106912000Y-54412500D03*
X132085000Y-56952500D03*
X145012000Y-54412500D03*
X151135000Y-56952500D03*
X164062000Y-54412500D03*
X170185000Y-56952500D03*
X183112000Y-54412500D03*
X189235000Y-56952500D03*
X202162000Y-54412500D03*
X93985000Y-76002500D03*
X106912000Y-73462500D03*
X113035000Y-76002500D03*
X125962000Y-73462500D03*
X132085000Y-76002500D03*
X145012000Y-73462500D03*
X151135000Y-76002500D03*
X164062000Y-73462500D03*
X170185000Y-76002500D03*
X183112000Y-73462500D03*
D11*
X88695000Y-35223800D03*
X88695000Y-37763800D03*
X88695000Y-40303800D03*
X88695000Y-42843800D03*
X88695000Y-45383800D03*
X88695000Y-47923800D03*
X88695000Y-50463800D03*
X88695000Y-53003800D03*
X88695000Y-55543800D03*
X88695000Y-58083800D03*
X88695000Y-60623800D03*
X88695000Y-63163800D03*
X73475000Y-63163800D03*
X73475000Y-60623800D03*
X73475000Y-58083800D03*
X73475000Y-55543800D03*
X73475000Y-53003800D03*
X73475000Y-50463800D03*
X73475000Y-47923800D03*
X73475000Y-45383800D03*
X73475000Y-42843800D03*
X73475000Y-40303800D03*
X73475000Y-37763800D03*
X73475000Y-35223800D03*
D10*
X113035000Y-56952500D03*
X125962000Y-54412500D03*
X189235000Y-76002500D03*
X202162000Y-73462500D03*
X189235000Y-37902500D03*
X202162000Y-35362500D03*
D12*
X77257500Y-68700000D03*
X79797500Y-68700000D03*
X82337500Y-68700000D03*
X84877500Y-68700000D03*
D13*
X88317500Y-76182400D03*
X88317500Y-81182400D03*
D14*
X81317500Y-84282400D03*
X81317500Y-73082400D03*
D13*
X73817500Y-78682400D03*
X73817500Y-81182400D03*
D15*
X73817500Y-76182400D03*
D16*
X109007500Y-43198700D03*
X109007500Y-39648700D03*
X128057500Y-42405000D03*
X128057500Y-38855000D03*
X147107500Y-42405000D03*
X147107500Y-38855000D03*
X166157500Y-43011200D03*
X166157500Y-39461200D03*
X185207500Y-42405000D03*
X185207500Y-38855000D03*
X204257500Y-42405000D03*
X204257500Y-38855000D03*
X109007500Y-62248700D03*
X109007500Y-58698700D03*
X128057500Y-62248700D03*
X128057500Y-58698700D03*
X147107500Y-62248700D03*
X147107500Y-58698700D03*
X166157500Y-62248700D03*
X166157500Y-58698700D03*
X185207500Y-62248700D03*
X185207500Y-58698700D03*
X204257500Y-62248700D03*
X204257500Y-58698700D03*
X109007500Y-81298700D03*
X109007500Y-77748700D03*
X128057500Y-81111200D03*
X128057500Y-77561200D03*
X147107500Y-81298700D03*
X147107500Y-77748700D03*
X166157500Y-81111200D03*
X166157500Y-77561200D03*
X185207500Y-81298700D03*
X185207500Y-77748700D03*
X204257500Y-81298700D03*
X204257500Y-77748700D03*
D17*
X161052100Y-83965400D03*
X161052100Y-82565400D03*
X155552100Y-82565400D03*
X155552100Y-83965400D03*
X142230700Y-83965400D03*
X142230700Y-82565400D03*
X136730700Y-82565400D03*
X136730700Y-83965400D03*
X142433900Y-64813800D03*
X142433900Y-63413800D03*
X136933900Y-63413800D03*
X136933900Y-64813800D03*
X161376400Y-64955000D03*
X161376400Y-63555000D03*
X155876400Y-63555000D03*
X155876400Y-64955000D03*
X161356900Y-45967000D03*
X161356900Y-44567000D03*
X155856900Y-44567000D03*
X155856900Y-45967000D03*
X142230700Y-45852700D03*
X142230700Y-44452700D03*
X136730700Y-44452700D03*
X136730700Y-45852700D03*
X180470400Y-84054300D03*
X180470400Y-82654300D03*
X174970400Y-82654300D03*
X174970400Y-84054300D03*
X123378000Y-84005000D03*
X123378000Y-82605000D03*
X117878000Y-82605000D03*
X117878000Y-84005000D03*
X123295000Y-64978900D03*
X123295000Y-63578900D03*
X117795000Y-63578900D03*
X117795000Y-64978900D03*
X180521200Y-64902700D03*
X180521200Y-63502700D03*
X175021200Y-63502700D03*
X175021200Y-64902700D03*
X180508500Y-45852700D03*
X180508500Y-44452700D03*
X175008500Y-44452700D03*
X175008500Y-45852700D03*
X123320400Y-45814600D03*
X123320400Y-44414600D03*
X117820400Y-44414600D03*
X117820400Y-45814600D03*
X199406100Y-84016200D03*
X199406100Y-82616200D03*
X193906100Y-82616200D03*
X193906100Y-84016200D03*
X104156100Y-84079700D03*
X104156100Y-82679700D03*
X98656100Y-82679700D03*
X98656100Y-84079700D03*
X104181500Y-65007300D03*
X104181500Y-63607300D03*
X98681500Y-63607300D03*
X98681500Y-65007300D03*
X199456900Y-64931100D03*
X199456900Y-63531100D03*
X193956900Y-63531100D03*
X193956900Y-64931100D03*
X199565300Y-45765300D03*
X199565300Y-44365300D03*
X194065300Y-44365300D03*
X194065300Y-45765300D03*
X104270400Y-45967000D03*
X104270400Y-44567000D03*
X98770400Y-44567000D03*
X98770400Y-45967000D03*
D18*
X169803400Y-72753200D03*
X169782900Y-58847300D03*
X169782900Y-40481600D03*
X151392600Y-40481600D03*
X150629900Y-58847300D03*
X130984200Y-42693600D03*
X130984200Y-52226700D03*
X114357700Y-48637300D03*
X110972700Y-43353900D03*
X129091000Y-81179300D03*
X167172400Y-81274600D03*
X110843200Y-81337600D03*
X148147300Y-61893700D03*
X129161000Y-61893700D03*
X110187800Y-61893700D03*
X202737100Y-62384600D03*
X186428500Y-62311300D03*
X163570800Y-61893700D03*
D19*
X163716300Y-84054300D02*
X174970400Y-84054300D01*
X162227400Y-82565400D02*
X163716300Y-84054300D01*
X161052100Y-82565400D02*
X162227400Y-82565400D01*
X94282300Y-84079700D02*
X98656100Y-84079700D01*
X86943200Y-76740600D02*
X94282300Y-84079700D01*
X86943200Y-75669100D02*
X86943200Y-76740600D01*
X87774400Y-74837900D02*
X86943200Y-75669100D01*
X89002200Y-74837900D02*
X87774400Y-74837900D01*
X95082200Y-80917900D02*
X89002200Y-74837900D01*
X102094200Y-80917900D02*
X95082200Y-80917900D01*
X103449200Y-79562900D02*
X102094200Y-80917900D01*
X103449200Y-76994300D02*
X103449200Y-79562900D01*
X97055800Y-70600900D02*
X103449200Y-76994300D01*
X97055800Y-63414400D02*
X97055800Y-70600900D01*
X98070300Y-62399900D02*
X97055800Y-63414400D01*
X103388100Y-62399900D02*
X98070300Y-62399900D01*
X104181500Y-63193300D02*
X103388100Y-62399900D01*
X104181500Y-63607300D02*
X104181500Y-63193300D01*
X155876400Y-65391800D02*
X155876400Y-64955000D01*
X156648400Y-66163800D02*
X155876400Y-65391800D01*
X165427900Y-66163800D02*
X156648400Y-66163800D01*
X169301500Y-62290200D02*
X165427900Y-66163800D01*
X179724400Y-62290200D02*
X169301500Y-62290200D01*
X180521200Y-63087000D02*
X179724400Y-62290200D01*
X180521200Y-63502700D02*
X180521200Y-63087000D01*
X199456900Y-63531100D02*
X200632200Y-63531100D01*
X175021200Y-65342900D02*
X175021200Y-64902700D01*
X175764200Y-66085900D02*
X175021200Y-65342900D01*
X187912600Y-66085900D02*
X175764200Y-66085900D01*
X188433100Y-66606400D02*
X187912600Y-66085900D01*
X199633800Y-66606400D02*
X188433100Y-66606400D01*
X200632200Y-65608000D02*
X199633800Y-66606400D01*
X200632200Y-63531100D02*
X200632200Y-65608000D01*
X187634600Y-59784100D02*
X192781600Y-64931100D01*
X187634600Y-55567800D02*
X187634600Y-59784100D01*
X190143400Y-53059000D02*
X187634600Y-55567800D01*
X194140400Y-53059000D02*
X190143400Y-53059000D01*
X200740600Y-46458800D02*
X194140400Y-53059000D01*
X200740600Y-44365300D02*
X200740600Y-46458800D01*
X199565300Y-44365300D02*
X200740600Y-44365300D01*
X193956900Y-64931100D02*
X192781600Y-64931100D01*
X149607700Y-45967000D02*
X155856900Y-45967000D01*
X148093400Y-44452700D02*
X149607700Y-45967000D01*
X142230700Y-44452700D02*
X148093400Y-44452700D01*
X125933800Y-45852700D02*
X136730700Y-45852700D01*
X124495700Y-44414600D02*
X125933800Y-45852700D01*
X123320400Y-44414600D02*
X124495700Y-44414600D01*
X161356900Y-45967000D02*
X162532200Y-45967000D01*
X142433900Y-64813800D02*
X143609200Y-64813800D01*
X123320400Y-45814600D02*
X124495700Y-45814600D01*
X161052100Y-83965400D02*
X161639800Y-83965400D01*
X142230700Y-83965400D02*
X143406000Y-83965400D01*
X147938800Y-59707600D02*
X147938800Y-49922700D01*
X143609200Y-64037200D02*
X147938800Y-59707600D01*
X143609200Y-64813800D02*
X143609200Y-64037200D01*
X145931000Y-49922700D02*
X147938800Y-49922700D01*
X142230700Y-46222400D02*
X145931000Y-49922700D01*
X141420100Y-47033000D02*
X142230700Y-46222400D01*
X125714100Y-47033000D02*
X141420100Y-47033000D01*
X124495700Y-45814600D02*
X125714100Y-47033000D01*
X142230700Y-46222400D02*
X142230700Y-45852700D01*
X180521200Y-64902700D02*
X181696500Y-64902700D01*
X104181500Y-65007300D02*
X105356800Y-65007300D01*
X123295000Y-64978900D02*
X124470300Y-64978900D01*
X124139000Y-85140800D02*
X123378000Y-84379800D01*
X141415700Y-85140800D02*
X124139000Y-85140800D01*
X142230700Y-84325800D02*
X141415700Y-85140800D01*
X142230700Y-83965400D02*
X142230700Y-84325800D01*
X123378000Y-84379800D02*
X123378000Y-84005000D01*
X104270400Y-45967000D02*
X105445700Y-45967000D01*
X123320400Y-46209300D02*
X123320400Y-45814600D01*
X119758900Y-49770800D02*
X123320400Y-46209300D01*
X119758900Y-54162300D02*
X119758900Y-49770800D01*
X123745400Y-58148800D02*
X119758900Y-54162300D01*
X123745400Y-60042900D02*
X123745400Y-58148800D01*
X124470300Y-60767800D02*
X123745400Y-60042900D01*
X124470300Y-64978900D02*
X124470300Y-60767800D01*
X106271000Y-46792300D02*
X105445700Y-45967000D01*
X116780400Y-46792300D02*
X106271000Y-46792300D01*
X119758900Y-49770800D02*
X116780400Y-46792300D01*
X144621000Y-85180400D02*
X143406000Y-83965400D01*
X160424800Y-85180400D02*
X144621000Y-85180400D01*
X161639800Y-83965400D02*
X160424800Y-85180400D01*
X181199100Y-85229700D02*
X180470400Y-84501000D01*
X198565400Y-85229700D02*
X181199100Y-85229700D01*
X199406100Y-84389000D02*
X198565400Y-85229700D01*
X199406100Y-84016200D02*
X199406100Y-84389000D01*
X179691900Y-85279500D02*
X180470400Y-84501000D01*
X162953900Y-85279500D02*
X179691900Y-85279500D01*
X161639800Y-83965400D02*
X162953900Y-85279500D01*
X180470400Y-84501000D02*
X180470400Y-84054300D01*
X163618300Y-47053100D02*
X162532200Y-45967000D01*
X180508500Y-47053100D02*
X163618300Y-47053100D01*
X180508500Y-45852700D02*
X180508500Y-47053100D01*
X184721500Y-64902700D02*
X187120600Y-62503600D01*
X181696500Y-64902700D02*
X184721500Y-64902700D01*
X199456900Y-65357000D02*
X199456900Y-64931100D01*
X198667200Y-66146700D02*
X199456900Y-65357000D01*
X190763700Y-66146700D02*
X198667200Y-66146700D01*
X187120600Y-62503600D02*
X190763700Y-66146700D01*
X188722300Y-52063500D02*
X187120600Y-53665200D01*
X193686800Y-52063500D02*
X188722300Y-52063500D01*
X199565300Y-46185000D02*
X193686800Y-52063500D01*
X199565300Y-45765300D02*
X199565300Y-46185000D01*
X180508500Y-47053100D02*
X187120600Y-53665200D01*
X187120600Y-53665200D02*
X187120600Y-62503600D01*
X161376400Y-64955000D02*
X162551700Y-64955000D01*
X162551700Y-60767800D02*
X162551700Y-64955000D01*
X161826800Y-60042900D02*
X162551700Y-60767800D01*
X161826800Y-58133800D02*
X161826800Y-60042900D01*
X157831200Y-54138200D02*
X161826800Y-58133800D01*
X157831200Y-49922700D02*
X157831200Y-54138200D01*
X147938800Y-49922700D02*
X157831200Y-49922700D01*
X161356900Y-46397000D02*
X161356900Y-45967000D01*
X157831200Y-49922700D02*
X161356900Y-46397000D01*
X103469300Y-58531400D02*
X103469300Y-61917600D01*
X101738600Y-56800700D02*
X103469300Y-58531400D01*
X101738600Y-51974900D02*
X101738600Y-56800700D01*
X104270400Y-49443100D02*
X101738600Y-51974900D01*
X104270400Y-45967000D02*
X104270400Y-49443100D01*
X104828900Y-85197200D02*
X104156100Y-84524400D01*
X122560600Y-85197200D02*
X104828900Y-85197200D01*
X123378000Y-84379800D02*
X122560600Y-85197200D01*
X104156100Y-84524400D02*
X104156100Y-84079700D01*
X104375900Y-61917600D02*
X103469300Y-61917600D01*
X105356800Y-62898500D02*
X104375900Y-61917600D01*
X105356800Y-65007300D02*
X105356800Y-62898500D01*
X82337500Y-69331600D02*
X82337500Y-68700000D01*
X87393500Y-74387600D02*
X82337500Y-69331600D01*
X89227300Y-74387600D02*
X87393500Y-74387600D01*
X94657600Y-79817900D02*
X89227300Y-74387600D01*
X96611200Y-79817900D02*
X94657600Y-79817900D01*
X97752300Y-78676800D02*
X96611200Y-79817900D01*
X97752300Y-78296300D02*
X97752300Y-78676800D01*
X99089800Y-76958800D02*
X97752300Y-78296300D01*
X99089800Y-74547100D02*
X99089800Y-76958800D01*
X96605500Y-72062800D02*
X99089800Y-74547100D01*
X96605500Y-63227800D02*
X96605500Y-72062800D01*
X97915700Y-61917600D02*
X96605500Y-63227800D01*
X103469300Y-61917600D02*
X97915700Y-61917600D01*
X103425400Y-85255100D02*
X104156100Y-84524400D01*
X94820800Y-85255100D02*
X103425400Y-85255100D01*
X86492900Y-76927200D02*
X94820800Y-85255100D01*
X86492900Y-75288200D02*
X86492900Y-76927200D01*
X87393500Y-74387600D02*
X86492900Y-75288200D01*
X144806000Y-83965400D02*
X155552100Y-83965400D01*
X143406000Y-82565400D02*
X144806000Y-83965400D01*
X142230700Y-82565400D02*
X143406000Y-82565400D01*
X182547300Y-44452700D02*
X180508500Y-44452700D01*
X183859900Y-45765300D02*
X182547300Y-44452700D01*
X194065300Y-45765300D02*
X183859900Y-45765300D01*
X164757500Y-44567000D02*
X161356900Y-44567000D01*
X166043200Y-45852700D02*
X164757500Y-44567000D01*
X175008500Y-45852700D02*
X166043200Y-45852700D01*
X185169400Y-84016200D02*
X193906100Y-84016200D01*
X183807500Y-82654300D02*
X185169400Y-84016200D01*
X180470400Y-82654300D02*
X183807500Y-82654300D01*
X111557300Y-84005000D02*
X117878000Y-84005000D01*
X110232000Y-82679700D02*
X111557300Y-84005000D01*
X104156100Y-82679700D02*
X110232000Y-82679700D01*
X123295000Y-58941200D02*
X123295000Y-63578900D01*
X114983100Y-50629300D02*
X123295000Y-58941200D01*
X114983100Y-48355700D02*
X114983100Y-50629300D01*
X114639200Y-48011800D02*
X114983100Y-48355700D01*
X114044600Y-48011800D02*
X114639200Y-48011800D01*
X113589600Y-48466800D02*
X114044600Y-48011800D01*
X113589600Y-50849700D02*
X113589600Y-48466800D01*
X110380300Y-54059000D02*
X113589600Y-50849700D01*
X110380300Y-59172000D02*
X110380300Y-54059000D01*
X107425400Y-62126900D02*
X110380300Y-59172000D01*
X107425400Y-63610200D02*
X107425400Y-62126900D01*
X104820500Y-66215100D02*
X107425400Y-63610200D01*
X99506700Y-66215100D02*
X104820500Y-66215100D01*
X98681500Y-65389900D02*
X99506700Y-66215100D01*
X98681500Y-65007300D02*
X98681500Y-65389900D01*
X161376400Y-59270200D02*
X161376400Y-63555000D01*
X157199800Y-55093600D02*
X161376400Y-59270200D01*
X149930100Y-55093600D02*
X157199800Y-55093600D01*
X149236500Y-55787200D02*
X149930100Y-55093600D01*
X149236500Y-61788200D02*
X149236500Y-55787200D01*
X144990800Y-66033900D02*
X149236500Y-61788200D01*
X137791000Y-66033900D02*
X144990800Y-66033900D01*
X136933900Y-65176800D02*
X137791000Y-66033900D01*
X136933900Y-64813800D02*
X136933900Y-65176800D01*
X130599000Y-83965400D02*
X136730700Y-83965400D01*
X129238600Y-82605000D02*
X130599000Y-83965400D01*
X123378000Y-82605000D02*
X129238600Y-82605000D01*
X142433900Y-59319600D02*
X142433900Y-63413800D01*
X134706500Y-51592200D02*
X142433900Y-59319600D01*
X130673300Y-51592200D02*
X134706500Y-51592200D01*
X130336800Y-51928700D02*
X130673300Y-51592200D01*
X130336800Y-58265500D02*
X130336800Y-51928700D01*
X126475400Y-62126900D02*
X130336800Y-58265500D01*
X126475400Y-63620100D02*
X126475400Y-62126900D01*
X123899100Y-66196400D02*
X126475400Y-63620100D01*
X118629800Y-66196400D02*
X123899100Y-66196400D01*
X117795000Y-65361600D02*
X118629800Y-66196400D01*
X117795000Y-64978900D02*
X117795000Y-65361600D01*
X104270400Y-44567000D02*
X105445700Y-44567000D01*
X117820400Y-45814600D02*
X116645100Y-45814600D01*
X106693300Y-45814600D02*
X105445700Y-44567000D01*
X116645100Y-45814600D02*
X106693300Y-45814600D01*
X83857300Y-60623800D02*
X88695000Y-60623800D01*
X76015500Y-68465600D02*
X83857300Y-60623800D01*
X76015500Y-78984400D02*
X76015500Y-68465600D01*
X73817500Y-81182400D02*
X76015500Y-78984400D01*
X85751100Y-58083800D02*
X88695000Y-58083800D01*
X73817500Y-70017400D02*
X85751100Y-58083800D01*
X73817500Y-76182400D02*
X73817500Y-70017400D01*
X78297100Y-69739600D02*
X77257500Y-68700000D01*
X80206000Y-69739600D02*
X78297100Y-69739600D01*
X80908200Y-69037400D02*
X80206000Y-69739600D01*
X80908200Y-68633900D02*
X80908200Y-69037400D01*
X83943200Y-65598900D02*
X80908200Y-68633900D01*
X87846900Y-65598900D02*
X83943200Y-65598900D01*
X90711200Y-62734600D02*
X87846900Y-65598900D01*
X90711200Y-47400000D02*
X90711200Y-62734600D01*
X88695000Y-45383800D02*
X90711200Y-47400000D01*
X86603700Y-61893800D02*
X79797500Y-68700000D01*
X88987800Y-61893800D02*
X86603700Y-61893800D01*
X90255100Y-60626500D02*
X88987800Y-61893800D01*
X90255100Y-49483900D02*
X90255100Y-60626500D01*
X88695000Y-47923800D02*
X90255100Y-49483900D01*
X90147600Y-36676400D02*
X88695000Y-35223800D01*
X90147600Y-38519500D02*
X90147600Y-36676400D01*
X97595100Y-45967000D02*
X90147600Y-38519500D01*
X98770400Y-45967000D02*
X97595100Y-45967000D01*
X189235000Y-56952500D02*
X189235000Y-55377200D01*
X190850000Y-53762200D02*
X194588300Y-53762200D01*
X189235000Y-55377200D02*
X190850000Y-53762200D01*
X190226000Y-73436200D02*
X189235000Y-74427200D01*
X194128000Y-73436200D02*
X190226000Y-73436200D01*
X201591700Y-65972500D02*
X194128000Y-73436200D01*
X201591700Y-62382000D02*
X201591700Y-65972500D01*
X199189400Y-59979700D02*
X201591700Y-62382000D01*
X199189400Y-58363300D02*
X199189400Y-59979700D01*
X194588300Y-53762200D02*
X199189400Y-58363300D01*
X189235000Y-76002500D02*
X189235000Y-74427200D01*
X189235000Y-37902500D02*
X189235000Y-36327200D01*
X205082900Y-43267600D02*
X194588300Y-53762200D01*
X205082900Y-41558300D02*
X205082900Y-43267600D01*
X202516300Y-38991700D02*
X205082900Y-41558300D01*
X198228600Y-38991700D02*
X202516300Y-38991700D01*
X195310700Y-36073800D02*
X198228600Y-38991700D01*
X189488400Y-36073800D02*
X195310700Y-36073800D01*
X189235000Y-36327200D02*
X189488400Y-36073800D01*
X72377400Y-56986200D02*
X73475000Y-58083800D01*
X72377400Y-44894700D02*
X72377400Y-56986200D01*
X73158300Y-44113800D02*
X72377400Y-44894700D01*
X73929200Y-44113800D02*
X73158300Y-44113800D01*
X85320300Y-32722700D02*
X73929200Y-44113800D01*
X185630500Y-32722700D02*
X85320300Y-32722700D01*
X189235000Y-36327200D02*
X185630500Y-32722700D01*
X170185000Y-73134800D02*
X170185000Y-76002500D01*
X169803400Y-72753200D02*
X170185000Y-73134800D01*
X170102400Y-58527800D02*
X170185000Y-58527800D01*
X169782900Y-58847300D02*
X170102400Y-58527800D01*
X170185000Y-56952500D02*
X170185000Y-58527800D01*
X170185000Y-40079500D02*
X170185000Y-37902500D01*
X169782900Y-40481600D02*
X170185000Y-40079500D01*
X151135000Y-40224000D02*
X151135000Y-37902500D01*
X151392600Y-40481600D02*
X151135000Y-40224000D01*
X151135000Y-56952500D02*
X151135000Y-58527800D01*
X151135000Y-76002500D02*
X151135000Y-74427200D01*
X150629900Y-73922100D02*
X151135000Y-74427200D01*
X150629900Y-58847300D02*
X150629900Y-73922100D01*
X150949400Y-58527800D02*
X151135000Y-58527800D01*
X150629900Y-58847300D02*
X150949400Y-58527800D01*
X132085000Y-37902500D02*
X132085000Y-39477800D01*
X130984200Y-40578600D02*
X130984200Y-42693600D01*
X132085000Y-39477800D02*
X130984200Y-40578600D01*
X132085000Y-76002500D02*
X132085000Y-74427200D01*
X132085000Y-53327500D02*
X130984200Y-52226700D01*
X132085000Y-56952500D02*
X132085000Y-53327500D01*
X132085000Y-56952500D02*
X132085000Y-74427200D01*
X113035000Y-76002500D02*
X113035000Y-74427200D01*
X113110700Y-74351500D02*
X113035000Y-74427200D01*
X113110700Y-58603500D02*
X113110700Y-74351500D01*
X113035000Y-58527800D02*
X113110700Y-58603500D01*
X113035000Y-56952500D02*
X113035000Y-58527800D01*
X113035000Y-56952500D02*
X113035000Y-55377200D01*
X114357700Y-54054500D02*
X114357700Y-48637300D01*
X113035000Y-55377200D02*
X114357700Y-54054500D01*
X113035000Y-37902500D02*
X113035000Y-39477800D01*
X110972700Y-41540100D02*
X110972700Y-43353900D01*
X113035000Y-39477800D02*
X110972700Y-41540100D01*
X93985000Y-37902500D02*
X93985000Y-36327200D01*
X87585200Y-44935800D02*
X88407200Y-44113800D01*
X87585200Y-48369500D02*
X87585200Y-44935800D01*
X88409500Y-49193800D02*
X87585200Y-48369500D01*
X88988800Y-49193800D02*
X88409500Y-49193800D01*
X89804800Y-50009800D02*
X88988800Y-49193800D01*
X89804800Y-50934200D02*
X89804800Y-50009800D01*
X89105200Y-51633800D02*
X89804800Y-50934200D01*
X79725000Y-51633800D02*
X89105200Y-51633800D01*
X73475000Y-45383800D02*
X79725000Y-51633800D01*
X91319800Y-33662000D02*
X93985000Y-36327200D01*
X87971300Y-33662000D02*
X91319800Y-33662000D01*
X87126000Y-34507300D02*
X87971300Y-33662000D01*
X87126000Y-42832600D02*
X87126000Y-34507300D01*
X88407200Y-44113800D02*
X87126000Y-42832600D01*
X93985000Y-76002500D02*
X93985000Y-74427200D01*
X93985000Y-49072600D02*
X93985000Y-56952500D01*
X89026200Y-44113800D02*
X93985000Y-49072600D01*
X88407200Y-44113800D02*
X89026200Y-44113800D01*
X93985000Y-56952500D02*
X93985000Y-74427200D01*
X136933900Y-63413800D02*
X135758600Y-63413800D01*
X194065300Y-44365300D02*
X192890000Y-44365300D01*
X136730700Y-82565400D02*
X135555400Y-82565400D01*
X165280100Y-44452700D02*
X175008500Y-44452700D01*
X164219000Y-43391600D02*
X165280100Y-44452700D01*
X156652100Y-43391600D02*
X164219000Y-43391600D01*
X155856900Y-44186800D02*
X156652100Y-43391600D01*
X155856900Y-44567000D02*
X155856900Y-44186800D01*
X155856900Y-44567000D02*
X154681600Y-44567000D01*
X88695000Y-42843800D02*
X88695000Y-40303800D01*
X127208900Y-81923300D02*
X127208900Y-81361100D01*
X127422100Y-82136500D02*
X127208900Y-81923300D01*
X135126500Y-82136500D02*
X127422100Y-82136500D01*
X135555400Y-82565400D02*
X135126500Y-82136500D01*
X117795000Y-63578900D02*
X116619700Y-63578900D01*
X127208900Y-81361100D02*
X118687600Y-81361100D01*
X117878000Y-82170700D02*
X117878000Y-82605000D01*
X118687600Y-81361100D02*
X117878000Y-82170700D01*
X175008500Y-44036500D02*
X175008500Y-44452700D01*
X175804400Y-43240600D02*
X175008500Y-44036500D01*
X182104000Y-43240600D02*
X175804400Y-43240600D01*
X183228700Y-44365300D02*
X182104000Y-43240600D01*
X192890000Y-44365300D02*
X183228700Y-44365300D01*
X175021200Y-63502700D02*
X173845900Y-63502700D01*
X135555400Y-78593200D02*
X137981500Y-76167100D01*
X135555400Y-78901900D02*
X135555400Y-78593200D01*
X134629700Y-79827600D02*
X135555400Y-78901900D01*
X127664100Y-79827600D02*
X134629700Y-79827600D01*
X127208900Y-80282800D02*
X127664100Y-79827600D01*
X127208900Y-81361100D02*
X127208900Y-80282800D01*
X135758600Y-73599200D02*
X135758600Y-63413800D01*
X137981500Y-75822100D02*
X135758600Y-73599200D01*
X137981500Y-76167100D02*
X137981500Y-75822100D01*
X155552100Y-82565400D02*
X154376800Y-82565400D01*
X150091000Y-82565400D02*
X154376800Y-82565400D01*
X143692700Y-76167100D02*
X150091000Y-82565400D01*
X137981500Y-76167100D02*
X143692700Y-76167100D01*
X155876400Y-63555000D02*
X154701100Y-63555000D01*
X155552100Y-82097300D02*
X155552100Y-82565400D01*
X156332400Y-81317000D02*
X155552100Y-82097300D01*
X160610000Y-81317000D02*
X156332400Y-81317000D01*
X173845900Y-63502700D02*
X173845900Y-65544000D01*
X158910600Y-75825200D02*
X158910600Y-66684500D01*
X160610000Y-77524600D02*
X158910600Y-75825200D01*
X160610000Y-81317000D02*
X160610000Y-77524600D01*
X155776800Y-66684500D02*
X158910600Y-66684500D01*
X154701100Y-65608800D02*
X155776800Y-66684500D01*
X154701100Y-63555000D02*
X154701100Y-65608800D01*
X166906000Y-65544000D02*
X173845900Y-65544000D01*
X165765500Y-66684500D02*
X166906000Y-65544000D01*
X158910600Y-66684500D02*
X165765500Y-66684500D01*
X174970400Y-82654300D02*
X174787600Y-82471500D01*
X163604700Y-81317000D02*
X160610000Y-81317000D01*
X164759200Y-82471500D02*
X163604700Y-81317000D01*
X174787600Y-82471500D02*
X164759200Y-82471500D01*
X184406300Y-82616200D02*
X193906100Y-82616200D01*
X183233500Y-81443400D02*
X184406300Y-82616200D01*
X175815700Y-81443400D02*
X183233500Y-81443400D01*
X174787600Y-82471500D02*
X175815700Y-81443400D01*
X179609500Y-71307600D02*
X173845900Y-65544000D01*
X195619700Y-71307600D02*
X179609500Y-71307600D01*
X201138000Y-65789300D02*
X195619700Y-71307600D01*
X201138000Y-63353400D02*
X201138000Y-65789300D01*
X200119600Y-62335000D02*
X201138000Y-63353400D01*
X194711100Y-62335000D02*
X200119600Y-62335000D01*
X193956900Y-63089200D02*
X194711100Y-62335000D01*
X193956900Y-63531100D02*
X193956900Y-63089200D01*
X117820400Y-44414600D02*
X116645100Y-44414600D01*
X96864700Y-43805000D02*
X98390100Y-43805000D01*
X91904500Y-38844800D02*
X96864700Y-43805000D01*
X91904500Y-36825700D02*
X91904500Y-38844800D01*
X89191100Y-34112300D02*
X91904500Y-36825700D01*
X88205000Y-34112300D02*
X89191100Y-34112300D01*
X87590100Y-34727200D02*
X88205000Y-34112300D01*
X87590100Y-39198900D02*
X87590100Y-34727200D01*
X88695000Y-40303800D02*
X87590100Y-39198900D01*
X98390100Y-44186700D02*
X98390100Y-43805000D01*
X98770400Y-44567000D02*
X98390100Y-44186700D01*
X116590100Y-44469600D02*
X116645100Y-44414600D01*
X107059500Y-44469600D02*
X116590100Y-44469600D01*
X105981100Y-43391200D02*
X107059500Y-44469600D01*
X98803900Y-43391200D02*
X105981100Y-43391200D01*
X98390100Y-43805000D02*
X98803900Y-43391200D01*
X117820500Y-44414600D02*
X117820400Y-44414600D01*
X117820500Y-44046000D02*
X117820500Y-44414600D01*
X118634500Y-43232000D02*
X117820500Y-44046000D01*
X124959700Y-43232000D02*
X118634500Y-43232000D01*
X125800200Y-44072500D02*
X124959700Y-43232000D01*
X136730700Y-44072500D02*
X125800200Y-44072500D01*
X137549400Y-43253800D02*
X136730700Y-44072500D01*
X143229500Y-43253800D02*
X137549400Y-43253800D01*
X143717400Y-43741700D02*
X143229500Y-43253800D01*
X153856300Y-43741700D02*
X143717400Y-43741700D01*
X154681600Y-44567000D02*
X153856300Y-43741700D01*
X136730700Y-44072500D02*
X136730700Y-44452700D01*
X117742200Y-77356400D02*
X117742200Y-80261900D01*
X118183200Y-76915400D02*
X117742200Y-77356400D01*
X118183200Y-74017300D02*
X118183200Y-76915400D01*
X116619700Y-72453800D02*
X118183200Y-74017300D01*
X116619700Y-63578900D02*
X116619700Y-72453800D01*
X117742200Y-80415700D02*
X118687600Y-81361100D01*
X117742200Y-80261900D02*
X117742200Y-80415700D01*
X104241500Y-80261900D02*
X117742200Y-80261900D01*
X98681500Y-63607300D02*
X97506200Y-63607300D01*
X98656100Y-82679700D02*
X98656100Y-82283900D01*
X103067200Y-81436200D02*
X104241500Y-80261900D01*
X99503800Y-81436200D02*
X103067200Y-81436200D01*
X98656100Y-82283900D02*
X99503800Y-81436200D01*
X97506200Y-70297100D02*
X97506200Y-63607300D01*
X104241500Y-77032400D02*
X97506200Y-70297100D01*
X104241500Y-80261900D02*
X104241500Y-77032400D01*
X94419000Y-82283900D02*
X88317500Y-76182400D01*
X98656100Y-82283900D02*
X94419000Y-82283900D01*
X203847600Y-76723400D02*
X202162000Y-75037800D01*
X204257500Y-76723400D02*
X203847600Y-76723400D01*
X202162000Y-73462500D02*
X202162000Y-75037800D01*
X204257500Y-77748700D02*
X204257500Y-76723400D01*
X184797600Y-76723400D02*
X183112000Y-75037800D01*
X185207500Y-76723400D02*
X184797600Y-76723400D01*
X183112000Y-73462500D02*
X183112000Y-75037800D01*
X185207500Y-77748700D02*
X185207500Y-76723400D01*
X165560100Y-76535900D02*
X164062000Y-75037800D01*
X166157500Y-76535900D02*
X165560100Y-76535900D01*
X164062000Y-73462500D02*
X164062000Y-75037800D01*
X166157500Y-77561200D02*
X166157500Y-76535900D01*
X146697600Y-76723400D02*
X145012000Y-75037800D01*
X147107500Y-76723400D02*
X146697600Y-76723400D01*
X145012000Y-73462500D02*
X145012000Y-75037800D01*
X147107500Y-77748700D02*
X147107500Y-76723400D01*
X127460100Y-76535900D02*
X125962000Y-75037800D01*
X128057500Y-76535900D02*
X127460100Y-76535900D01*
X125962000Y-73462500D02*
X125962000Y-75037800D01*
X128057500Y-77561200D02*
X128057500Y-76535900D01*
X108597600Y-76723400D02*
X106912000Y-75037800D01*
X109007500Y-76723400D02*
X108597600Y-76723400D01*
X106912000Y-73462500D02*
X106912000Y-75037800D01*
X109007500Y-77748700D02*
X109007500Y-76723400D01*
X203847600Y-57673400D02*
X202162000Y-55987800D01*
X204257500Y-57673400D02*
X203847600Y-57673400D01*
X202162000Y-54412500D02*
X202162000Y-55987800D01*
X204257500Y-58698700D02*
X204257500Y-57673400D01*
X184797600Y-57673400D02*
X183112000Y-55987800D01*
X185207500Y-57673400D02*
X184797600Y-57673400D01*
X183112000Y-54412500D02*
X183112000Y-55987800D01*
X185207500Y-58698700D02*
X185207500Y-57673400D01*
X165747600Y-57673400D02*
X164062000Y-55987800D01*
X166157500Y-57673400D02*
X165747600Y-57673400D01*
X164062000Y-54412500D02*
X164062000Y-55987800D01*
X166157500Y-58698700D02*
X166157500Y-57673400D01*
X146697600Y-57673400D02*
X145012000Y-55987800D01*
X147107500Y-57673400D02*
X146697600Y-57673400D01*
X145012000Y-54412500D02*
X145012000Y-55987800D01*
X147107500Y-58698700D02*
X147107500Y-57673400D01*
X127647600Y-57673400D02*
X125962000Y-55987800D01*
X128057500Y-57673400D02*
X127647600Y-57673400D01*
X125962000Y-54412500D02*
X125962000Y-55987800D01*
X128057500Y-58698700D02*
X128057500Y-57673400D01*
X108597600Y-57673400D02*
X106912000Y-55987800D01*
X109007500Y-57673400D02*
X108597600Y-57673400D01*
X106912000Y-54412500D02*
X106912000Y-55987800D01*
X109007500Y-58698700D02*
X109007500Y-57673400D01*
X203432200Y-38208000D02*
X202162000Y-36937800D01*
X203432200Y-38855000D02*
X203432200Y-38208000D01*
X202162000Y-35362500D02*
X202162000Y-36937800D01*
X204257500Y-38855000D02*
X203432200Y-38855000D01*
X184382200Y-38208000D02*
X183112000Y-36937800D01*
X184382200Y-38855000D02*
X184382200Y-38208000D01*
X183112000Y-35362500D02*
X183112000Y-36937800D01*
X185207500Y-38855000D02*
X184382200Y-38855000D01*
X165560100Y-38435900D02*
X164062000Y-36937800D01*
X166157500Y-38435900D02*
X165560100Y-38435900D01*
X164062000Y-35362500D02*
X164062000Y-36937800D01*
X166157500Y-39461200D02*
X166157500Y-38435900D01*
X146282200Y-38208000D02*
X145012000Y-36937800D01*
X146282200Y-38855000D02*
X146282200Y-38208000D01*
X147107500Y-38855000D02*
X146282200Y-38855000D01*
X145012000Y-35362500D02*
X145012000Y-36937800D01*
X128057500Y-81111200D02*
X128882800Y-81111200D01*
X128950900Y-81179300D02*
X129091000Y-81179300D01*
X128882800Y-81111200D02*
X128950900Y-81179300D01*
X129210400Y-81298700D02*
X129091000Y-81179300D01*
X147107500Y-81298700D02*
X129210400Y-81298700D01*
X166157500Y-81111200D02*
X166982800Y-81111200D01*
X167009000Y-81111200D02*
X167172400Y-81274600D01*
X166982800Y-81111200D02*
X167009000Y-81111200D01*
X109871700Y-81337600D02*
X109832800Y-81298700D01*
X110843200Y-81337600D02*
X109871700Y-81337600D01*
X109007500Y-81298700D02*
X109832800Y-81298700D01*
X167513400Y-80933600D02*
X167172400Y-81274600D01*
X184017100Y-80933600D02*
X167513400Y-80933600D01*
X184382200Y-81298700D02*
X184017100Y-80933600D01*
X185207500Y-81298700D02*
X184382200Y-81298700D01*
X204257500Y-81298700D02*
X185207500Y-81298700D01*
X127232200Y-38208000D02*
X125962000Y-36937800D01*
X127232200Y-38855000D02*
X127232200Y-38208000D01*
X128057500Y-38855000D02*
X127232200Y-38855000D01*
X125962000Y-35362500D02*
X125962000Y-36937800D01*
X147932800Y-62108200D02*
X147932800Y-62248700D01*
X148147300Y-61893700D02*
X147932800Y-62108200D01*
X147107500Y-62248700D02*
X147932800Y-62248700D01*
X128057500Y-62248700D02*
X128882800Y-62248700D01*
X128882800Y-62171900D02*
X129161000Y-61893700D01*
X128882800Y-62248700D02*
X128882800Y-62171900D01*
X109007500Y-62248700D02*
X109832800Y-62248700D01*
X109832800Y-62248700D02*
X110187800Y-61893700D01*
X167808100Y-61423400D02*
X166982800Y-62248700D01*
X172068800Y-61423400D02*
X167808100Y-61423400D01*
X173952300Y-59539900D02*
X172068800Y-61423400D01*
X173952300Y-59441800D02*
X173952300Y-59539900D01*
X176280500Y-57113600D02*
X173952300Y-59441800D01*
X178307700Y-57113600D02*
X176280500Y-57113600D01*
X179933100Y-58739000D02*
X178307700Y-57113600D01*
X179933100Y-58891100D02*
X179933100Y-58739000D01*
X183290700Y-62248700D02*
X179933100Y-58891100D01*
X185207500Y-62248700D02*
X183290700Y-62248700D01*
X202873000Y-62248700D02*
X202737100Y-62384600D01*
X204257500Y-62248700D02*
X202873000Y-62248700D01*
X186365900Y-62248700D02*
X186032800Y-62248700D01*
X186428500Y-62311300D02*
X186365900Y-62248700D01*
X185207500Y-62248700D02*
X186032800Y-62248700D01*
X166570200Y-62248700D02*
X166982800Y-62248700D01*
X166570200Y-62248700D02*
X166157500Y-62248700D01*
X163925800Y-62248700D02*
X163570800Y-61893700D01*
X166157500Y-62248700D02*
X163925800Y-62248700D01*
X108597600Y-38623400D02*
X106912000Y-36937800D01*
X109007500Y-38623400D02*
X108597600Y-38623400D01*
X106912000Y-35362500D02*
X106912000Y-36937800D01*
X109007500Y-39648700D02*
X109007500Y-38623400D01*
X166157500Y-43011200D02*
X165332200Y-43011200D01*
X165252100Y-42931100D02*
X165332200Y-43011200D01*
X148458900Y-42931100D02*
X165252100Y-42931100D01*
X147932800Y-42405000D02*
X148458900Y-42931100D01*
X185207500Y-42405000D02*
X185207500Y-41379700D01*
X171498800Y-43011200D02*
X166157500Y-43011200D01*
X173952300Y-40557700D02*
X171498800Y-43011200D01*
X173952300Y-40391800D02*
X173952300Y-40557700D01*
X176301600Y-38042500D02*
X173952300Y-40391800D01*
X181870300Y-38042500D02*
X176301600Y-38042500D01*
X185207500Y-41379700D02*
X181870300Y-38042500D01*
X186456700Y-42828900D02*
X186032800Y-42405000D01*
X203008300Y-42828900D02*
X186456700Y-42828900D01*
X203432200Y-42405000D02*
X203008300Y-42828900D01*
X204257500Y-42405000D02*
X203432200Y-42405000D01*
X185207500Y-42405000D02*
X186032800Y-42405000D01*
X86663700Y-48432500D02*
X88695000Y-50463800D01*
X86663700Y-34331000D02*
X86663700Y-48432500D01*
X87821700Y-33173000D02*
X86663700Y-34331000D01*
X97182500Y-33173000D02*
X87821700Y-33173000D01*
X103733100Y-39723600D02*
X97182500Y-33173000D01*
X103733100Y-39834200D02*
X103733100Y-39723600D01*
X107097600Y-43198700D02*
X103733100Y-39834200D01*
X108182200Y-43198700D02*
X107097600Y-43198700D01*
X109007500Y-43198700D02*
X108182200Y-43198700D01*
X109007500Y-43198700D02*
X109832800Y-43198700D01*
X110630900Y-43996800D02*
X109832800Y-43198700D01*
X113342800Y-43996800D02*
X110630900Y-43996800D01*
X116640600Y-40699000D02*
X113342800Y-43996800D01*
X116640600Y-40553500D02*
X116640600Y-40699000D01*
X119151600Y-38042500D02*
X116640600Y-40553500D01*
X124720300Y-38042500D02*
X119151600Y-38042500D01*
X128057500Y-41379700D02*
X124720300Y-38042500D01*
X128057500Y-42405000D02*
X128057500Y-41379700D01*
X147107500Y-42405000D02*
X147520200Y-42405000D01*
X147520200Y-42405000D02*
X147932800Y-42405000D01*
X129809900Y-43332100D02*
X128882800Y-42405000D01*
X133051000Y-43332100D02*
X129809900Y-43332100D01*
X135852300Y-40530800D02*
X133051000Y-43332100D01*
X135852300Y-40391800D02*
X135852300Y-40530800D01*
X138201600Y-38042500D02*
X135852300Y-40391800D01*
X143717300Y-38042500D02*
X138201600Y-38042500D01*
X147520200Y-41845400D02*
X143717300Y-38042500D01*
X147520200Y-42405000D02*
X147520200Y-41845400D01*
X128057500Y-42405000D02*
X128882800Y-42405000D01*
M02*
